{
.appVersion = "3133";
.formatVersion = 3;
axes = (
{
name = wght;
tag = wght;
}
);
customParameters = (
{
name = "Write lastChange";
value = 0;
},
{
name = "Use Typo Metrics";
value = 1;
},
{
name = fsType;
value = (
);
}
);
date = "2022-02-21 08:08:28 +0000";
familyName = "Edu QLD Beginner Outline";
featurePrefixes = (
{
automatic = 1;
code = "languagesystem DFLT dflt;
";
name = Languagesystems;
}
);
features = (
{
code = "feature ss01;";
tag = aalt;
},
{
automatic = 1;
code = "sub A by A.ss01;
sub B by B.ss01;
sub C by C.ss01;
sub D by D.ss01;
sub E by E.ss01;
sub F by F.ss01;
sub G by G.ss01;
sub H by H.ss01;
sub I by I.ss01;
sub J by J.ss01;
sub K by K.ss01;
sub L by L.ss01;
sub M by M.ss01;
sub N by N.ss01;
sub O by O.ss01;
sub P by P.ss01;
sub Q by Q.ss01;
sub R by R.ss01;
sub S by S.ss01;
sub T by T.ss01;
sub U by U.ss01;
sub V by V.ss01;
sub W by W.ss01;
sub X by X.ss01;
sub Y by Y.ss01;
sub Z by Z.ss01;
sub a by a.ss01;
sub b by b.ss01;
sub c by c.ss01;
sub d by d.ss01;
sub e by e.ss01;
sub f by f.ss01;
sub g by g.ss01;
sub h by h.ss01;
sub i by i.ss01;
sub j by j.ss01;
sub k by k.ss01;
sub l by l.ss01;
sub m by m.ss01;
sub n by n.ss01;
sub o by o.ss01;
sub p by p.ss01;
sub q by q.ss01;
sub r by r.ss01;
sub s by s.ss01;
sub t by t.ss01;
sub u by u.ss01;
sub v by v.ss01;
sub w by w.ss01;
sub x by x.ss01;
sub y by y.ss01;
sub z by z.ss01;
sub zero by zero.ss01;
sub one by one.ss01;
sub two by two.ss01;
sub three by three.ss01;
sub four by four.ss01;
sub five by five.ss01;
sub six by six.ss01;
sub seven by seven.ss01;
sub eight by eight.ss01;
sub nine by nine.ss01;
";
labels = (
{
language = dflt;
value = "";
}
);
tag = ss01;
}
);
fontMaster = (
{
axesValues = (
400
);
customParameters = (
{
name = hheaAscender;
value = 1016;
},
{
name = hheaDescender;
value = -244;
},
{
name = hheaLineGap;
value = 0;
},
{
name = typoAscender;
value = 1016;
},
{
name = typoDescender;
value = -244;
},
{
name = typoLineGap;
value = 0;
},
{
name = winAscent;
value = 1129;
},
{

glyphs = (
{
glyphname = A;
layers = (
{
layerId = m01;
shapes = (
{
closed = 1;
nodes = (
(35,-7,o),
(42,4,o),
(54,27,cs),
(221,354,l),
(388,354,l),
(414,28,l),
(416,16,o),
(420,-7,o),
(452,-7,cs),
(479,-7,o),
(489,10,o),
(487,32,cs),
(425,750,ls),
(424,766,o),
(412,779,o),
(389,780,cs),
(366,780,o),
(359,770,o),
(347,746,cs),
(-20,41,ls),
(-35,11,o),
(-16,-7,o),
(7,-7,cs)
);
},
{
closed = 1;
nodes = (
(-8,8,o),
(-16,16,o),
(-6,35,cs),
(361,740,ls),
(367,752,o),
(372,765,o),
(389,765,cs),
(405,764,o),
(410,759,o),
(411,750,cs),
(473,30,ls),
(474,15,o),
(470,8,o),
(452,8,cs),
(432,8,o),
(430,18,o),
(428,30,c),
(403,361,ls),
(403,366,o),
(400,368,o),
(395,368,cs),
(218,368,ls),
(214,368,o),
(211,367,o),
(209,363,cs),
(40,33,ls),
(29,12,o),
(27,8,o),
(7,8,cs)
);
},
{
closed = 1;
nodes = (
(345,596,l),
(369,649,l),
(369,594,l),
(382,420,l),
(254,420,l)
);
},
{
closed = 1;
nodes = (
(390,404,ls),
(395,404,o),
(397,407,o),
(397,412,cs),
(383,594,l),
(384,677,ls),
(384,682,o),
(381,685,o),
(376,686,cs),
(371,687,o),
(368,685,o),
(366,681,cs),
(331,602,l),
(234,413,ls),
(231,408,o),
(234,404,o),
(240,404,cs)
);
},
{
closed = 1;
nodes = (
(226,574,l),
(261,612,l),
(253,616,l),
(309,732,l),
(301,736,l),
(244,621,l),
(235,625,l)
);
},
{
closed = 1;
nodes = (
(393,729,o),
(398,734,o),
(398,740,cs),
(398,746,o),
(393,751,o),
(387,751,cs),
(381,751,o),
(376,746,o),
(376,740,cs),
(376,734,o),
(381,729,o),
(387,729,cs)
);
}
);
vertWidth = 0;
width = 584;
},
{
layerId = m002;
shapes = (
{
closed = 1;
nodes = (
(71.2,-7.6,o),
(93,4,o),
(108.8,35.6,cs),
(234.4,282.4,l),
(397.2,282.4,l),
(416.4,47.6,ls),
(419,15,o),
(442.4,-7.6,o),
(482,-7.6,cs),
(519.6,-7.6,o),
(547,14,o),
(543.6,55.6,cs),
(486.4,716.8,ls),
(483,758,o),
(452.4,779.6,o),
(412,779.6,cs),
(370,779.6,o),
(343,759,o),
(330.4,735.6,cs),
(-13.6,74.4,ls),
(-38,27,o),
(-4,-7.6,o),
(37.2,-7.6,cs)
);
},
{
closed = 1;
nodes = (
(4,7.6,o),
(-20,30,o),
(-0.4,67.6,cs),
(343.6,728.4,ls),
(354,749,o),
(375.6,764.4,o),
(412,764.4,cs),
(446.4,764.4,o),
(469,749,o),
(471.6,715.2,cs),
(528.4,54.4,ls),
(531,22,o),
(513.6,7.6,o),
(482,7.6,cs),
(448.8,7.6,o),
(434,22,o),
(431.6,48.4,cs),
(411.2,290.4,ls),
(411,295,o),
(408,298,o),
(403.6,297.6,cs),
(231.6,297.6,ls),
(228,298,o),
(225,296,o),
(222.8,292,cs),
(95.2,42.4,ls),
(81,15,o),
(67.2,7.6,o),
(37.2,7.6,cs)
);
},
{
closed = 1;
nodes = (
(360,530,l),
(378,576.4,l),
(376.4,532,l),
(388,398.4,l),
(293.2,398.4,l)
);
},
{
closed = 1;
nodes = (
(396,383.6,ls),
(401,384,o),
(404,386,o),
(403.2,391.6,cs),
(391.6,532,l),
(394,612.8,ls),
(394,617,o),
(392,620,o),
(386.8,621.2,cs),
(382.4,622.4,o),
(379,621,o),
(377.6,616.4,cs),
(346,536,l),
(273.2,392.4,ls),
(271,387,o),
(273,384,o),
(278.8,383.6,cs)
);
},
{
closed = 1;
nodes = (
(192,557,l),
(228,593,l),
(220,597,l),
(281,711,l),
(270,717,l),
(209,604,l),
(202,607,l)
);
},
{
closed = 1;
nodes = (
(392,708,o),
(397,713,o),
(397,719,cs),
(397,725,o),
(392,730,o),
(386,730,cs),
(380,730,o),
(375,725,o),
(375,719,cs),
(375,713,o),
(380,708,o),
(386,708,cs)
);
}
);
vertWidth = 0;
width = 630;
},
{
associatedMasterId = m01;
layerId = "48DF87F4-C72F-4FC9-8329-4E8255600EC0";
name = background;
shapes = (
{
closed = 1;
nodes = (
(409,743,l),
(413,758,o),
(404,772,o),
(381,772,cs),
(355,772,o),
(354,759,o),
(346,743,cs),
(-21,38,ls),
(-33,14,o),
(-19,0,o),
(-1,0,cs),
(23,0,o),
(29,8,o),
(39,30,cs),
(406,735,l)
);
},
{
closed = 1;
nodes = (
(415,361,l),
(409,416,l),
(208,416,l),
(182,361,l)
);
},
{
closed = 1;
nodes = (
(354,728,l),
(413,29,ls),
(415,17,o),
(418,0,o),
(444,0,c),
(466,0,o),
(473,13,o),
(472,31,cs),
(410,754,l)
);
}
);
vertWidth = 0;
width = 594;
}
);
unicode = 65;
},
{
glyphname = B;
kernLeft = H_left;
layers = (
{
layerId = m01;
shapes = (
{
closed = 1;
nodes = (
(385,-6,o),
(484,58,o),
(503,193,cs),
(517,283,o),
(467,356,o),
(366,396,c),
(500,422,o),
(536,477,o),
(547,566,cs),
(567,712,o),
(440,780,o),
(182,780,cs),
(157,780,o),
(145,769,o),
(140,741,cs),
(17,38,ls),
(13,16,o),
(23,-7,o),
(51,-7,cs)
);
},
{
closed = 1;
nodes = (
(297,48,o),
(430,79,o),
(445,200,cs),
(459,298,o),
(364,384,o),
(145,388,cs),
(140,388,o),
(138,385,o),
(137,381,cs),
(80,56,ls),
(79,51,o),
(81,48,o),
(87,48,cs)
);
},
{
closed = 1;
nodes = (
(150,372,l),
(359,368,o),
(443,289,o),
(431,202,cs),
(416,94,o),
(299,64,o),
(96,63,c)
);
},
{
closed = 1;
nodes = (
(34,8,o),
(28,19,o),
(31,36,cs),
(154,739,ls),
(158,760,o),
(164,765,o),
(182,765,cs),
(435,765,o),
(551,703,o),
(533,568,cs),
(521,479,o),
(487,430,o),
(342,407,cs),
(333,406,o),
(331,393,o),
(340,390,cs),
(451,353,o),
(502,284,o),
(489,195,cs),
(470,68,o),
(380,8,o),
(51,7,cs)
);
},
{
closed = 1;
nodes = (
(432,419,o),
(476,470,o),
(488,568,cs),
(502,681,o),
(388,723,o),
(205,726,cs),
(200,726,o),
(198,723,o),
(197,719,cs),
(144,427,ls),
(143,421,o),
(146,418,o),
(152,418,cs)
);
},
{
closed = 1;
nodes = (
(210,710,l),
(386,708,o),
(486,669,o),
(474,570,cs),
(462,479,o),
(424,435,o),
(161,434,c)
);
},
{
closed = 1;
nodes = (
(79,566,l),
(101,612,l),
(93,614,l),
(115,740,l),
(106,742,l),
(83,616,l),
(74,618,l)
);
},
{
closed = 1;
nodes = (
(184,729,o),
(189,734,o),
(189,740,cs),
(189,746,o),
(184,751,o),
(178,751,cs),
(172,751,o),
(167,746,o),
(167,740,cs),
(167,734,o),
(172,729,o),
(178,729,cs)
);
}
);
vertWidth = 0;
width = 579;
},
{
layerId = m002;
shapes = (
{
closed = 1;
nodes = (
(431.6,-7.6,o),
(556.8,24.4,o),
(577.6,178,cs),
(588,257.6,o),
(554.8,318,o),
(494.8,360,c),
(597.6,398,o),
(631.6,463.2,o),
(643.6,548,cs),
(665.2,714.8,o),
(513.6,779.6,o),
(206,779.6,cs),
(176,779.6,o),
(147,769,o),
(139.6,724.4,cs),
(23.6,64.4,ls),
(16,24,o),
(46.8,-7.6,o),
(82,-7.6,cs)
);
},
{
closed = 1;
nodes = (
(374.4,103.6,o),
(450.4,130,o),
(460.4,198.8,cs),
(473.6,288,o),
(394.4,333.2,o),
(200,336.4,cs),
(195.2,336.4,o),
(192,334,o),
(191.6,329.6,cs),
(152.8,107.2,ls),
(152,102,o),
(154.4,99.2,o),
(160,99.2,cs)
);
},
{
closed = 1;
nodes = (
(205.2,321.2,l),
(390.4,317.6,o),
(456.8,278,o),
(445.6,201.2,cs),
(437.2,143.2,o),
(372.4,119.2,o),
(168.8,114.8,c)
);
},
{
closed = 1;
nodes = (
(54,7.6,o),
(33,30,o),
(38.4,61.6,cs),
(154.4,721.6,ls),
(161,758,o),
(179.2,764.4,o),
(206,764.4,cs),
(509.6,764.4,o),
(648.8,704.4,o),
(628.4,550,cs),
(616.4,463.2,o),
(582.8,402.4,o),
(470.8,367.6,cs),
(464.8,365.6,o),
(464,361.2,o),
(469.6,358,cs),
(537.2,318,o),
(573.6,261.2,o),
(562.4,180,cs),
(543.2,37.2,o),
(429.2,7.6,o),
(82,7.6,cs)
);
},
{
closed = 1;
nodes = (
(494.8,420.8,o),
(515.2,489.2,o),
(524.4,554,cs),
(533.2,625.6,o),
(477.2,665.2,o),
(259.2,671.6,cs),
(254,671.6,o),
(251,669,o),
(250.4,664.8,cs),
(208.8,425.6,ls),
(208,421,o),
(210.4,417.6,o),
(216,417.6,cs)
);
},
{
closed = 1;
nodes = (
(264.4,656.4,l),
(470.4,650,o),
(516.8,616.8,o),
(509.6,556,cs),
(500.8,494.4,o),
(482.8,436.8,o),
(224.8,432.8,c)
);
},
{
closed = 1;
nodes = (
(77,549,l),
(100,594,l),
(91,596,l),
(114,724,l),
(101,726,l),
(78,599,l),
(70,600,l)
);
},
{
closed = 1;
nodes = (
(200,718,o),
(205,723,o),
(205,729,cs),
(205,735,o),
(200,740,o),
(194,740,cs),
(188,740,o),
(183,735,o),
(183,729,cs),
(183,723,o),
(188,718,o),
(194,718,cs)
);
}
);
vertWidth = 0;
width = 670;
},
{
associatedMasterId = m01;
layerId = "C390BF64-4B74-44D2-936D-D44319E19B75";
name = background;
shapes = (
{
closed = 1;
nodes = (
(472,361,o),
(539,436,o),
(557,564,cs),
(576,704,o),
(430,772,o),
(175,772,c),
(185,718,l),
(373,718,o),
(512,675,o),
(498,567,cs),
(486,481,o),
(438,416,o),
(133,416,c),
(124,361,l)
);
},
{
closed = 1;
nodes = (
(373,0,o),
(470,42,o),
(488,171,cs),
(508,321,o),
(366,416,o),
(128,416,c),
(120,361,l),
(334,361,o),
(444,284,o),
(430,179,cs),
(416,74,o),
(285,55,o),
(69,55,c),
(39,0,l)
);
},
{
closed = 1;
nodes = (
(204,762,o),
(197,772,o),
(175,772,cs),
(154,772,o),
(145,764,o),
(140,740,cs),
(17,37,ls),
(13,17,o),
(25,0,o),
(45,0,cs),
(62,0,o),
(71,11,o),
(76,34,cs),
(200,735,ls)
);
}
);
vertWidth = 0;
width = 594;
}
);
unicode = 66;
},
{
glyphname = C;
kernLeft = O_left;
layers = (
{
layerId = m01;
shapes = (
{
closed = 1;
nodes = (
(307,-12,o),
(399,49,o),
(498,197,cs),
(524,236,o),
(526,244,o),
(526,252,cs),
(526,270,o),
(510,284,o),
(492,284,cs),
(469,284,o),
(457,270,o),
(437,239,cs),
(345,108,o),
(279,63,o),
(208,63,cs),
(139,63,o),
(124,119,o),
(124,163,cs),
(124,248,o),
(147,367,o),
(155,414,cs),
(183,554,o),
(224,706,o),
(500,706,cs),
(576,706,o),
(585,707,o),
(598,714,cs),
(615,724,o),
(618,757,o),
(600,769,cs),
(589,777,o),
(576,780,o),
(501,780,cs),
(171,780,o),
(112,594,o),
(78,403,cs),
(74,379,o),
(50,242,o),
(50,164,cs),
(50,81,o),
(87,-12,o),
(209,-12,cs)
);
},
{
closed = 1;
nodes = (
(98,3,o),
(65,84,o),
(65,164,cs),
(65,240,o),
(88,377,o),
(92,401,cs),
(126,590,o),
(182,765,o),
(501,765,cs),
(574,765,o),
(583,763,o),
(592,757,cs),
(601,750,o),
(600,733,o),
(590,728,cs),
(579,721,o),
(574,721,o),
(500,721,cs),
(212,721,o),
(169,558,o),
(141,416,cs),
(133,369,o),
(109,250,o),
(109,163,cs),
(109,117,o),
(127,48,o),
(208,48,cs),
(284,48,o),
(355,97,o),
(449,231,cs),
(469,260,o),
(476,269,o),
(492,269,cs),
(503,269,o),
(511,262,o),
(511,252,cs),
(511,246,o),
(510,241,o),
(486,205,cs),
(389,60,o),
(302,3,o),
(209,3,cs)
);
},
{
closed = 1;
nodes = (
(388,815,l),
(437,801,l),
(437,810,l),
(566,810,l),
(566,820,l),
(437,820,l),
(437,829,l)
);
},
{
closed = 1;
nodes = (
(571,733,o),
(576,738,o),
(576,744,cs),
(576,750,o),
(571,755,o),
(565,755,cs),
(559,755,o),
(554,750,o),
(554,744,cs),
(554,738,o),
(559,733,o),
(565,733,cs)
);
}
);
vertWidth = 0;
width = 587;
},
{
layerId = m002;
shapes = (
{
closed = 1;
nodes = (
(336.4,-12.4,o),
(450.8,50,o),
(547.2,192.8,cs),
(576.4,236.4,o),
(577.6,248.4,o),
(577.6,260,cs),
(577.6,293.6,o),
(547.2,315.6,o),
(516,315.6,cs),
(485.2,315.6,o),
(467.6,300.4,o),
(440.8,263.2,cs),
(356.8,142.8,o),
(296,108.4,o),
(239.2,108.4,cs),
(199.6,108.4,o),
(177.6,136.4,o),
(177.6,176,cs),
(177.6,253.2,o),
(198.4,364.8,o),
(205.2,405.6,cs),
(230.4,536.8,o),
(277.2,658.4,o),
(514,658.4,cs),
(580.4,658.4,o),
(613.2,661.6,o),
(630.8,671.6,cs),
(666.4,693.2,o),
(670,742.8,o),
(635.2,768.4,cs),
(617.2,779.6,o),
(582,779.6,o),
(516,779.6,cs),
(182.8,779.6,o),
(102,589.6,o),
(69.6,406.4,cs),
(64.8,382.4,o),
(43.6,252.8,o),
(43.6,177.2,cs),
(43.6,92.4,o),
(91.2,-12.4,o),
(232,-12.4,cs)
);
},
{
closed = 1;
nodes = (
(102,2.4,o),
(58.4,96.8,o),
(58.4,177.2,cs),
(58.4,251.2,o),
(79.2,379.6,o),
(84.4,403.6,cs),
(116.4,584.8,o),
(192.8,764.4,o),
(516,764.4,cs),
(582,764.4,o),
(612.8,764.4,o),
(626.8,755.6,cs),
(653.2,736.4,o),
(650.8,701.2,o),
(623.2,684.4,cs),
(608.8,676.4,o),
(579.6,673.6,o),
(514,673.6,cs),
(266.4,673.6,o),
(216,541.6,o),
(190.8,408.4,cs),
(183.6,367.2,o),
(162.4,254.8,o),
(162.4,176,cs),
(162.4,130.8,o),
(191.6,93.6,o),
(239.2,93.6,cs),
(300.4,93.6,o),
(366.8,130.8,o),
(453.2,254.8,cs),
(478.4,290,o),
(490.8,300.4,o),
(516,300.4,cs),
(541.6,300.4,o),
(562.4,285.2,o),
(562.4,260,cs),
(562.4,249.2,o),
(561.6,241.6,o),
(534.8,201.2,cs),
(440.8,61.6,o),
(332,2.4,o),
(232,2.4,cs)
);
},
{
closed = 1;
nodes = (
(415,818,l),
(464,803,l),
(464,812,l),
(593,812,l),
(593,825,l),
(464,825,l),
(464,834,l)
);
},
{
closed = 1;
nodes = (
(606,720,o),
(611,725,o),
(611,731,cs),
(611,737,o),
(606,742,o),
(600,742,cs),
(594,742,o),
(589,737,o),
(589,731,cs),
(589,725,o),
(594,720,o),
(600,720,cs)
);
}
);
vertWidth = 0;
width = 647;
}
);
unicode = 67;
},
{
glyphname = D;
kernLeft = H_left;
kernRight = O_right;
layers = (
{
layerId = m01;
shapes = (
{
closed = 1;
nodes = (
(126,-7,ls),
(358,-7,o),
(521,140,o),
(556,408,cs),
(588,649,o),
(448,780,o),
(224,780,cs),
(183,780,ls),
(152,780,o),
(144,762,o),
(140,741,cs),
(15,33,ls),
(11,11,o),
(23,-7,o),
(50,-7,cs)
);
},
{
closed = 1;
nodes = (
(126,48,ls),
(322,48,o),
(468,172,o),
(496,416,cs),
(520,612,o),
(413,725,o),
(227,717,cs),
(203,716,ls),
(198,716,o),
(196,714,o),
(195,710,cs),
(80,56,ls),
(79,51,o),
(81,48,o),
(86,48,cs)
);
},
{
closed = 1;
nodes = (
(208,702,l),
(227,702,ls),
(406,702,o),
(504,605,o),
(482,418,cs),
(454,181,o),
(315,63,o),
(126,63,cs),
(96,63,l)
);
},
{
closed = 1;
nodes = (
(32,8,o),
(26,16,o),
(29,31,cs),
(154,739,ls),
(157,757,o),
(162,765,o),
(183,765,cs),
(224,765,ls),
(441,765,o),
(572,642,o),
(542,410,cs),
(507,149,o),
(351,8,o),
(126,8,cs),
(50,8,ls)
);
},
{
closed = 1;
nodes = (
(80,566,l),
(101,612,l),
(92,614,l),
(112,741,l),
(103,742,l),
(82,616,l),
(73,617,l)
);
},
{
closed = 1;
nodes = (
(186,729,o),
(191,734,o),
(191,740,cs),
(191,746,o),
(186,751,o),
(180,751,cs),
(174,751,o),
(169,746,o),
(169,740,cs),
(169,734,o),
(174,729,o),
(180,729,cs)
);
}
);
vertWidth = 0;
width = 609;
},
{
layerId = m002;
shapes = (
{
closed = 1;
nodes = (
(177.2,-7.6,ls),
(410,-8,o),
(584,148.4,o),
(620.4,416,cs),
(648,624.4,o),
(501,780,o),
(268,779.6,cs),
(209.2,779.6,ls),
(168,780,o),
(148,760,o),
(141.6,724.4,cs),
(23.6,59.2,ls),
(17,23,o),
(44,-8,o),
(84,-7.6,cs)
);
},
{
closed = 1;
nodes = (
(177.2,98.4,ls),
(350,98,o),
(476.8,205.2,o),
(505.6,415.2,cs),
(524.8,565.2,o),
(443,674,o),
(274,673.6,cs),
(259.6,673.6,ls),
(255,674,o),
(252,671,o),
(251.6,666.8,cs),
(152.8,106.4,ls),
(152,102,o),
(154,98,o),
(159.6,98.4,cs)
);
},
{
closed = 1;
nodes = (
(265.2,658.4,l),
(274,658.4,ls),
(434,658,o),
(509.2,560,o),
(490.4,416.8,cs),
(462.8,214,o),
(344,114,o),
(177.2,113.6,cs),
(168.8,113.6,l)
);
},
{
closed = 1;
nodes = (
(51,8,o),
(33,28,o),
(38.4,56.8,cs),
(156.4,721.6,ls),
(162,752,o),
(175,764,o),
(209.2,764.4,cs),
(268,764.4,ls),
(494,764,o),
(632,618.4,o),
(605.6,418,cs),
(570,156.8,o),
(403,8,o),
(177.2,7.6,cs),
(84,7.6,ls)
);
},
{
closed = 1;
nodes = (
(75,549,l),
(98,594,l),
(89,596,l),
(112,724,l),
(99,726,l),
(76,599,l),
(68,600,l)
);
},
{
closed = 1;
nodes = (
(198,718,o),
(203,723,o),
(203,729,cs),
(203,735,o),
(198,740,o),
(192,740,cs),
(186,740,o),
(181,735,o),
(181,729,cs),
(181,723,o),
(186,718,o),
(192,718,cs)
);
}
);
vertWidth = 0;
width = 672;
}
);
unicode = 68;
},
{
glyphname = E;
kernLeft = H_left;
layers = (
{
layerId = m01;
shapes = (
{
closed = 1;
nodes = (
(418,-7,ls),
(447,-7,o),
(457,11,o),
(457,29,cs),
(457,46,o),
(447,63,o),
(418,63,cs),
(96,63,l),
(147,354,l),
(442,354,ls),
(471,354,o),
(481,371,o),
(481,388,cs),
(481,406,o),
(471,424,o),
(442,424,cs),
(160,424,l),
(210,711,l),
(539,711,ls),
(568,711,o),
(578,728,o),
(578,745,cs),
(578,762,o),
(568,780,o),
(539,780,cs),
(183,780,ls),
(152,780,o),
(144,762,o),
(140,741,cs),
(15,33,ls),
(11,11,o),
(23,-7,o),
(50,-7,cs)
);
},
{
closed = 1;
nodes = (
(32,8,o),
(27,16,o),
(29,31,cs),
(154,739,ls),
(158,757,o),
(162,765,o),
(183,765,cs),
(539,765,ls),
(559,765,o),
(563,757,o),
(563,745,cs),
(563,733,o),
(559,726,o),
(539,726,cs),
(205,726,ls),
(200,726,o),
(197,723,o),
(197,719,cs),
(144,417,ls),
(143,411,o),
(145,408,o),
(150,408,cs),
(442,409,ls),
(462,409,o),
(466,401,o),
(466,388,cs),
(466,376,o),
(462,369,o),
(442,369,cs),
(141,368,ls),
(137,368,o),
(134,366,o),
(133,362,cs),
(80,56,ls),
(79,51,o),
(81,48,o),
(86,48,cs),
(418,48,ls),
(438,48,o),
(442,41,o),
(442,29,cs),
(442,16,o),
(437,8,o),
(418,8,cs),
(50,8,ls)
);
},
{
closed = 1;
nodes = (
(80,566,l),
(101,612,l),
(92,614,l),
(112,741,l),
(103,742,l),
(82,616,l),
(73,617,l)
);
},
{
closed = 1;
nodes = (
(186,729,o),
(191,734,o),
(191,740,cs),
(191,746,o),
(186,751,o),
(180,751,cs),
(174,751,o),
(169,746,o),
(169,740,cs),
(169,734,o),
(174,729,o),
(180,729,cs)
);
}
);
vertWidth = 0;
width = 533;
},
{
layerId = m002;
shapes = (
{
closed = 1;
nodes = (
(487.2,-7.6,ls),
(527.2,-7.6,o),
(553.6,18.8,o),
(553.6,59.2,cs),
(553.6,98,o),
(531.2,120.4,o),
(489.2,120.4,cs),
(168.8,120.4,l),
(202.4,308.4,l),
(508,308.4,ls),
(550,308.4,o),
(580.4,336.8,o),
(580.4,371.2,cs),
(580.4,408.4,o),
(554,432.4,o),
(514,432.4,cs),
(224,432.4,l),
(262.4,651.6,l),
(605.2,651.6,ls),
(644.4,651.6,o),
(672.4,685.6,o),
(672.4,720,cs),
(672.4,754,o),
(648.4,779.6,o),
(607.2,779.6,cs),
(211.2,779.6,ls),
(172,779.6,o),
(147.2,764.4,o),
(141.6,727.2,cs),
(23.6,60.4,ls),
(16.8,23.6,o),
(33.6,-7.6,o),
(75.2,-7.6,cs)
);
},
{
closed = 1;
nodes = (
(43.6,7.6,o),
(32.8,27.2,o),
(38.4,57.6,cs),
(156.4,724.8,ls),
(160.8,754.4,o),
(177.2,764.4,o),
(211.2,764.4,cs),
(607.2,764.4,ls),
(640.8,764.4,o),
(657.6,746.8,o),
(657.6,720,cs),
(657.6,691.6,o),
(636.4,666.4,o),
(605.2,666.4,cs),
(256.4,666.4,ls),
(252,666.4,o),
(249.2,664,o),
(248.4,659.6,cs),
(207.6,425.6,ls),
(206.4,420.4,o),
(209.2,417.6,o),
(214.4,417.6,cs),
(514,417.6,ls),
(547.2,417.6,o),
(565.6,400.8,o),
(565.6,371.2,cs),
(565.6,344.4,o),
(543.2,323.6,o),
(508,323.6,cs),
(196.4,323.6,ls),
(192,323.6,o),
(189.2,321.2,o),
(188.4,316.8,cs),
(152.8,113.6,ls),
(151.6,108.8,o),
(154.4,105.6,o),
(159.6,105.6,cs),
(489.2,105.6,ls),
(524,105.6,o),
(538.4,90.8,o),
(538.4,59.2,cs),
(538.4,26,o),
(520,7.6,o),
(487.2,7.6,cs),
(75.2,7.6,ls)
);
},
{
closed = 1;
nodes = (
(75,549,l),
(98,594,l),
(89,596,l),
(112,724,l),
(99,726,l),
(76,599,l),
(68,600,l)
);
},
{
closed = 1;
nodes = (
(198,718,o),
(203,723,o),
(203,729,cs),
(203,735,o),
(198,740,o),
(192,740,cs),
(186,740,o),
(181,735,o),
(181,729,cs),
(181,723,o),
(186,718,o),
(192,718,cs)
);
}
);
vertWidth = 0;
width = 646;
},
{
associatedMasterId = m01;
layerId = "7D81A9B3-6763-4C6E-8CF8-C1959E1CDD3E";
name = background;
shapes = (
{
closed = 1;
nodes = (
(203,757,o),
(201,772,o),
(176,772,cs),
(150,772,o),
(144,759,o),
(140,740,c),
(15,32,l),
(12,14,o),
(21,0,o),
(43,0,cs),
(69,0,o),
(74,18,o),
(76,30,c),
(200,735,l)
);
},
{
closed = 1;
nodes = (
(441,0,ls),
(465,0,o),
(472,17,o),
(472,31,cs),
(472,45,o),
(465,59,o),
(441,59,cs),
(53,59,l),
(44,0,l)
);
},
{
closed = 1;
nodes = (
(472,361,ls),
(495,361,o),
(503,374,o),
(503,388,cs),
(503,403,o),
(495,416,o),
(472,416,cs),
(110,416,l),
(101,361,l)
);
},
{
closed = 1;
nodes = (
(569,713,ls),
(593,713,o),
(600,728,o),
(600,743,cs),
(600,757,o),
(593,772,o),
(569,772,cs),
(181,772,l),
(170,713,l)
);
}
);
vertWidth = 0;
width = 594;
},
{
associatedMasterId = m002;
layerId = "BD7EF2B7-F3AE-423E-98C0-14594FE969C3";
name = background;
shapes = (
{
closed = 1;
nodes = (
(25,26,o),
(39,0,o),
(75,0,cs),
(113,0,o),
(146,21,o),
(151,48,cs),
(267,709,ls),
(276,758,o),
(245,772,o),
(211,772,cs),
(175,772,o),
(154,759,o),
(149,726,cs),
(31,59,ls)
);
},
{
closed = 1;
nodes = (
(546,78,o),
(527,95,o),
(489,95,cs),
(100,95,l),
(83,0,l),
(487,0,ls),
(523,0,o),
(546,19,o),
(546,50,cs)
);
},
{
closed = 1;
nodes = (
(573,397,o),
(550,416,o),
(514,416,cs),
(157,416,l),
(138,315,l),
(508,315,ls),
(546,315,o),
(573,337,o),
(573,366,cs)
);
},
{
closed = 1;
nodes = (
(665,750,o),
(644,772,o),
(607,772,cs),
(220,772,l),
(201,659,l),
(605,659,ls),
(640,659,o),
(665,689,o),
(665,720,cs)
);
}
);
vertWidth = 0;
width = 594;
}
);
unicode = 69;
},
{
glyphname = F;
kernLeft = H_left;
layers = (
{
layerId = m01;
shapes = (
{
closed = 1;
nodes = (
(82,-7,o),
(88,16,o),
(90,29,cs),
(147,354,l),
(437,354,ls),
(466,354,o),
(476,371,o),
(476,388,cs),
(476,406,o),
(466,424,o),
(437,424,cs),
(160,424,l),
(210,711,l),
(526,711,ls),
(555,711,o),
(565,728,o),
(565,745,cs),
(565,762,o),
(555,780,o),
(526,780,cs),
(183,780,ls),
(152,780,o),
(144,762,o),
(140,741,cs),
(15,33,ls),
(11,11,o),
(23,-7,o),
(50,-7,cs)
);
},
{
closed = 1;
nodes = (
(32,8,o),
(27,16,o),
(29,31,cs),
(154,739,ls),
(158,757,o),
(162,765,o),
(183,765,cs),
(526,765,ls),
(546,765,o),
(550,757,o),
(550,745,cs),
(550,733,o),
(546,726,o),
(526,726,cs),
(205,726,ls),
(200,726,o),
(197,723,o),
(197,719,cs),
(144,417,ls),
(143,411,o),
(145,408,o),
(150,408,cs),
(437,409,ls),
(457,409,o),
(461,401,o),
(461,388,cs),
(461,376,o),
(457,369,o),
(437,369,cs),
(141,368,ls),
(137,368,o),
(134,366,o),
(133,362,cs),
(76,31,ls),
(74,20,o),
(70,8,o),
(50,8,cs)
);
},
{
closed = 1;
nodes = (
(80,566,l),
(101,612,l),
(92,614,l),
(112,741,l),
(103,742,l),
(82,616,l),
(73,617,l)
);
},
{
closed = 1;
nodes = (
(186,729,o),
(191,734,o),
(191,740,cs),
(191,746,o),
(186,751,o),
(180,751,cs),
(174,751,o),
(169,746,o),
(169,740,cs),
(169,734,o),
(174,729,o),
(180,729,cs)
);
}
);
vertWidth = 0;
width = 515;
},
{
layerId = m002;
shapes = (
{
closed = 1;
nodes = (
(122.8,-7.6,o),
(152,20.4,o),
(158.4,59.6,cs),
(202.4,307.6,l),
(503.2,307.6,ls),
(545.2,307.6,o),
(568.4,333.2,o),
(568.4,366,cs),
(568.4,400,o),
(547.6,430.4,o),
(505.2,430.4,cs),
(224,430.4,l),
(262.4,651.6,l),
(589.2,651.6,ls),
(628.8,651.6,o),
(660.4,678.4,o),
(660.4,718,cs),
(660.4,755.2,o),
(636,779.6,o),
(595.2,779.6,cs),
(209.2,779.6,ls),
(168.8,779.6,o),
(147.2,762.8,o),
(141.6,726.4,cs),
(24.8,65.2,ls),
(18,30.8,o),
(29.6,-7.6,o),
(74,-7.6,cs)
);
},
{
closed = 1;
nodes = (
(41.6,7.6,o),
(33.6,32.4,o),
(39.2,62.8,cs),
(156.4,723.6,ls),
(160.8,754,o),
(174.4,764.4,o),
(209.2,764.4,cs),
(595.2,764.4,ls),
(628.8,764.4,o),
(645.6,748,o),
(645.6,718,cs),
(645.6,686.4,o),
(622.4,666.4,o),
(589.2,666.4,cs),
(256.4,666.4,ls),
(252,666.4,o),
(249.2,664,o),
(248.4,659.6,cs),
(207.6,423.6,ls),
(206.4,418.4,o),
(209.2,415.6,o),
(214.4,415.6,cs),
(505.2,415.6,ls),
(539.2,415.6,o),
(553.6,394.8,o),
(553.6,366,cs),
(553.6,340,o),
(537.6,322.4,o),
(503.2,322.4,cs),
(196.4,322.4,ls),
(192,322.4,o),
(189.2,320,o),
(188.4,315.6,cs),
(143.6,62.4,ls),
(138,28.8,o),
(116,7.6,o),
(74,7.6,cs)
);
},
{
closed = 1;
nodes = (
(75,549,l),
(98,594,l),
(89,596,l),
(112,724,l),
(99,726,l),
(76,599,l),
(68,600,l)
);
},
{
closed = 1;
nodes = (
(198,718,o),
(203,723,o),
(203,729,cs),
(203,735,o),
(198,740,o),
(192,740,cs),
(186,740,o),
(181,735,o),
(181,729,cs),
(181,723,o),
(186,718,o),
(192,718,cs)
);
}
);
vertWidth = 0;
width = 634;
},
{
associatedMasterId = m01;
layerId = "F9C33966-9A92-4AEC-87C7-153E19327B3B";
name = background;
shapes = (
{
closed = 1;
nodes = (
(203,757,o),
(201,772,o),
(176,772,cs),
(150,772,o),
(144,759,o),
(140,740,cs),
(15,32,ls),
(12,14,o),
(21,0,o),
(43,0,cs),
(69,0,o),
(74,18,o),
(76,30,cs),
(200,735,ls)
);
},
{
closed = 1;
nodes = (
(470,361,ls),
(494,361,o),
(501,374,o),
(501,388,cs),
(501,403,o),
(494,416,o),
(470,416,cs),
(119,416,l),
(110,361,l)
);
},
{
closed = 1;
nodes = (
(569,713,ls),
(593,713,o),
(600,728,o),
(600,743,cs),
(600,757,o),
(593,772,o),
(569,772,cs),
(177,772,l),
(169,713,l)
);
}
);
vertWidth = 0;
width = 594;
}
);
unicode = 70;
},
{
glyphname = G;
kernLeft = O_left;
layers = (
{
layerId = m01;
shapes = (
{
closed = 1;
nodes = (
(259,-12,o),
(355,96,o),
(446,225,c),
(412,33,ls),
(409,17,o),
(413,-6,o),
(444,-7,cs),
(478,-9,o),
(485,17,o),
(487,31,cs),
(549,383,ls),
(553,406,o),
(546,424,o),
(520,424,cs),
(489,424,o),
(474,398,o),
(458,376,cs),
(422,324,o),
(225,58,o),
(170,58,cs),
(133,58,o),
(124,107,o),
(124,160,cs),
(124,237,o),
(145,367,o),
(158,431,cs),
(183,554,o),
(233,711,o),
(508,711,cs),
(575,711,ls),
(597,711,o),
(613,725,o),
(613,745,cs),
(613,763,o),
(598,780,o),
(580,780,cs),
(510,780,ls),
(179,780,o),
(112,594,o),
(78,403,cs),
(74,379,o),
(50,242,o),
(50,166,cs),
(50,81,o),
(81,-12,o),
(166,-12,cs)
);
},
{
closed = 1;
nodes = (
(92,3,o),
(65,84,o),
(65,166,cs),
(65,240,o),
(88,377,o),
(92,401,cs),
(126,590,o),
(190,765,o),
(510,765,cs),
(580,765,ls),
(591,765,o),
(598,756,o),
(598,745,cs),
(598,732,o),
(590,726,o),
(575,726,cs),
(508,726,ls),
(221,726,o),
(169,558,o),
(144,433,cs),
(131,369,o),
(109,239,o),
(109,160,cs),
(109,105,o),
(120,43,o),
(170,43,cs),
(235,43,o),
(434,315,o),
(470,368,cs),
(486,390,o),
(497,409,o),
(520,409,cs),
(535,409,o),
(538,403,o),
(535,385,cs),
(473,33,ls),
(471,21,o),
(466,7,o),
(444,7,cs),
(426,8,o),
(424,18,o),
(426,31,cs),
(465,250,ls),
(466,255,o),
(464,258,o),
(460,259,c),
(459,260,l),
(455,262,o),
(452,261,o),
(449,257,cs),
(354,118,o),
(257,2,o),
(166,3,cs)
);
},
{
closed = 1;
nodes = (
(390,817,l),
(439,803,l),
(439,812,l),
(568,812,l),
(568,822,l),
(439,822,l),
(439,831,l)
);
},
{
closed = 1;
nodes = (
(573,735,o),
(578,740,o),
(578,746,cs),
(578,752,o),
(573,757,o),
(567,757,cs),
(561,757,o),
(556,752,o),
(556,746,cs),
(556,740,o),
(561,735,o),
(567,735,cs)
);
}
);
vertWidth = 0;
width = 613;
},
{
layerId = m002;
shapes = (
{
closed = 1;
nodes = (
(261.6,-12.4,o),
(338,61.2,o),
(404,147.2,c),
(388.8,59.2,ls),
(382,17,o),
(409.2,-7.6,o),
(454,-7.6,cs),
(500,-7.6,o),
(513,18,o),
(518.4,48.8,cs),
(576.4,378.8,ls),
(584,420,o),
(560.4,447.6,o),
(517.2,447.6,cs),
(470.8,447.6,o),
(460.8,431.2,o),
(392.8,326,cs),
(351.6,262,o),
(250,108.4,o),
(194,108.4,cs),
(181.2,108.4,o),
(175.6,135.6,o),
(175.6,184,cs),
(175.6,253.2,o),
(196.4,359.6,o),
(207.2,419.6,cs),
(227.2,533.2,o),
(271,658,o),
(508,658.4,cs),
(571.2,658.4,ls),
(608,658,o),
(635.6,686.8,o),
(635.6,721.2,cs),
(635.6,754.4,o),
(609,780,o),
(575.2,779.6,cs),
(510,779.6,ls),
(176,780,o),
(102,589.6,o),
(69.6,406.4,cs),
(64.8,382.4,o),
(43.6,252.8,o),
(43.6,179.2,cs),
(43.6,92.4,o),
(73.6,-12.4,o),
(179.2,-12.4,cs)
);
},
{
closed = 1;
nodes = (
(85.6,2.4,o),
(58.4,95.2,o),
(58.4,179.2,cs),
(58.4,251.2,o),
(79.2,379.6,o),
(84.4,403.6,cs),
(116.4,584.8,o),
(187,764,o),
(510,764.4,cs),
(575.2,764.4,ls),
(602,764,o),
(620.4,746.8,o),
(620.4,721.2,cs),
(620.4,694,o),
(601,674,o),
(571.2,673.6,cs),
(508,673.6,ls),
(260,674,o),
(212.8,537.2,o),
(192.8,422.4,cs),
(181.6,362.4,o),
(160.4,254.8,o),
(160.4,184,cs),
(160.4,133.2,o),
(168,93.6,o),
(194,93.6,cs),
(259.2,93.6,o),
(364.4,254,o),
(405.2,318,cs),
(473.2,422.8,o),
(479.2,432.4,o),
(517.2,432.4,cs),
(552.4,432.4,o),
(568,415,o),
(561.6,381.2,cs),
(503.6,51.2,ls),
(499,24,o),
(490.4,7.6,o),
(454,7.6,cs),
(416,7.6,o),
(397,24,o),
(403.2,56.8,cs),
(423.2,169.2,ls),
(424,174,o),
(423,177,o),
(418.4,178.4,cs),
(416.8,178.8,ls),
(412,180,o),
(409.6,180,o),
(406.8,176,cs),
(338,82.4,o),
(261.2,2.4,o),
(179.2,2.4,cs)
);
},
{
closed = 1;
nodes = (
(396,818,l),
(445,803,l),
(445,812,l),
(574,812,l),
(574,825,l),
(445,825,l),
(445,834,l)
);
},
{
closed = 1;
nodes = (
(587,720,o),
(592,725,o),
(592,731,cs),
(592,737,o),
(587,742,o),
(581,742,cs),
(575,742,o),
(570,737,o),
(570,731,cs),
(570,725,o),
(575,720,o),
(581,720,cs)
);
}
);
vertWidth = 0;
width = 624;
}
);
unicode = 71;
},
{
glyphname = H;
kernLeft = H_left;
kernRight = H_right;
layers = (
{
layerId = m01;
shapes = (
{
closed = 1;
nodes = (
(82,-7,o),
(88,16,o),
(90,29,cs),
(147,354,l),
(470,354,l),
(415,33,ls),
(411,18,o),
(415,-7,o),
(449,-7,cs),
(477,-7,o),
(486,12,o),
(488,25,cs),
(613,737,ls),
(617,760,o),
(608,780,o),
(578,780,cs),
(552,780,o),
(542,761,o),
(539,748,c),
(483,424,l),
(160,424,l),
(214,734,ls),
(218,759,o),
(209,780,o),
(183,780,cs),
(155,780,o),
(144,763,o),
(140,741,cs),
(15,33,ls),
(11,11,o),
(23,-7,o),
(50,-7,cs)
);
},
{
closed = 1;
nodes = (
(32,8,o),
(27,16,o),
(29,31,cs),
(154,739,ls),
(158,756,o),
(164,765,o),
(183,765,cs),
(198,765,o),
(202,756,o),
(200,736,cs),
(144,417,ls),
(143,411,o),
(145,408,o),
(150,408,cs),
(488,408,ls),
(493,408,o),
(496,411,o),
(497,415,cs),
(553,744,l),
(556,755,o),
(561,765,o),
(578,765,cs),
(597,765,o),
(601,757,o),
(599,739,cs),
(474,27,ls),
(472,17,o),
(467,8,o),
(449,8,cs),
(428,8,o),
(427,18,o),
(429,31,cs),
(486,360,ls),
(487,365,o),
(485,368,o),
(480,368,cs),
(141,368,ls),
(137,368,o),
(134,366,o),
(133,362,cs),
(76,31,ls),
(74,20,o),
(70,8,o),
(50,8,cs)
);
},
{
closed = 1;
nodes = (
(80,566,l),
(101,612,l),
(92,614,l),
(112,741,l),
(103,742,l),
(82,616,l),
(73,617,l)
);
},
{
closed = 1;
nodes = (
(186,729,o),
(191,734,o),
(191,740,cs),
(191,746,o),
(186,751,o),
(180,751,cs),
(174,751,o),
(169,746,o),
(169,740,cs),
(169,734,o),
(174,729,o),
(180,729,cs)
);
}
);
vertWidth = 0;
width = 628;
},
{
layerId = m002;
shapes = (
{
closed = 1;
nodes = (
(131.6,-7.6,o),
(153,20,o),
(157.2,46.8,cs),
(204.4,318.4,l),
(466,318.4,l),
(421.6,59.2,ls),
(415,21,o),
(438.4,-7.6,o),
(482,-7.6,cs),
(520.4,-7.6,o),
(549,15,o),
(553.2,42.8,cs),
(670.4,710.8,ls),
(678,754,o),
(648.8,779.6,o),
(608,779.6,cs),
(571.6,779.6,o),
(543,759,o),
(537.6,729.2,cs),
(487.6,439.6,l),
(226,439.6,l),
(272.4,707.6,ls),
(280,755,o),
(255.2,779.6,o),
(216,779.6,cs),
(181.6,779.6,o),
(146,763,o),
(139.6,724.4,cs),
(23.6,59.2,ls),
(17,22,o),
(44.8,-7.6,o),
(87.2,-7.6,cs)
);
},
{
closed = 1;
nodes = (
(52,7.6,o),
(33,27,o),
(38.4,56.8,cs),
(154.4,721.6,ls),
(160,752,o),
(185.6,764.4,o),
(216,764.4,cs),
(248,764.4,o),
(264,748,o),
(257.6,710.4,cs),
(209.6,432.4,ls),
(209,427,o),
(211,424,o),
(216.4,424.4,cs),
(493.6,424.4,ls),
(498,424,o),
(501,427,o),
(501.6,431.2,cs),
(552.4,726.8,ls),
(557,750,o),
(577.6,764.4,o),
(608,764.4,cs),
(642,764.4,o),
(662,747,o),
(655.6,713.2,cs),
(538.8,45.2,ls),
(535,24,o),
(514.4,7.6,o),
(482,7.6,cs),
(446.4,7.6,o),
(431,26,o),
(436.4,56.8,cs),
(482.8,325.6,ls),
(483,331,o),
(481,334,o),
(475.6,333.6,cs),
(198.4,333.6,ls),
(194,334,o),
(191,331,o),
(190.4,326.8,cs),
(142.8,49.2,ls),
(139,27,o),
(123.2,7.6,o),
(87.2,7.6,cs)
);
},
{
closed = 1;
nodes = (
(75,549,l),
(98,594,l),
(89,596,l),
(112,724,l),
(99,726,l),
(76,599,l),
(68,600,l)
);
},
{
closed = 1;
nodes = (
(198,718,o),
(203,723,o),
(203,729,cs),
(203,735,o),
(198,740,o),
(192,740,cs),
(186,740,o),
(181,735,o),
(181,729,cs),
(181,723,o),
(186,718,o),
(192,718,cs)
);
}
);
vertWidth = 0;
width = 694;
}
);
unicode = 72;
},
{
glyphname = I;
layers = (
{
layerId = m01;
shapes = (
{
closed = 1;
nodes = (
(159,-7,ls),
(188,-7,o),
(198,10,o),
(198,27,cs),
(198,45,o),
(188,63,o),
(159,63,cs),
(152,63,l),
(265,711,l),
(287,711,ls),
(316,711,o),
(326,729,o),
(326,746,cs),
(326,763,o),
(316,780,o),
(287,780,cs),
(182,780,ls),
(153,780,o),
(144,763,o),
(144,746,cs),
(144,729,o),
(153,711,o),
(182,711,cs),
(190,711,l),
(76,63,l),
(53,63,ls),
(25,63,o),
(15,45,o),
(15,27,cs),
(15,10,o),
(25,-7,o),
(53,-7,cs)
);
},
{
closed = 1;
nodes = (
(34,8,o),
(30,15,o),
(30,27,cs),
(30,40,o),
(34,48,o),
(53,48,cs),
(81,48,ls),
(86,48,o),
(88,50,o),
(89,54,cs),
(206,717,ls),
(207,723,o),
(205,726,o),
(200,726,cs),
(182,726,ls),
(163,726,o),
(159,734,o),
(159,746,cs),
(159,758,o),
(162,765,o),
(182,765,cs),
(287,765,ls),
(307,765,o),
(311,758,o),
(311,746,cs),
(311,734,o),
(306,726,o),
(287,726,cs),
(259,726,ls),
(255,726,o),
(252,723,o),
(251,719,cs),
(136,56,ls),
(135,51,o),
(137,48,o),
(142,48,cs),
(159,48,ls),
(179,48,o),
(183,40,o),
(183,27,cs),
(183,15,o),
(179,8,o),
(159,8,cs),
(53,8,ls)
);
},
{
closed = 1;
nodes = (
(127,524,l),
(150,569,l),
(141,571,l),
(164,699,l),
(151,701,l),
(128,574,l),
(120,575,l)
);
},
{
closed = 1;
nodes = (
(235,737,o),
(240,742,o),
(240,748,cs),
(240,754,o),
(235,759,o),
(229,759,cs),
(223,759,o),
(218,754,o),
(218,748,cs),
(218,742,o),
(223,737,o),
(229,737,cs)
);
}
);
vertWidth = 0;
width = 332;
},
{
layerId = m002;
shapes = (
{
closed = 1;
nodes = (
(189.2,-7.6,ls),
(232,-8,o),
(248,14.4,o),
(253.2,44.8,cs),
(259,76,o),
(247,100,o),
(218,100,cs),
(215,100,l),
(312,670,l),
(314,670,ls),
(355,670,o),
(369,696,o),
(374.4,725.6,cs),
(380.4,760,o),
(356,780,o),
(324,779.6,cs),
(208,779.6,ls),
(167,780,o),
(147.2,760.4,o),
(142.8,728.4,cs),
(138,703,o),
(150,680,o),
(173,673,cs),
(177.6,671.6,l),
(79.6,100,l),
(76.4,99.6,ls),
(42,95,o),
(26,75.6,o),
(21.6,47.2,cs),
(15.6,14.4,o),
(39,-8,o),
(72,-7.6,cs)
);
},
{
closed = 1;
nodes = (
(46,8,o),
(32,20.8,o),
(36.4,44.8,cs),
(40,68.8,o),
(50.8,82,o),
(77.6,84.4,cs),
(86,85.2,ls),
(90,86,o),
(93,88,o),
(93.6,92.4,cs),
(193.2,675.2,ls),
(194,680,o),
(192,684,o),
(187.6,684.4,cs),
(183.6,685.2,ls),
(164,689,o),
(153.2,704.8,o),
(157.2,725.6,cs),
(161.2,752.4,o),
(174,764,o),
(208,764.4,cs),
(324,764.4,ls),
(349,764,o),
(364,752.8,o),
(359.6,728.4,cs),
(354.8,702,o),
(342,684,o),
(308,684.4,cs),
(306.4,684.4,ls),
(302,684,o),
(299,682,o),
(298.4,677.6,cs),
(198.4,93.6,ls),
(197,88,o),
(200,86,o),
(205.6,85.6,cs),
(210,85.6,ls),
(232,86,o),
(243.2,72,o),
(238.8,47.2,cs),
(234,21.2,o),
(224,8,o),
(189.2,7.6,cs),
(72,7.6,ls)
);
},
{
closed = 1;
nodes = (
(115,491,l),
(138,536,l),
(129,538,l),
(152,666,l),
(139,668,l),
(116,541,l),
(108,542,l)
);
},
{
closed = 1;
nodes = (
(257,737,o),
(262,742,o),
(262,748,cs),
(262,754,o),
(257,759,o),
(251,759,cs),
(245,759,o),
(240,754,o),
(240,748,cs),
(240,742,o),
(245,737,o),
(251,737,cs)
);
}
);
vertWidth = 0;
width = 387;
}
);
unicode = 73;
},
{
glyphname = J;
kernRight = H_right;
layers = (
{
background = {
shapes = (
{
closed = 1;
nodes = (
(360,738,l),
(292,358,ls),
(278,276,o),
(270,189,o),
(235,132,cs),
(214,95,o),
(181,70,o),
(132,64,cs),
(100,61,o),
(17,55,o),
(-12,55,cs),
(-26,55,o),
(-42,45,o),
(-42,29,cs),
(-42,11,o),
(-26,0,o),
(-12,0,cs),
(25,0,o),
(105,6,o),
(127,8,cs),
(210,19,o),
(254,55,o),
(284,102,cs),
(324,166,o),
(334,251,o),
(352,352,cs),
(421,738,l)
);
},
{
closed = 1;
nodes = (
(571,713,o),
(579,728,o),
(579,743,cs),
(579,757,o),
(571,772,o),
(548,772,cs),
(234,772,ls),
(210,772,o),
(203,757,o),
(203,743,cs),
(203,728,o),
(210,713,o),
(234,713,cs),
(548,713,ls)
);
}
);
};
layerId = m01;
shapes = (
{
closed = 1;
nodes = (
(20,-7,o),
(89,-6,o),
(111,-3,cs),
(248,13,o),
(297,97,o),
(334,304,cs),
(406,711,l),
(531,711,ls),
(560,711,o),
(570,728,o),
(570,745,cs),
(570,762,o),
(560,780,o),
(531,780,cs),
(217,780,ls),
(189,780,o),
(179,762,o),
(179,745,cs),
(179,728,o),
(189,711,o),
(217,711,cs),
(330,711,l),
(263,323,ls),
(235,162,o),
(207,76,o),
(105,65,cs),
(75,63,o),
(12,63,o),
(-17,63,cs),
(-34,63,o),
(-53,50,o),
(-53,29,cs),
(-53,6,o),
(-34,-7,o),
(-17,-7,cs)
);
},
{
closed = 1;
nodes = (
(-29,8,o),
(-38,15,o),
(-38,29,cs),
(-38,41,o),
(-29,48,o),
(-17,48,cs),
(12,48,o),
(75,48,o),
(107,51,cs),
(219,62,o),
(249,158,o),
(277,321,cs),
(346,717,ls),
(347,723,o),
(345,726,o),
(340,726,cs),
(217,726,ls),
(198,726,o),
(194,733,o),
(194,745,cs),
(194,757,o),
(198,765,o),
(217,765,cs),
(531,765,ls),
(551,765,o),
(555,757,o),
(555,745,cs),
(555,733,o),
(551,726,o),
(531,726,cs),
(401,726,ls),
(396,726,o),
(394,723,o),
(393,719,cs),
(320,306,ls),
(284,103,o),
(238,27,o),
(109,11,cs),
(87,8,o),
(20,8,o),
(-17,8,cs)
);
},
{
closed = 1;
nodes = (
(268,524,l),
(291,569,l),
(282,571,l),
(305,699,l),
(292,701,l),
(269,574,l),
(261,575,l)
);
},
{
closed = 1;
nodes = (
(379,737,o),
(384,742,o),
(384,748,cs),
(384,754,o),
(379,759,o),
(373,759,cs),
(367,759,o),
(362,754,o),
(362,748,cs),
(362,742,o),
(367,737,o),
(373,737,cs)
);
}
);
vertWidth = 0;
width = 509;
},
{
layerId = m002;
shapes = (
{
closed = 1;
nodes = (
(45.2,-7.6,o),
(135.6,-5.6,o),
(158,-2.4,cs),
(316.4,16,o),
(372,144,o),
(407.2,347.6,cs),
(460.4,651.6,l),
(577.2,651.6,ls),
(619,652,o),
(644.4,680,o),
(644.4,715.2,cs),
(644.4,752,o),
(618,780,o),
(579.2,779.6,cs),
(236,779.6,ls),
(196,780,o),
(169.6,750.8,o),
(169.6,715.2,cs),
(169.6,678,o),
(196,652,o),
(235.2,651.6,cs),
(324,651.6,l),
(275.6,365.2,ls),
(245,186,o),
(212.4,127.2,o),
(153.2,120.4,cs),
(125.2,116.4,o),
(34,114.4,o),
(10,114.4,cs),
(-22.4,114.4,o),
(-56.4,88.4,o),
(-56.4,53.2,cs),
(-56.4,16.4,o),
(-22,-7.6,o),
(10,-7.6,cs)
);
},
{
closed = 1;
nodes = (
(-16.8,7.6,o),
(-41.6,24.8,o),
(-41.6,53.2,cs),
(-41.6,80.4,o),
(-16.4,99.6,o),
(10,99.6,cs),
(34,99.6,o),
(126.8,101.6,o),
(154.8,105.6,cs),
(222.8,113.2,o),
(259,180,o),
(290.4,362.8,cs),
(340.8,658.4,ls),
(342,664,o),
(339,666,o),
(333.6,666.4,cs),
(235.2,666.4,ls),
(203,666,o),
(184.4,685.2,o),
(184.4,715.2,cs),
(184.4,744,o),
(203,764,o),
(236,764.4,cs),
(579.2,764.4,ls),
(611,764,o),
(629.6,744.8,o),
(629.6,715.2,cs),
(629.6,686.8,o),
(612,666,o),
(577.2,666.4,cs),
(454.4,666.4,ls),
(450,666,o),
(447,664,o),
(446.4,659.6,cs),
(392.8,350.4,ls),
(358,148,o),
(306,30,o),
(156,12.4,cs),
(134.4,9.6,o),
(44.8,7.6,o),
(10,7.6,cs)
);
},
{
closed = 1;
nodes = (
(261,459,l),
(284,504,l),
(275,506,l),
(298,634,l),
(285,636,l),
(262,509,l),
(254,510,l)
);
},
{
closed = 1;
nodes = (
(403,737,o),
(408,742,o),
(408,748,cs),
(408,754,o),
(403,759,o),
(397,759,cs),
(391,759,o),
(386,754,o),
(386,748,cs),
(386,742,o),
(391,737,o),
(397,737,cs)
);
}
);
vertWidth = 0;
width = 582;
},
{
associatedMasterId = m01;
layerId = "06052F2C-BE0F-40BC-8081-A274CED33EF8";
name = background;
shapes = (
{
closed = 1;
nodes = (
(444,738,l),
(377,358,ls),
(362,276,o),
(352,191,o),
(317,134,cs),
(296,97,o),
(265,70,o),
(216,64,cs),
(184,61,o),
(74,55,o),
(45,55,cs),
(31,55,o),
(15,45,o),
(15,29,cs),
(15,11,o),
(31,0,o),
(45,0,cs),
(82,0,o),
(189,6,o),
(211,8,cs),
(295,19,o),
(339,55,o),
(368,102,cs),
(409,166,o),
(418,251,o),
(436,352,cs),
(505,738,l)
);
},
{
closed = 1;
nodes = (
(680,713,o),
(687,728,o),
(687,743,cs),
(687,757,o),
(680,772,o),
(656,772,cs),
(295,772,ls),
(271,772,o),
(264,757,o),
(264,743,cs),
(264,728,o),
(271,713,o),
(295,713,cs),
(656,713,ls)
);
}
);
vertWidth = 0;
width = 594;
},
{
associatedMasterId = m002;
layerId = "F37B6A25-0192-483E-B22B-1CA87C39BAD9";
name = background;
shapes = (
{
closed = 1;
nodes = (
(-88,21,o),
(-58,0,o),
(-30,0,cs),
(6,0,o),
(96,2,o),
(118,5,cs),
(208,17,o),
(257,57,o),
(287,105,cs),
(328,172,o),
(345,255,o),
(361,349,cs),
(424,709,l),
(303,709,l),
(244,364,ls),
(230,286,o),
(217,211,o),
(188,163,cs),
(170,132,o),
(152,118,o),
(115,113,cs),
(87,109,o),
(-5,107,o),
(-30,107,cs),
(-58,107,o),
(-88,84,o),
(-88,53,cs)
);
},
{
closed = 1;
nodes = (
(138,682,o),
(160,659,o),
(196,659,cs),
(538,659,ls),
(576,659,o),
(598,684,o),
(598,715,cs),
(598,748,o),
(575,772,o),
(539,772,cs),
(197,772,ls),
(160,772,o),
(138,747,o),
(138,715,cs)
);
}
);
vertWidth = 0;
width = 594;
}
);
unicode = 74;
},
{
glyphname = K;
kernLeft = H_left;
layers = (
{
layerId = m01;
shapes = (
{
closed = 1;
nodes = (
(82,-8,o),
(88,19,o),
(91,36,cs),
(154,372,l),
(412,19,ls),
(421,6,o),
(434,-8,o),
(453,-8,cs),
(467,-8,o),
(482,2,o),
(487,18,cs),
(490,29,o),
(487,41,o),
(478,54,cs),
(227,415,l),
(556,706,ls),
(570,719,o),
(583,732,o),
(583,746,cs),
(583,761,o),
(572,780,o),
(550,780,cs),
(536,780,o),
(520,771,o),
(508,760,cs),
(196,475,l),
(165,450,l),
(215,734,ls),
(219,758,o),
(213,780,o),
(184,780,cs),
(155,780,o),
(145,763,o),
(141,742,cs),
(17,40,ls),
(13,18,o),
(24,-8,o),
(51,-8,cs)
);
},
{
closed = 1;
nodes = (
(35,8,o),
(28,21,o),
(31,36,cs),
(155,738,ls),
(158,756,o),
(164,764,o),
(184,764,cs),
(201,764,o),
(204,756,o),
(201,736,cs),
(148,430,ls),
(147,423,o),
(159,421,o),
(167,428,cs),
(204,462,l),
(518,748,ls),
(529,758,o),
(540,764,o),
(550,764,cs),
(563,764,o),
(567,756,o),
(567,746,cs),
(567,738,o),
(559,729,o),
(546,718,cs),
(212,422,ls),
(209,419,o),
(208,415,o),
(211,411,cs),
(466,46,ls),
(473,35,o),
(474,29,o),
(473,22,cs),
(470,12,o),
(462,8,o),
(453,8,cs),
(440,8,o),
(432,16,o),
(424,27,cs),
(149,408,ls),
(147,411,o),
(143,410,o),
(142,406,cs),
(77,38,ls),
(74,23,o),
(70,8,o),
(51,8,cs)
);
},
{
closed = 1;
nodes = (
(80,566,l),
(101,612,l),
(92,614,l),
(112,741,l),
(103,742,l),
(82,616,l),
(73,617,l)
);
},
{
closed = 1;
nodes = (
(186,729,o),
(191,734,o),
(191,740,cs),
(191,746,o),
(186,751,o),
(180,751,cs),
(174,751,o),
(169,746,o),
(169,740,cs),
(169,734,o),
(174,729,o),
(180,729,cs)
);
}
);
vertWidth = 0;
width = 550;
},
{
layerId = m002;
shapes = (
{
closed = 1;
nodes = (
(130,-7.6,o),
(152,19.2,o),
(158.4,51.6,cs),
(208.4,335.6,l),
(422,25.6,ls),
(436,4.8,o),
(460.8,-7.6,o),
(486,-7.6,cs),
(512,-7.6,o),
(543.6,6,o),
(549.2,35.6,cs),
(552.4,51.6,o),
(551.6,73.2,o),
(538,92.4,cs),
(317.2,409.6,l),
(610,662.4,ls),
(626.8,677.2,o),
(639.2,697.2,o),
(641.6,717.2,cs),
(646,747.6,o),
(625.2,779.6,o),
(586,779.6,cs),
(566,779.6,o),
(539.6,772.8,o),
(519.2,755.6,cs),
(270.8,535.6,l),
(238.4,503.2,l),
(274.4,707.6,ls),
(284.4,760.8,o),
(246.4,779.6,o),
(215.2,779.6,cs),
(181.6,779.6,o),
(149.2,762.4,o),
(142.8,724.4,cs),
(24.8,65.2,ls),
(18,25.6,o),
(46.4,-7.6,o),
(89.2,-7.6,cs)
);
},
{
closed = 1;
nodes = (
(54.4,7.6,o),
(34,31.2,o),
(39.2,62.8,cs),
(157.2,721.6,ls),
(162.8,752,o),
(186,764.4,o),
(215.2,764.4,cs),
(242.4,764.4,o),
(267.6,752,o),
(259.6,710.4,cs),
(220.8,488.8,ls),
(219,480,o),
(230,474,o),
(237.2,480.4,cs),
(281.2,524.4,l),
(528.8,744.4,ls),
(546.4,759.2,o),
(568,764.4,o),
(586,764.4,cs),
(616,764.4,o),
(630,743.2,o),
(626.4,718.8,cs),
(624.8,702.4,o),
(615.2,686.8,o),
(600,673.6,cs),
(302.4,417.2,ls),
(298.8,414,o),
(298,410.4,o),
(300.8,406.4,cs),
(526,83.6,ls),
(536.8,68.4,o),
(537.6,52.4,o),
(534.8,38.4,cs),
(530.4,17.2,o),
(508.4,7.6,o),
(486,7.6,cs),
(464.8,7.6,o),
(446,16.8,o),
(434,34.4,cs),
(207.2,363.6,ls),
(203.2,369.2,o),
(198.4,368,o),
(197.2,361.6,cs),
(143.6,54.4,ls),
(138,26.4,o),
(122.4,7.6,o),
(89.2,7.6,cs)
);
},
{
closed = 1;
nodes = (
(75,549,l),
(98,594,l),
(89,596,l),
(112,724,l),
(99,726,l),
(76,599,l),
(68,600,l)
);
},
{
closed = 1;
nodes = (
(198,718,o),
(203,723,o),
(203,729,cs),
(203,735,o),
(198,740,o),
(192,740,cs),
(186,740,o),
(181,735,o),
(181,729,cs),
(181,723,o),
(186,718,o),
(192,718,cs)
);
}
);
vertWidth = 0;
width = 631;
},
{
associatedMasterId = m01;
layerId = "E010F034-4598-4FE9-A40B-8BF5FC7CFE65";
name = background;
shapes = (
{
closed = 1;
nodes = (
(579,712,ls),
(593,723,o),
(599,735,o),
(601,746,cs),
(602,760,o),
(593,772,o),
(577,772,cs),
(568,773,o),
(555,769,o),
(541,757,cs),
(140,428,l),
(140,413,l),
(209,407,l)
);
},
{
closed = 1;
nodes = (
(140,423,l),
(141,410,l),
(411,23,ls),
(419,11,o),
(430,0,o),
(446,0,cs),
(457,0,o),
(469,7,o),
(473,20,cs),
(475,29,o),
(473,38,o),
(465,50,cs),
(207,421,l)
);
},
{
closed = 1;
nodes = (
(204,757,o),
(200,772,o),
(177,772,cs),
(153,772,o),
(145,759,o),
(141,740,cs),
(17,38,ls),
(13,20,o),
(23,0,o),
(44,0,cs),
(69,0,o),
(75,21,o),
(77,37,cs),
(201,735,ls)
);
}
);
vertWidth = 0;
width = 594;
}
);
unicode = 75;
},
{
glyphname = L;
kernLeft = H_left;
layers = (
{
layerId = m01;
shapes = (
{
closed = 1;
nodes = (
(403,-7,ls),
(429,-7,o),
(441,11,o),
(441,29,cs),
(441,46,o),
(429,63,o),
(403,63,cs),
(95,63,l),
(214,734,ls),
(218,758,o),
(214,780,o),
(183,780,cs),
(154,780,o),
(144,762,o),
(140,741,cs),
(15,33,ls),
(11,11,o),
(23,-7,o),
(50,-7,cs)
);
},
{
closed = 1;
nodes = (
(32,8,o),
(26,16,o),
(29,31,cs),
(154,739,ls),
(157,756,o),
(163,765,o),
(183,765,cs),
(201,765,o),
(204,757,o),
(200,736,cs),
(78,56,ls),
(77,51,o),
(80,48,o),
(85,48,cs),
(403,48,ls),
(420,48,o),
(426,41,o),
(426,29,cs),
(426,16,o),
(420,8,o),
(403,8,cs),
(50,8,ls)
);
},
{
closed = 1;
nodes = (
(78,566,l),
(99,612,l),
(90,614,l),
(110,741,l),
(101,742,l),
(80,616,l),
(71,617,l)
);
},
{
closed = 1;
nodes = (
(184,729,o),
(189,734,o),
(189,740,cs),
(189,746,o),
(184,751,o),
(178,751,cs),
(172,751,o),
(167,746,o),
(167,740,cs),
(167,734,o),
(172,729,o),
(178,729,cs)
);
}
);
vertWidth = 0;
width = 485;
},
{
layerId = m002;
shapes = (
{
closed = 1;
nodes = (
(493.2,-7.6,ls),
(533,-8,o),
(559.6,22,o),
(559.6,55.2,cs),
(559.6,87.2,o),
(533,114,o),
(493.2,114.4,cs),
(170,114.4,l),
(274.4,707.6,ls),
(284,764,o),
(249.6,779.6,o),
(217.2,779.6,cs),
(180.4,779.6,o),
(148,763,o),
(141.6,724.4,cs),
(23.6,59.2,ls),
(17,22,o),
(42,-8,o),
(82,-7.6,cs)
);
},
{
closed = 1;
nodes = (
(50,8,o),
(33,27,o),
(38.4,56.8,cs),
(156.4,721.6,ls),
(162,752,o),
(184.8,764.4,o),
(217.2,764.4,cs),
(245.2,764.4,o),
(267,754,o),
(259.6,710.4,cs),
(153.6,107.6,ls),
(153,103,o),
(155,100,o),
(160.4,99.6,cs),
(493.2,99.6,ls),
(526,100,o),
(544.4,80,o),
(544.4,55.2,cs),
(544.4,28.8,o),
(526,8,o),
(493.2,7.6,cs),
(82,7.6,ls)
);
},
{
closed = 1;
nodes = (
(77,549,l),
(100,594,l),
(91,596,l),
(114,724,l),
(101,726,l),
(78,599,l),
(70,600,l)
);
},
{
closed = 1;
nodes = (
(200,718,o),
(205,723,o),
(205,729,cs),
(205,735,o),
(200,740,o),
(194,740,cs),
(188,740,o),
(183,735,o),
(183,729,cs),
(183,723,o),
(188,718,o),
(194,718,cs)
);
}
);
vertWidth = 0;
width = 607;
}
);
unicode = 76;
},
{
glyphname = M;
kernLeft = H_left;
kernRight = H_right;
layers = (
{
layerId = m01;
shapes = (
{
closed = 1;
nodes = (
(23,-7,o),
(41,3,o),
(53,27,cs),
(344,603,l),
(352,622,l),
(352,601,l),
(392,42,ls),
(394,15,o),
(399,-7,o),
(431,-7,cs),
(460,-7,o),
(472,16,o),
(481,34,cs),
(781,633,l),
(782,606,l),
(817,32,ls),
(818,15,o),
(825,-7,o),
(856,-7,cs),
(880,-7,o),
(893,10,o),
(891,36,cs),
(844,739,ls),
(843,759,o),
(839,780,o),
(807,779,cs),
(778,781,o),
(767,758,o),
(760,744,cs),
(476,180,l),
(454,130,l),
(452,183,l),
(413,745,ls),
(412,762,o),
(402,780,o),
(376,780,cs),
(350,780,o),
(343,762,o),
(335,746,cs),
(-17,48,ls),
(-24,33,o),
(-27,18,o),
(-20,8,cs),
(-15,-1,o),
(-3,-7,o),
(8,-7,cs)
);
},
{
closed = 1;
nodes = (
(1,8,o),
(-5,11,o),
(-8,16,cs),
(-11,21,o),
(-10,29,o),
(-3,42,cs),
(349,740,ls),
(357,756,o),
(360,765,o),
(376,765,cs),
(393,765,o),
(398,757,o),
(399,743,cs),
(438,183,l),
(440,104,ls),
(440,99,o),
(444,99,o),
(447,96,cs),
(448,95,ls),
(452,91,o),
(456,96,o),
(458,100,cs),
(490,174,l),
(774,738,ls),
(781,752,o),
(788,765,o),
(807,765,cs),
(827,765,o),
(829,757,o),
(830,739,cs),
(877,36,ls),
(878,15,o),
(871,8,o),
(856,8,cs),
(837,8,o),
(833,19,o),
(831,34,c),
(796,606,l),
(795,657,ls),
(795,661,o),
(792,665,o),
(788,665,cs),
(787,665,ls),
(782,665,o),
(779,664,o),
(777,660,cs),
(467,42,ls),
(457,23,o),
(450,8,o),
(431,8,cs),
(411,8,o),
(408,18,o),
(406,42,cs),
(366,601,l),
(367,654,ls),
(367,659,o),
(364,662,o),
(360,662,cs),
(359,662,ls),
(354,662,o),
(352,662,o),
(350,657,cs),
(330,609,l),
(39,33,ls),
(29,13,o),
(19,8,o),
(8,8,cs)
);
},
{
closed = 1;
nodes = (
(214,574,l),
(249,612,l),
(241,616,l),
(297,732,l),
(289,736,l),
(232,621,l),
(223,625,l)
);
},
{
closed = 1;
nodes = (
(381,729,o),
(386,734,o),
(386,740,cs),
(386,746,o),
(381,751,o),
(375,751,cs),
(369,751,o),
(364,746,o),
(364,740,cs),
(364,734,o),
(369,729,o),
(375,729,cs)
);
}
);
vertWidth = 0;
width = 993;
},
{
layerId = m002;
shapes = (
{
closed = 1;
nodes = (
(39.6,-7.6,o),
(77,4,o),
(92.8,35.6,cs),
(310.8,462.8,l),
(328,500,l),
(328.4,466.8,l),
(363.6,58.4,ls),
(367,17,o),
(390,-7.6,o),
(431.2,-7.6,cs),
(482.4,-7.6,o),
(498,19,o),
(510.8,45.6,cs),
(743.6,518.8,l),
(745.6,462.4,l),
(780.4,54.4,ls),
(783,19,o),
(806.8,-7.6,o),
(848,-7.6,cs),
(887.2,-7.6,o),
(913,20,o),
(909.6,62.8,cs),
(855.6,720.4,ls),
(853,756,o),
(844.8,779.6,o),
(798,779.6,cs),
(759.2,779.6,o),
(735,764,o),
(720.4,735.6,cs),
(504.4,325.2,l),
(474.8,255.6,l),
(470.4,329.6,l),
(438.4,720.4,ls),
(435,757,o),
(423.2,779.6,o),
(371.2,779.6,cs),
(332.8,779.6,o),
(321,762,o),
(307.2,736.4,cs),
(-31.6,90.4,ls),
(-49,58,o),
(-46.4,38.4,o),
(-37.6,21.6,cs),
(-28.4,4,o),
(-3.2,-7.6,o),
(17.2,-7.6,cs)
);
},
{
closed = 1;
nodes = (
(0.8,7.6,o),
(-17.6,15.6,o),
(-24.4,28.4,cs),
(-31.6,42,o),
(-33,55,o),
(-18.4,83.6,cs),
(320.8,729.6,ls),
(334,754,o),
(340.8,764.4,o),
(371.2,764.4,cs),
(413.6,764.4,o),
(421,752,o),
(423.6,719.6,cs),
(455.6,328.4,l),
(461.2,229.2,ls),
(461,225,o),
(463.6,222,o),
(468.4,221.2,cs),
(469.2,221.2,ls),
(474,220.4,o),
(477,222,o),
(478.8,226,cs),
(517.6,318.8,l),
(733.6,728.4,ls),
(747,753,o),
(764.4,764.4,o),
(798,764.4,cs),
(834,764.4,o),
(838,752,o),
(840.4,719.6,cs),
(894.4,61.2,ls),
(897,27,o),
(879.6,7.6,o),
(848,7.6,cs),
(814.4,7.6,o),
(798,26,o),
(795.6,55.6,cs),
(760.4,463.6,l),
(758,542.4,ls),
(758,547,o),
(756,551,o),
(751.2,550.8,cs),
(749.6,550.8,ls),
(745,551,o),
(742,550,o),
(740.4,546.4,cs),
(497.2,52.4,ls),
(484,26,o),
(473.6,7.6,o),
(431.2,7.6,cs),
(397.2,7.6,o),
(381,24,o),
(378.4,59.6,cs),
(343.6,467.2,l),
(342.4,526.4,ls),
(342,531,o),
(340,533,o),
(335.6,534.4,cs),
(334.4,534.8,ls),
(330,536,o),
(327,534,o),
(325.2,530,cs),
(297.2,469.2,l),
(79.2,42.4,ls),
(66,17,o),
(36.8,7.6,o),
(17.2,7.6,cs)
);
},
{
closed = 1;
nodes = (
(164,557,l),
(200,593,l),
(192,597,l),
(253,711,l),
(242,717,l),
(181,604,l),
(174,607,l)
);
},
{
closed = 1;
nodes = (
(364,708,o),
(369,713,o),
(369,719,cs),
(369,725,o),
(364,730,o),
(358,730,cs),
(352,730,o),
(347,725,o),
(347,719,cs),
(347,713,o),
(352,708,o),
(358,708,cs)
);
}
);
vertWidth = 0;
width = 982;
},
{
associatedMasterId = m01;
layerId = "821342D0-DD98-4007-9C88-2E342CE68D40";
name = background;
shapes = (
{
closed = 1;
nodes = (
(381,772,l),
(360,772,o),
(353,759,o),
(345,743,cs),
(-19,45,ls),
(-26,31,o),
(-26,19,o),
(-21,12,cs),
(-17,5,o),
(-8,0,o),
(1,0,cs),
(14,0,o),
(29,8,o),
(40,30,cs),
(392,704,l)
);
},
{
closed = 1;
nodes = (
(411,750,ls),
(410,759,o),
(402,772,o),
(380,772,c),
(356,694,l),
(410,29,ls),
(411,17,o),
(416,0,o),
(444,0,c),
(466,72,l)
);
},
{
closed = 1;
nodes = (
(466,0,o),
(475,20,o),
(480,29,cs),
(828,696,l),
(816,772,l),
(798,772,o),
(791,754,o),
(784,741,cs),
(436,72,l),
(442,0,l)
);
},
{
closed = 1;
nodes = (
(853,758,o),
(849,772,o),
(815,772,c),
(796,722,l),
(853,29,ls),
(854,17,o),
(860,0,o),
(885,0,c),
(904,0,o),
(914,13,o),
(912,31,cs),
(854,739,ls)
);
}
);
vertWidth = 0;
width = 594;
}
);
unicode = 77;
},
{
glyphname = N;
kernLeft = H_left;
kernRight = H_right;
layers = (
{
layerId = m01;
shapes = (
{
closed = 1;
nodes = (
(82,-7,o),
(88,17,o),
(90,32,cs),
(192,612,l),
(194,625,l),
(197,612,l),
(413,18,l),
(419,5,o),
(431,-7,o),
(451,-7,cs),
(472,-7,o),
(486,7,o),
(489,29,cs),
(613,734,ls),
(618,758,o),
(613,780,o),
(583,780,cs),
(554,780,o),
(544,762,o),
(541,741,cs),
(442,178,l),
(439,146,l),
(431,179,l),
(225,750,l),
(222,763,o),
(208,780,o),
(183,780,cs),
(152,780,o),
(143,762,o),
(140,741,cs),
(15,33,ls),
(11,11,o),
(23,-7,o),
(50,-7,cs)
);
},
{
closed = 1;
nodes = (
(32,8,o),
(27,16,o),
(29,31,cs),
(154,739,ls),
(157,757,o),
(161,765,o),
(183,765,cs),
(201,765,o),
(208,755,o),
(211,746,cs),
(417,175,l),
(433,104,ls),
(434,99,o),
(437,97,o),
(442,98,cs),
(443,98,ls),
(447,98,o),
(450,101,o),
(450,105,cs),
(456,176,l),
(555,739,ls),
(558,756,o),
(563,765,o),
(583,765,cs),
(600,765,o),
(602,757,o),
(599,736,cs),
(475,31,ls),
(472,15,o),
(465,8,o),
(451,8,cs),
(438,8,o),
(431,14,o),
(427,24,c),
(211,616,l),
(200,664,ls),
(199,669,o),
(196,671,o),
(191,670,cs),
(190,670,ls),
(186,670,o),
(183,667,o),
(183,663,cs),
(178,614,l),
(76,34,ls),
(74,20,o),
(70,8,o),
(50,8,cs)
);
},
{
closed = 1;
nodes = (
(80,566,l),
(101,612,l),
(92,614,l),
(112,741,l),
(103,742,l),
(82,616,l),
(73,617,l)
);
},
{
closed = 1;
nodes = (
(186,729,o),
(191,734,o),
(191,740,cs),
(191,746,o),
(186,751,o),
(180,751,cs),
(174,751,o),
(169,746,o),
(169,740,cs),
(169,734,o),
(174,729,o),
(180,729,cs)
);
}
);
vertWidth = 0;
width = 629;
},
{
layerId = m002;
shapes = (
{
closed = 1;
nodes = (
(124.8,-7.6,o),
(151.6,18.4,o),
(157.2,48.8,cs),
(228.4,454,l),
(232.4,482.4,l),
(244,451.2,l),
(415.2,30.4,ls),
(424,6.4,o),
(446.4,-7.6,o),
(480,-7.6,cs),
(518,-7.6,o),
(536,12.8,o),
(542.4,46.8,cs),
(658.4,707.6,ls),
(666,749.6,o),
(644,783.6,o),
(600,783.6,cs),
(564,783.6,o),
(532.4,762.4,o),
(525.6,724.4,cs),
(454.8,318.4,l),
(449.2,283.6,l),
(437.2,318.8,l),
(266,740,ls),
(254.8,768,o),
(229.2,779.6,o),
(203.2,779.6,cs),
(169.6,779.6,o),
(146.4,760.8,o),
(139.6,724.4,cs),
(23.6,59.2,ls),
(16.8,21.6,o),
(43.6,-7.6,o),
(82,-7.6,cs)
);
},
{
closed = 1;
nodes = (
(51.2,7.6,o),
(33.2,27.2,o),
(38.4,56.8,cs),
(154.4,721.6,ls),
(160,752,o),
(175.6,764.4,o),
(203.2,764.4,cs),
(225.2,764.4,o),
(243.2,756.4,o),
(252,734,cs),
(422.8,313.2,l),
(442.4,256.8,ls),
(444,252.4,o),
(446.8,250.8,o),
(451.6,251.2,cs),
(452.8,251.2,ls),
(457.6,251.6,o),
(460,254,o),
(460.4,258.4,cs),
(469.2,315.6,l),
(540.4,721.6,ls),
(546,752.4,o),
(569.2,768.4,o),
(600,768.4,cs),
(634.8,768.4,o),
(650,745.6,o),
(643.6,710.4,cs),
(527.6,49.2,ls),
(522,20.4,o),
(510.8,7.6,o),
(480,7.6,cs),
(451.2,7.6,o),
(436,17.2,o),
(428.8,35.6,cs),
(258,456.8,l),
(238.4,509.2,ls),
(236.8,513.6,o),
(234,515.2,o),
(229.2,514.8,cs),
(228.4,514.8,ls),
(223.6,514.4,o),
(221.2,512,o),
(220.8,507.2,cs),
(213.6,456,l),
(142.8,51.2,ls),
(138,26.8,o),
(118,7.6,o),
(82,7.6,cs)
);
},
{
closed = 1;
nodes = (
(75,549,l),
(98,594,l),
(89,596,l),
(112,724,l),
(99,726,l),
(76,599,l),
(68,600,l)
);
},
{
closed = 1;
nodes = (
(198,718,o),
(203,723,o),
(203,729,cs),
(203,735,o),
(198,740,o),
(192,740,cs),
(186,740,o),
(181,735,o),
(181,729,cs),
(181,723,o),
(186,718,o),
(192,718,cs)
);
}
);
vertWidth = 0;
width = 682;
}
);
unicode = 78;
},
{
glyphname = O;
kernLeft = O_left;
kernRight = O_right;
layers = (
{
background = {
shapes = (
{
closed = 1;
nodes = (
(372,-13,o),
(532,293,o),
(552,524,cs),
(564,661,o),
(522,781,o),
(353,779,cs),
(207,777,o),
(134,663,o),
(93,485,cs),
(82,436,o),
(74,379,o),
(71,327,cs),
(64,163,o),
(87,-13,o),
(197,-13,cs)
);
},
{
closed = 1;
nodes = (
(131,42,o),
(121,204,o),
(131,314,cs),
(135,365,o),
(143,419,o),
(151,461,cs),
(189,627,o),
(234,720,o),
(349,722,cs),
(484,725,o),
(503,636,o),
(493,517,cs),
(478,321,o),
(321,42,o),
(194,42,cs)
);
}
);
};
layerId = m01;
shapes = (
{
closed = 1;
nodes = (
(393,-20,o),
(558,288,o),
(578,521,cs),
(591,660,o),
(536,790,o),
(361,786,cs),
(214,784,o),
(125,673,o),
(81,489,cs),
(19,236,o),
(60,-20,o),
(201,-20,cs)
);
},
{
closed = 1;
nodes = (
(74,-5,o),
(35,236,o),
(95,485,cs),
(139,666,o),
(222,770,o),
(361,772,cs),
(525,774,o),
(575,657,o),
(564,523,cs),
(544,293,o),
(384,-5,o),
(201,-5,cs)
);
},
{
closed = 1;
nodes = (
(342,35,o),
(503,315,o),
(519,513,cs),
(529,635,o),
(498,733,o),
(357,729,cs),
(237,727,o),
(175,634,o),
(138,467,cs),
(92,264,o),
(113,35,o),
(205,35,cs)
);
},
{
closed = 1;
nodes = (
(129,50,o),
(108,264,o),
(152,463,cs),
(189,627,o),
(246,713,o),
(357,715,cs),
(487,717,o),
(513,632,o),
(505,515,cs),
(489,320,o),
(333,50,o),
(205,50,cs)
);
},
{
closed = 1;
nodes = (
(368,830,l),
(411,804,l),
(412,813,l),
(434,810,o),
(454,803,o),
(470,795,cs),
(493,787,o),
(512,777,o),
(533,764,c),
(538,773,l),
(518,786,o),
(495,798,o),
(474,805,cs),
(456,813,o),
(438,818,o),
(418,822,c),
(420,832,l)
);
},
{
closed = 1;
nodes = (
(485,707,o),
(490,712,o),
(490,718,cs),
(490,724,o),
(485,729,o),
(479,729,cs),
(473,729,o),
(468,724,o),
(468,718,cs),
(468,712,o),
(473,707,o),
(479,707,cs)
);
}
);
vertWidth = 0;
width = 604;
},
{
layerId = m002;
shapes = (
{
closed = 1;
nodes = (
(404,-19.6,o),
(597.2,287.6,o),
(620.4,502.4,cs),
(634.8,646.8,o),
(555.2,786.4,o),
(378,786.4,cs),
(209.2,786.4,o),
(133.2,659.6,o),
(86.8,482,cs),
(25.2,243.2,o),
(56,-19.6,o),
(219.2,-19.6,cs)
);
},
{
closed = 1;
nodes = (
(70.8,-4.4,o),
(40.8,243.6,o),
(101.2,478,cs),
(146.8,653.2,o),
(218.4,771.6,o),
(378,771.6,cs),
(545.6,771.6,o),
(619.2,642.4,o),
(605.6,503.6,cs),
(582.8,293.6,o),
(394.8,-4.4,o),
(219.2,-4.4,cs)
);
},
{
closed = 1;
nodes = (
(309.6,87.6,o),
(482.4,324,o),
(500.4,499.2,cs),
(506.4,568,o),
(502.4,679.6,o),
(375.2,679.6,cs),
(266.4,679.6,o),
(232,594.8,o),
(200.8,443.6,cs),
(173.6,310.8,o),
(162,87.6,o),
(222,87.6,cs)
);
},
{
closed = 1;
nodes = (
(180,102.4,o),
(188.4,309.2,o),
(215.2,440.4,cs),
(246.4,589.6,o),
(277.2,664.4,o),
(375.2,664.4,cs),
(487.6,664.4,o),
(491.6,568,o),
(485.6,500.8,cs),
(467.6,330,o),
(300.4,102.4,o),
(222,102.4,cs)
);
},
{
closed = 1;
nodes = (
(394,833,l),
(436,804,l),
(439,812,l),
(459,806,o),
(478,799,o),
(498,792,cs),
(517,784,o),
(537,774,o),
(552,757,c),
(559,768,l),
(544,784,o),
(523,797,o),
(501,806,cs),
(485,812,o),
(463,820,o),
(443,825,c),
(445,835,l)
);
},
{
closed = 1;
nodes = (
(507,686,o),
(512,691,o),
(512,697,cs),
(512,703,o),
(507,708,o),
(501,708,cs),
(495,708,o),
(490,703,o),
(490,697,cs),
(490,691,o),
(495,686,o),
(501,686,cs)
);
}
);
vertWidth = 0;
width = 657;
},
{
associatedMasterId = m01;
layerId = "7307B018-DEB8-4492-83DD-A560B2CDD96E";
name = background;
shapes = (
{
closed = 1;
nodes = (
(352,-5,o),
(530,304,o),
(558,520,cs),
(576,655,o),
(539,772,o),
(371,772,cs),
(225,772,o),
(147,662,o),
(97,486,cs),
(84,438,o),
(74,383,o),
(69,330,cs),
(55,170,o),
(69,-5,o),
(179,-5,cs)
);
},
{
closed = 1;
nodes = (
(115,50,o),
(119,211,o),
(127,318,cs),
(132,368,o),
(144,422,o),
(154,461,cs),
(200,625,o),
(249,718,o),
(365,718,cs),
(523,718,o),
(510,588,o),
(499,513,cs),
(473,321,o),
(284,50,o),
(178,50,cs)
);
}
);
vertWidth = 0;
width = 590;
},
{
associatedMasterId = m002;
layerId = "D1F148A5-460D-423B-8A8D-A02342BEA43C";
name = background;
shapes = (
{
closed = 1;
nodes = (
(393,-12,o),
(592,291,o),
(619,503,cs),
(637,644,o),
(563,779,o),
(391,779,cs),
(227,779,o),
(147,652,o),
(100,480,cs),
(87,432,o),
(77,379,o),
(75,329,cs),
(62,171,o),
(70,-12,o),
(213,-12,cs)
);
},
{
closed = 1;
nodes = (
(175,95,o),
(185,215,o),
(192,312,cs),
(195,359,o),
(204,406,o),
(213,442,cs),
(253,593,o),
(283,672,o),
(386,672,cs),
(506,672,o),
(507,568,o),
(499,500,cs),
(478,327,o),
(301,95,o),
(219,95,cs)
);
}
);
vertWidth = 0;
width = 594;
}
);
unicode = 79;
},
{
glyphname = P;
kernLeft = H_left;
layers = (
{
layerId = m01;
shapes = (
{
closed = 1;
nodes = (
(83,-12,o),
(86,17,o),
(89,28,c),
(147,354,l),
(392,357,o),
(563,403,o),
(583,564,cs),
(604,726,o),
(438,781,o),
(183,779,cs),
(152,780,o),
(144,762,o),
(140,741,cs),
(15,33,ls),
(11,12,o),
(22,-12,o),
(50,-12,cs)
);
},
{
closed = 1;
nodes = (
(33,3,o),
(27,15,o),
(29,31,cs),
(154,739,ls),
(158,757,o),
(162,765,o),
(183,765,cs),
(435,765,o),
(588,715,o),
(569,566,cs),
(549,414,o),
(387,372,o),
(142,368,cs),
(137,368,o),
(134,366,o),
(133,362,cs),
(75,32,l),
(72,19,o),
(70,3,o),
(50,3,cs)
);
},
{
closed = 1;
nodes = (
(362,412,o),
(508,454,o),
(522,570,cs),
(537,679,o),
(438,723,o),
(205,726,cs),
(200,726,o),
(197,723,o),
(197,719,cs),
(142,417,ls),
(142,411,o),
(144,408,o),
(150,409,cs)
);
},
{
closed = 1;
nodes = (
(210,710,l),
(435,708,o),
(521,669,o),
(508,572,cs),
(494,468,o),
(363,428,o),
(159,424,c)
);
},
{
closed = 1;
nodes = (
(80,566,l),
(101,612,l),
(92,614,l),
(112,741,l),
(103,742,l),
(82,616,l),
(73,617,l)
);
},
{
closed = 1;
nodes = (
(186,729,o),
(191,734,o),
(191,740,cs),
(191,746,o),
(186,751,o),
(180,751,cs),
(174,751,o),
(169,746,o),
(169,740,cs),
(169,734,o),
(174,729,o),
(180,729,cs)
);
}
);
vertWidth = 0;
width = 569;
},
{
layerId = m002;
shapes = (
{
closed = 1;
nodes = (
(131.2,-14.4,o),
(148,16.8,o),
(153.2,44.8,cs),
(201.2,318.4,l),
(412,322,o),
(614.8,352,o),
(643.6,554,cs),
(666.4,720.8,o),
(508.4,786.4,o),
(210,782.4,cs),
(171.6,782.4,o),
(146.4,762,o),
(139.6,724.4,cs),
(22.8,58.4,ls),
(16,22.4,o),
(41.2,-14.4,o),
(86,-14.4,cs)
);
},
{
closed = 1;
nodes = (
(50,0.4,o),
(32,26.8,o),
(37.2,55.6,cs),
(154.4,721.6,ls),
(160,752.8,o),
(177.6,767.6,o),
(210,767.6,cs),
(504.4,771.6,o),
(649.6,710.4,o),
(628.4,556,cs),
(601.6,363.6,o),
(406.8,336.4,o),
(195.6,333.6,cs),
(191.2,333.6,o),
(188.4,331.2,o),
(187.6,326.8,cs),
(138.8,47.2,ls),
(134,22.4,o),
(121.6,0.4,o),
(86,0.4,cs)
);
},
{
closed = 1;
nodes = (
(373.2,429.2,o),
(514.8,457.2,o),
(527.6,560,cs),
(537.2,634.8,o),
(477.2,672.4,o),
(256.8,675.6,cs),
(252,675.6,o),
(249.2,673.2,o),
(248.4,668.8,cs),
(206.8,433.6,ls),
(205.6,428.4,o),
(208.4,425.2,o),
(213.6,425.2,cs)
);
},
{
closed = 1;
nodes = (
(262.4,660.4,l),
(470.8,656.8,o),
(520.8,625.6,o),
(512.4,562,cs),
(501.6,472,o),
(376.4,445.6,o),
(223.2,440.8,c)
);
},
{
closed = 1;
nodes = (
(75,549,l),
(98,594,l),
(89,596,l),
(112,724,l),
(99,726,l),
(76,599,l),
(68,600,l)
);
},
{
closed = 1;
nodes = (
(198,718,o),
(203,723,o),
(203,729,cs),
(203,735,o),
(198,740,o),
(192,740,cs),
(186,740,o),
(181,735,o),
(181,729,cs),
(181,723,o),
(186,718,o),
(192,718,cs)
);
}
);
vertWidth = 0;
width = 651;
},
{
associatedMasterId = m01;
layerId = "20E38FB0-B6D6-4C6B-89B9-150B1056CEBB";
name = background;
shapes = (
{
closed = 1;
nodes = (
(352,361,o),
(543,381,o),
(569,565,cs),
(589,709,o),
(435,772,o),
(181,772,c),
(184,718,l),
(426,718,o),
(522,662,o),
(510,571,cs),
(492,436,o),
(317,416,o),
(134,416,c),
(126,361,l)
);
},
{
closed = 1;
nodes = (
(203,757,o),
(201,772,o),
(176,772,cs),
(150,772,o),
(144,759,o),
(140,740,cs),
(15,32,ls),
(12,14,o),
(21,-5,o),
(43,-5,cs),
(69,-5,o),
(72,18,o),
(75,30,cs),
(200,735,ls)
);
}
);
vertWidth = 0;
width = 594;
}
);
unicode = 80;
},
{
glyphname = Q;
kernLeft = O_left;
kernRight = O_right;
layers = (
{
layerId = m01;
shapes = (
{
closed = 1;
nodes = (
(428,-48,o),
(428,-19,o),
(417,-3,cs),
(372,63,l),
(485,166,o),
(568,357,o),
(582,517,cs),
(595,657,o),
(537,790,o),
(369,786,cs),
(215,784,o),
(122,676,o),
(78,493,cs),
(17,240,o),
(61,-14,o),
(202,-14,cs),
(240,-14,o),
(278,-2,o),
(313,18,c),
(351,-38,ls),
(364,-58,o),
(387,-71,o),
(408,-60,cs)
);
},
{
closed = 1;
nodes = (
(388,-53,o),
(374,-46,o),
(363,-30,cs),
(321,32,ls),
(319,36,o),
(315,37,o),
(311,34,cs),
(276,13,o),
(240,0,o),
(202,1,cs),
(75,1,o),
(33,240,o),
(92,489,cs),
(136,668,o),
(222,770,o),
(369,772,cs),
(526,774,o),
(579,654,o),
(568,519,cs),
(553,359,o),
(470,170,o),
(357,70,cs),
(354,67,o),
(353,63,o),
(356,59,cs),
(405,-11,ls),
(413,-23,o),
(413,-40,o),
(400,-46,cs)
);
},
{
closed = 1;
nodes = (
(232,40,o),
(261,51,o),
(287,68,cs),
(291,71,o),
(292,74,o),
(289,78,cs),
(240,150,ls),
(228,168,o),
(226,176,o),
(238,184,cs),
(251,195,o),
(266,190,o),
(276,175,cs),
(323,107,ls),
(326,103,o),
(330,102,o),
(334,106,cs),
(428,198,o),
(512,372,o),
(522,510,cs),
(533,632,o),
(499,733,o),
(366,729,cs),
(239,727,o),
(172,637,o),
(135,470,cs),
(89,267,o),
(114,41,o),
(206,41,cs)
);
},
{
closed = 1;
nodes = (
(130,56,o),
(105,267,o),
(149,466,cs),
(186,630,o),
(247,713,o),
(366,715,cs),
(488,717,o),
(517,629,o),
(508,512,cs),
(498,379,o),
(420,215,o),
(330,124,c),
(288,183,ls),
(275,203,o),
(248,213,o),
(228,196,cs),
(209,182,o),
(214,163,o),
(228,142,cs),
(272,76,l),
(249,63,o),
(228,56,o),
(206,56,cs)
);
},
{
closed = 1;
nodes = (
(368,830,l),
(411,804,l),
(412,813,l),
(434,810,o),
(454,803,o),
(470,795,cs),
(493,787,o),
(512,777,o),
(533,764,c),
(538,773,l),
(518,786,o),
(495,798,o),
(474,805,cs),
(456,813,o),
(438,818,o),
(418,822,c),
(420,832,l)
);
},
{
closed = 1;
nodes = (
(485,707,o),
(490,712,o),
(490,718,cs),
(490,724,o),
(485,729,o),
(479,729,cs),
(473,729,o),
(468,724,o),
(468,718,cs),
(468,712,o),
(473,707,o),
(479,707,cs)
);
}
);
vertWidth = 0;
width = 605;
},
{
layerId = m002;
shapes = (
{
closed = 1;
nodes = (
(511.2,-37.2,o),
(513.2,2,o),
(492.4,34,cs),
(447.6,98.4,l),
(548.4,207.2,o),
(625.6,371.6,o),
(639.6,502.4,cs),
(653.6,646.8,o),
(574.4,786.4,o),
(387.2,786.4,cs),
(209.2,786.4,o),
(133.2,659.2,o),
(86.8,482,cs),
(25.2,243.6,o),
(56.4,-19.6,o),
(232,-19.6,cs),
(271.2,-19.6,o),
(312,-6.4,o),
(350,16.8,c),
(380.8,-29.2,ls),
(404.8,-63.2,o),
(447.6,-73.6,o),
(475.6,-56.4,cs)
);
},
{
closed = 1;
nodes = (
(445.6,-56.8,o),
(413.6,-49.2,o),
(393.2,-20.8,cs),
(358,31.2,ls),
(355.6,35.2,o),
(352,35.6,o),
(347.6,33.2,cs),
(309.6,8.8,o),
(270.8,-4.4,o),
(232,-4.4,cs),
(70.8,-4.4,o),
(40.8,243.6,o),
(101.2,478,cs),
(146.8,653.2,o),
(218.4,771.6,o),
(387.2,771.6,cs),
(564.8,771.6,o),
(638.4,642.4,o),
(624.4,503.6,cs),
(610.8,374.4,o),
(534,212,o),
(433.2,104.4,cs),
(430,101.2,o),
(429.6,97.6,o),
(432.4,94,cs),
(479.6,26,ls),
(497.2,-1.2,o),
(495.6,-28.4,o),
(468.4,-43.6,cs)
);
},
{
closed = 1;
nodes = (
(252.8,87.6,o),
(273.6,96.4,o),
(294.4,110.8,cs),
(298.4,113.6,o),
(298.8,117.2,o),
(296.4,121.2,cs),
(277.2,149.2,ls),
(257.2,178.4,o),
(263.6,202.8,o),
(283.6,219.2,cs),
(303.2,234,o),
(338,229.2,o),
(360.8,199.6,cs),
(362.4,196.8,ls),
(367,190,o),
(377,189,o),
(381.6,195.6,cs),
(448.4,279.2,o),
(509.2,399.6,o),
(519.6,499.2,cs),
(525.6,568,o),
(521.6,679.6,o),
(387.2,679.6,cs),
(266.4,679.6,o),
(232,594.8,o),
(200.8,443.6,cs),
(173.6,311.2,o),
(161.6,87.6,o),
(235.2,87.6,cs)
);
},
{
closed = 1;
nodes = (
(180,102.4,o),
(188.4,309.2,o),
(215.2,440.4,cs),
(246.4,589.6,o),
(277.2,664.4,o),
(387.2,664.4,cs),
(506.8,664.4,o),
(510.4,568,o),
(504.4,500.8,cs),
(494.8,405.2,o),
(437.6,290.8,o),
(372.8,208.8,c),
(369,213,ls),
(341,243,o),
(298,250,o),
(274.4,230.8,cs),
(249.6,210.8,o),
(240.4,176.4,o),
(264.8,140.8,cs),
(279.6,119.2,l),
(262.8,108,o),
(248,102.4,o),
(235.2,102.4,cs)
);
},
{
closed = 1;
nodes = (
(394,833,l),
(436,804,l),
(439,812,l),
(459,806,o),
(478,799,o),
(498,792,cs),
(517,784,o),
(537,774,o),
(552,757,c),
(559,768,l),
(544,784,o),
(523,797,o),
(501,806,cs),
(485,812,o),
(463,820,o),
(443,825,c),
(445,835,l)
);
},
{
closed = 1;
nodes = (
(507,686,o),
(512,691,o),
(512,697,cs),
(512,703,o),
(507,708,o),
(501,708,cs),
(495,708,o),
(490,703,o),
(490,697,cs),
(490,691,o),
(495,686,o),
(501,686,cs)
);
}
);
vertWidth = 0;
width = 675;
}
);
unicode = 81;
},
{
glyphname = R;
kernLeft = H_left;
layers = (
{
layerId = m01;
shapes = (
{
closed = 1;
nodes = (
(82,-7,o),
(88,17,o),
(91,36,cs),
(146,346,l),
(174,307,l),
(416,16,ls),
(429,2,o),
(439,-7,o),
(451,-7,cs),
(466,-7,o),
(481,2,o),
(486,15,cs),
(490,26,o),
(489,44,o),
(480,56,cs),
(227,360,l),
(412,371,o),
(546,419,o),
(566,564,cs),
(590,729,o),
(422,780,o),
(183,780,cs),
(152,780,o),
(143,762,o),
(140,741,cs),
(17,40,ls),
(12,17,o),
(22,-7,o),
(50,-7,cs)
);
},
{
closed = 1;
nodes = (
(33,8,o),
(28,20,o),
(31,38,cs),
(154,739,ls),
(157,757,o),
(161,765,o),
(183,765,cs),
(419,765,o),
(574,718,o),
(552,566,cs),
(532,426,o),
(400,383,o),
(208,374,cs),
(202,374,o),
(200,370,o),
(204,365,cs),
(468,46,ls),
(474,39,o),
(474,28,o),
(472,21,cs),
(469,13,o),
(461,8,o),
(451,8,cs),
(445,8,o),
(439,12,o),
(428,26,cs),
(186,317,l),
(145,373,ls),
(141,379,o),
(137,378,o),
(136,371,cs),
(77,38,ls),
(74,21,o),
(70,8,o),
(50,8,cs)
);
},
{
closed = 1;
nodes = (
(357,411,o),
(490,460,o),
(507,570,cs),
(522,678,o),
(406,722,o),
(205,725,cs),
(200,726,o),
(197,723,o),
(197,719,cs),
(144,417,ls),
(143,411,o),
(145,408,o),
(151,408,cs)
);
},
{
closed = 1;
nodes = (
(210,710,l),
(404,707,o),
(506,666,o),
(493,572,cs),
(477,473,o),
(357,428,o),
(160,424,c)
);
},
{
closed = 1;
nodes = (
(80,566,l),
(101,612,l),
(92,614,l),
(112,741,l),
(103,742,l),
(82,616,l),
(73,617,l)
);
},
{
closed = 1;
nodes = (
(186,729,o),
(191,734,o),
(191,740,cs),
(191,746,o),
(186,751,o),
(180,751,cs),
(174,751,o),
(169,746,o),
(169,740,cs),
(169,734,o),
(174,729,o),
(180,729,cs)
);
}
);
vertWidth = 0;
width = 569;
},
{
layerId = m002;
shapes = (
{
closed = 1;
nodes = (
(118.8,-7.6,o),
(152.8,22.4,o),
(159.2,61.6,cs),
(200.8,299.6,l),
(214,277.6,l),
(424.4,22,ls),
(446.4,-3.2,o),
(475.2,-7.6,o),
(492,-7.6,cs),
(516.4,-7.6,o),
(545.2,7.2,o),
(552,32,cs),
(557.6,49.2,o),
(558.8,70.4,o),
(544.8,86.8,cs),
(345.6,326.4,l),
(485.6,346.4,o),
(598.4,402.4,o),
(625.2,553.6,cs),
(654.8,720.8,o),
(486,779.6,o),
(215.2,779.6,cs),
(174,779.6,o),
(147.2,762.4,o),
(141.6,724.4,cs),
(24.8,65.2,ls),
(18,26.8,o),
(34.4,-7.6,o),
(78,-7.6,cs)
);
},
{
closed = 1;
nodes = (
(44.8,7.6,o),
(33.6,30,o),
(39.2,62.8,cs),
(156.4,721.6,ls),
(160.8,752.4,o),
(179.2,764.4,o),
(215.2,764.4,cs),
(482.8,764.4,o),
(637.6,710,o),
(610.8,556.4,cs),
(584.4,407.2,o),
(472.4,356.4,o),
(327.2,339.2,cs),
(321.2,338.4,o),
(319.6,334.4,o),
(323.2,329.6,cs),
(533.2,77.2,ls),
(543.2,65.6,o),
(542.4,51.2,o),
(538,36,cs),
(532.8,18,o),
(512,7.6,o),
(492,7.6,cs),
(476.4,7.6,o),
(454,10.8,o),
(435.6,32,cs),
(226,286.4,l),
(200.4,330,ls),
(196.8,336,o),
(192,335.2,o),
(190.8,328.4,cs),
(144.8,64.4,ls),
(139.2,30.8,o),
(112,7.6,o),
(78,7.6,cs)
);
},
{
closed = 1;
nodes = (
(368,411.2,o),
(493.6,458,o),
(510.4,556.8,cs),
(524.8,635.6,o),
(456,674.4,o),
(258.8,672.4,cs),
(254,672.4,o),
(251.2,670,o),
(250.4,665.6,cs),
(205.6,410.4,ls),
(204.4,405.2,o),
(207.2,402,o),
(212.8,402.4,cs)
);
},
{
closed = 1;
nodes = (
(264.4,657.6,l),
(450.4,658.8,o),
(507.6,626.4,o),
(495.6,559.2,cs),
(480.8,471.6,o),
(369.2,428.4,o),
(222,418,c)
);
},
{
closed = 1;
nodes = (
(75,549,l),
(98,594,l),
(89,596,l),
(112,724,l),
(99,726,l),
(76,599,l),
(68,600,l)
);
},
{
closed = 1;
nodes = (
(198,718,o),
(203,723,o),
(203,729,cs),
(203,735,o),
(198,740,o),
(192,740,cs),
(186,740,o),
(181,735,o),
(181,729,cs),
(181,723,o),
(186,718,o),
(192,718,cs)
);
}
);
vertWidth = 0;
width = 652;
},
{
associatedMasterId = m01;
layerId = "C47353F9-FE80-40FB-AB91-6D72AFE07355";
name = background;
shapes = (
{
closed = 1;
nodes = (
(375,361,o),
(575,381,o),
(601,565,cs),
(621,709,o),
(470,772,o),
(213,772,c),
(213,718,l),
(442,718,o),
(555,665,o),
(542,571,cs),
(523,437,o),
(347,416,o),
(158,416,c),
(150,361,l)
);
},
{
closed = 1;
nodes = (
(141,390,l),
(447,21,ls),
(459,6,o),
(467,0,o),
(476,0,cs),
(488,0,o),
(500,8,o),
(504,18,cs),
(507,27,o),
(506,42,o),
(499,51,cs),
(226,381,l)
);
},
{
closed = 1;
nodes = (
(235,757,o),
(233,772,o),
(208,772,cs),
(182,772,o),
(176,759,o),
(172,740,cs),
(49,39,ls),
(45,19,o),
(53,0,o),
(75,0,cs),
(101,0,o),
(106,19,o),
(109,37,cs),
(232,735,ls)
);
}
);
vertWidth = 0;
width = 594;
}
);
unicode = 82;
},
{
glyphname = S;
layers = (
{
background = {
shapes = (
{
closed = 1;
nodes = (
(221,0,o),
(318,38,o),
(372,107,cs),
(441,196,o),
(417,341,o),
(282,431,cs),
(246,455,ls),
(135,529,o),
(113,582,o),
(151,647,cs),
(188,710,o),
(280,713,o),
(385,713,cs),
(481,713,ls),
(497,713,o),
(508,728,o),
(508,744,cs),
(508,772,o),
(485,772,o),
(480,772,cs),
(386,772,ls),
(257,772,o),
(149,754,o),
(96,672,cs),
(42,587,o),
(81,493,o),
(191,418,cs),
(228,393,ls),
(335,321,o),
(384,225,o),
(329,147,cs),
(283,82,o),
(182,59,o),
(93,59,cs),
(-2,59,ls),
(-18,59,o),
(-31,44,o),
(-31,29,cs),
(-31,0,o),
(-5,0,o),
(-2,0,cs),
(93,0,ls)
);
}
);
};
layerId = m01;
shapes = (
{
closed = 1;
nodes = (
(100,-7,ls),
(308,-7,o),
(428,95,o),
(428,217,cs),
(428,317,o),
(368,387,o),
(293,437,cs),
(257,461,ls),
(178,513,o),
(148,549,o),
(148,594,cs),
(148,680,o),
(240,711,o),
(365,711,cs),
(467,711,ls),
(486,711,o),
(502,724,o),
(502,746,cs),
(502,780,o),
(470,780,o),
(466,780,cs),
(356,780,ls),
(182,780,o),
(71,707,o),
(71,590,cs),
(71,526,o),
(116,464,o),
(194,412,cs),
(231,387,ls),
(301,339,o),
(352,289,o),
(352,216,cs),
(352,129,o),
(269,63,o),
(107,63,cs),
(5,63,ls),
(-15,63,o),
(-31,48,o),
(-31,26,cs),
(-31,-7,o),
(2,-7,o),
(5,-7,cs)
);
},
{
closed = 1;
nodes = (
(2,8,o),
(-16,7,o),
(-16,26,cs),
(-16,41,o),
(-8,48,o),
(5,48,cs),
(107,48,ls),
(276,48,o),
(367,120,o),
(367,216,cs),
(367,295,o),
(311,351,o),
(239,399,cs),
(202,424,ls),
(127,474,o),
(86,531,o),
(86,590,cs),
(86,698,o),
(187,765,o),
(356,765,cs),
(466,765,ls),
(470,765,o),
(487,765,o),
(487,746,cs),
(487,732,o),
(479,726,o),
(467,726,cs),
(365,726,ls),
(237,726,o),
(133,691,o),
(133,594,cs),
(133,543,o),
(168,503,o),
(249,449,cs),
(285,425,ls),
(359,376,o),
(413,311,o),
(413,217,cs),
(413,102,o),
(301,8,o),
(100,8,cs),
(5,8,ls)
);
},
{
closed = 1;
nodes = (
(284,817,l),
(333,803,l),
(333,812,l),
(462,812,l),
(462,822,l),
(333,822,l),
(333,831,l)
);
},
{
closed = 1;
nodes = (
(467,735,o),
(472,740,o),
(472,746,cs),
(472,752,o),
(467,757,o),
(461,757,cs),
(455,757,o),
(450,752,o),
(450,746,cs),
(450,740,o),
(455,735,o),
(461,735,cs)
);
}
);
vertWidth = 0;
width = 484;
},
{
layerId = m002;
shapes = (
{
closed = 1;
nodes = (
(163.2,-7.6,ls),
(282,-8,o),
(492.4,52.8,o),
(492.4,228,cs),
(492.4,339.6,o),
(409,400,o),
(335.2,456,cs),
(312.4,473.2,ls),
(242,527,o),
(205.6,549.6,o),
(205.6,579.2,cs),
(205.6,621.2,o),
(284,656,o),
(361.2,656.4,cs),
(519.2,656.4,ls),
(554,656,o),
(582.4,684.8,o),
(582.4,719.2,cs),
(582.4,768,o),
(540,780,o),
(518,779.6,cs),
(362,779.6,ls),
(200,780,o),
(72.4,688,o),
(72.4,574,cs),
(72.4,484,o),
(149,436,o),
(228.8,378.8,cs),
(253.6,360.8,ls),
(327,307,o),
(358.4,276,o),
(358.4,228,cs),
(358.4,143.2,o),
(231,116,o),
(163.2,115.6,cs),
(42,115.6,ls),
(7,116,o),
(-22.4,86,o),
(-22.4,52,cs),
(-22.4,3.6,o),
(24,-8,o),
(42,-7.6,cs)
);
},
{
closed = 1;
nodes = (
(26,8,o),
(-7.6,16,o),
(-7.6,52,cs),
(-7.6,78.8,o),
(14,100,o),
(42,100.4,cs),
(163.2,100.4,ls),
(234,100,o),
(373.6,130.4,o),
(373.6,228,cs),
(373.6,282.4,o),
(338,319,o),
(262.4,373.2,cs),
(237.2,391.2,ls),
(157,448,o),
(87.6,492,o),
(87.6,574,cs),
(87.6,679.2,o),
(206,764,o),
(362,764.4,cs),
(518,764.4,ls),
(538,764,o),
(567.6,756.4,o),
(567.6,719.2,cs),
(567.6,692,o),
(547,672,o),
(519.2,671.6,cs),
(361.2,671.6,ls),
(279,672,o),
(190.4,632,o),
(190.4,579.2,cs),
(190.4,542,o),
(231,513,o),
(303.6,460.8,cs),
(326.8,444,ls),
(402,390,o),
(477.6,332.4,o),
(477.6,228,cs),
(477.6,64.8,o),
(279,8,o),
(163.2,7.6,cs),
(42,7.6,ls)
);
},
{
closed = 1;
nodes = (
(352,818,l),
(401,803,l),
(401,812,l),
(530,812,l),
(530,825,l),
(401,825,l),
(401,834,l)
);
},
{
closed = 1;
nodes = (
(543,720,o),
(548,725,o),
(548,731,cs),
(548,737,o),
(543,742,o),
(537,742,cs),
(531,742,o),
(526,737,o),
(526,731,cs),
(526,725,o),
(531,720,o),
(537,720,cs)
);
}
);
vertWidth = 0;
width = 554;
},
{
associatedMasterId = m01;
layerId = "A440414B-586A-40A5-AE6A-EB7CED442D21";
name = background;
shapes = (
{
closed = 1;
nodes = (
(235,0,o),
(412,59,o),
(412,219,cs),
(412,320,o),
(359,378,o),
(274,437,cs),
(187,498,o),
(133,537,o),
(133,590,cs),
(133,659,o),
(238,713,o),
(329,713,cs),
(484,713,ls),
(499,713,o),
(511,728,o),
(511,744,cs),
(511,772,o),
(487,772,o),
(482,772,cs),
(330,772,ls),
(177,772,o),
(72,684,o),
(72,586,cs),
(72,501,o),
(141,457,o),
(235,391,cs),
(320,330,o),
(353,286,o),
(353,217,cs),
(353,99,o),
(196,59,o),
(119,59,cs),
(0,59,ls),
(-15,59,o),
(-29,44,o),
(-29,29,cs),
(-29,0,o),
(-2,0,o),
(0,0,cs),
(119,0,ls)
);
}
);
vertWidth = 0;
width = 594;
}
);
unicode = 83;
},
{
glyphname = T;
layers = (
{
layerId = m01;
shapes = (
{
closed = 1;
nodes = (
(238,-7,o),
(242,17,o),
(244,29,cs),
(363,711,l),
(586,711,ls),
(614,711,o),
(624,728,o),
(624,745,cs),
(624,762,o),
(614,780,o),
(586,780,cs),
(82,780,ls),
(53,780,o),
(44,762,o),
(44,745,cs),
(44,728,o),
(53,711,o),
(82,711,cs),
(288,711,l),
(171,33,ls),
(167,11,o),
(179,-7,o),
(205,-7,cs)
);
},
{
closed = 1;
nodes = (
(188,8,o),
(182,16,o),
(185,31,cs),
(304,717,ls),
(305,723,o),
(303,726,o),
(298,726,cs),
(82,726,ls),
(62,726,o),
(59,733,o),
(59,745,cs),
(59,757,o),
(62,765,o),
(82,765,cs),
(586,765,ls),
(605,765,o),
(609,757,o),
(609,745,cs),
(609,733,o),
(605,726,o),
(586,726,cs),
(358,726,ls),
(353,726,o),
(350,723,o),
(349,719,cs),
(230,31,ls),
(228,19,o),
(226,8,o),
(205,8,cs)
);
},
{
closed = 1;
nodes = (
(226,524,l),
(249,569,l),
(240,571,l),
(263,699,l),
(250,701,l),
(227,574,l),
(219,575,l)
);
},
{
closed = 1;
nodes = (
(337,737,o),
(342,742,o),
(342,748,cs),
(342,754,o),
(337,759,o),
(331,759,cs),
(325,759,o),
(320,754,o),
(320,748,cs),
(320,742,o),
(325,737,o),
(331,737,cs)
);
}
);
vertWidth = 0;
width = 544;
},
{
layerId = m002;
shapes = (
{
closed = 1;
nodes = (
(277.2,-9.6,o),
(300,17,o),
(304.4,44.8,cs),
(410.4,661.6,l),
(607.2,661.6,ls),
(649,662,o),
(673.6,689.2,o),
(673.6,721.2,cs),
(673.6,756,o),
(647,784,o),
(607.2,783.6,cs),
(103.2,783.6,ls),
(64,784,o),
(36.4,756,o),
(36.4,721.2,cs),
(36.4,689.2,o),
(61,662,o),
(103.2,661.6,cs),
(275.2,661.6,l),
(170.8,59.2,ls),
(164,22,o),
(192.8,-9.6,o),
(234,-9.6,cs)
);
},
{
closed = 1;
nodes = (
(200.4,5.6,o),
(180,27,o),
(185.2,56.8,cs),
(291.2,668.4,ls),
(292,673,o),
(290,676,o),
(284.4,676.4,cs),
(103.2,676.4,ls),
(68,676,o),
(51.6,696,o),
(51.6,721.2,cs),
(51.6,748.8,o),
(71,768,o),
(103.2,768.4,cs),
(607.2,768.4,ls),
(640,768,o),
(658.4,748.8,o),
(658.4,721.2,cs),
(658.4,696,o),
(642,676,o),
(607.2,676.4,cs),
(404.4,676.4,ls),
(400,676,o),
(397,674,o),
(396.4,669.6,cs),
(289.6,47.2,ls),
(286,24,o),
(269.6,5.6,o),
(234,5.6,cs)
);
},
{
closed = 1;
nodes = (
(208,459,l),
(231,504,l),
(222,506,l),
(245,634,l),
(232,636,l),
(209,509,l),
(201,510,l)
);
},
{
closed = 1;
nodes = (
(350,737,o),
(355,742,o),
(355,748,cs),
(355,754,o),
(350,759,o),
(344,759,cs),
(338,759,o),
(333,754,o),
(333,748,cs),
(333,742,o),
(338,737,o),
(344,737,cs)
);
}
);
vertWidth = 0;
width = 593;
}
);
unicode = 84;
},
{
glyphname = U;
kernLeft = H_left;
kernRight = H_right;
layers = (
{
layerId = m01;
shapes = (
{
closed = 1;
nodes = (
(251,-12,o),
(366,154,o),
(458,326,c),
(407,33,ls),
(402,6,o),
(421,-8,o),
(442,-8,cs),
(459,-8,o),
(477,3,o),
(481,25,cs),
(607,740,ls),
(611,762,o),
(600,780,o),
(571,780,cs),
(545,780,o),
(535,761,o),
(532,745,cs),
(505,590,l),
(479,485,o),
(433,414,o),
(394,350,cs),
(341,262,o),
(225,58,o),
(136,58,cs),
(90,58,o),
(100,137,o),
(114,213,cs),
(209,738,ls),
(213,759,o),
(200,778,o),
(177,779,cs),
(154,780,o),
(138,760,o),
(134,738,cs),
(40,218,ls),
(11,58,o),
(52,-12,o),
(127,-12,cs)
);
},
{
closed = 1;
nodes = (
(61,3,o),
(26,63,o),
(54,216,cs),
(148,736,ls),
(151,753,o),
(162,765,o),
(177,765,cs),
(191,764,o),
(198,754,o),
(195,740,cs),
(100,215,ls),
(86,138,o),
(72,43,o),
(136,43,cs),
(234,43,o),
(353,254,o),
(406,342,cs),
(445,406,o),
(493,479,o),
(519,586,c),
(546,743,ls),
(548,755,o),
(554,765,o),
(571,765,cs),
(591,765,o),
(596,757,o),
(593,742,cs),
(467,27,ls),
(465,13,o),
(454,7,o),
(442,7,cs),
(428,7,o),
(418,13,o),
(421,31,cs),
(480,364,ls),
(481,369,o),
(479,372,o),
(475,373,c),
(474,373,l),
(470,375,o),
(466,374,o),
(464,369,cs),
(369,187,o),
(252,2,o),
(127,3,cs)
);
},
{
closed = 1;
nodes = (
(74,566,l),
(96,612,l),
(88,614,l),
(110,740,l),
(101,742,l),
(78,616,l),
(69,618,l)
);
},
{
closed = 1;
nodes = (
(179,729,o),
(184,734,o),
(184,740,cs),
(184,746,o),
(179,751,o),
(173,751,cs),
(167,751,o),
(162,746,o),
(162,740,cs),
(162,734,o),
(167,729,o),
(173,729,cs)
);
}
);
vertWidth = 0;
width = 621;
},
{
layerId = m002;
shapes = (
{
closed = 1;
nodes = (
(271.6,-12.4,o),
(369.6,94,o),
(450.4,224.4,c),
(421.6,59.2,ls),
(413.6,14.4,o),
(446.8,-7.6,o),
(484,-7.6,cs),
(513.2,-7.6,o),
(548.8,8.4,o),
(553.6,42.8,cs),
(671.2,713.6,ls),
(678.4,751.2,o),
(653.6,779.6,o),
(608,779.6,cs),
(571.6,779.6,o),
(543.2,759.2,o),
(537.6,728.4,cs),
(521.6,636.4,ls),
(506.8,567.2,o),
(455.2,442.4,o),
(425.2,387.6,cs),
(391.6,321.6,o),
(263.6,109.6,o),
(187.2,109.6,cs),
(172,109.6,o),
(173.6,148,o),
(186.4,218.8,cs),
(274.4,711.6,ls),
(281.2,750.4,o),
(252,779.6,o),
(214,779.6,cs),
(171.6,780.8,o),
(144.8,744.8,o),
(141.6,721.2,cs),
(53.6,233.2,ls),
(22.8,64.8,o),
(75.6,-12.4,o),
(168,-12.4,cs)
);
},
{
closed = 1;
nodes = (
(84.8,2.4,o),
(38.8,69.6,o),
(68.4,230.8,cs),
(156.4,718.8,ls),
(159.2,738,o),
(179.6,765.6,o),
(214,764.4,cs),
(244.8,764.4,o),
(264.8,744.4,o),
(259.6,714.4,cs),
(171.6,221.2,ls),
(158.4,150,o),
(154.4,94.4,o),
(187.2,94.4,cs),
(273.6,94.4,o),
(404.8,314.4,o),
(438.8,380.4,cs),
(468.8,435.6,o),
(521.2,562.8,o),
(536.4,633.6,cs),
(552.4,725.6,ls),
(556.8,749.6,o),
(577.6,764.4,o),
(608,764.4,cs),
(645.6,764.4,o),
(662,745.6,o),
(656.8,716.4,cs),
(538.4,45.2,l),
(535.2,19.2,o),
(509.2,7.6,o),
(484,7.6,cs),
(452.4,7.6,o),
(430.4,22.4,o),
(436.4,56.8,cs),
(471.2,254.8,ls),
(472,259.2,o),
(470.4,262.4,o),
(466,264,cs),
(464.8,264.4,ls),
(460.4,266,o),
(457.2,264.8,o),
(454.8,260.8,cs),
(372,119.2,o),
(272,2.4,o),
(168,2.4,cs)
);
},
{
closed = 1;
nodes = (
(77,549,l),
(100,594,l),
(91,596,l),
(114,724,l),
(101,726,l),
(78,599,l),
(70,600,l)
);
},
{
closed = 1;
nodes = (
(200,718,o),
(205,723,o),
(205,729,cs),
(205,735,o),
(200,740,o),
(194,740,cs),
(188,740,o),
(183,735,o),
(183,729,cs),
(183,723,o),
(188,718,o),
(194,718,cs)
);
}
);
vertWidth = 0;
width = 694;
}
);
unicode = 85;
},
{
glyphname = V;
kernLeft = V_left;
kernRight = V_right;
layers = (
{
layerId = m01;
shapes = (
{
closed = 1;
nodes = (
(250,-7,o),
(257,10,o),
(265,27,cs),
(607,718,ls),
(622,748,o),
(613,769,o),
(595,778,cs),
(575,787,o),
(551,772,o),
(539,747,cs),
(255,173,l),
(249,157,l),
(248,175,l),
(218,745,l),
(216,758,o),
(211,780,o),
(178,780,cs),
(152,780,o),
(143,761,o),
(144,741,cs),
(183,38,ls),
(184,15,o),
(195,-7,o),
(222,-7,cs)
);
},
{
closed = 1;
nodes = (
(205,8,o),
(198,20,o),
(197,40,cs),
(158,741,ls),
(157,757,o),
(161,765,o),
(178,765,cs),
(199,765,o),
(202,754,o),
(204,743,c),
(234,175,l),
(234,127,ls),
(234,122,o),
(237,119,o),
(241,119,cs),
(242,119,ls),
(247,119,o),
(250,119,o),
(252,124,cs),
(269,167,l),
(553,741,ls),
(563,761,o),
(577,770,o),
(589,764,cs),
(600,759,o),
(605,747,o),
(593,724,cs),
(251,33,ls),
(243,16,o),
(240,8,o),
(222,8,cs)
);
},
{
closed = 1;
nodes = (
(120,565,l),
(131,615,l),
(121,615,l),
(114,743,l),
(105,742,l),
(111,615,l),
(102,614,l)
);
},
{
closed = 1;
nodes = (
(188,729,o),
(193,734,o),
(193,740,cs),
(193,746,o),
(188,751,o),
(182,751,cs),
(176,751,o),
(171,746,o),
(171,740,cs),
(171,734,o),
(176,729,o),
(182,729,cs)
);
}
);
vertWidth = 0;
width = 580;
},
{
layerId = m002;
shapes = (
{
closed = 1;
nodes = (
(226.8,-9.6,o),
(244,14,o),
(255.6,36.8,cs),
(583.6,698.8,ls),
(607,746,o),
(575.6,779.6,o),
(533.2,779.6,cs),
(496.4,779.6,o),
(471,763,o),
(458.4,737.2,cs),
(245.2,307.2,l),
(235.6,284,l),
(236.4,308,l),
(214.4,725.2,ls),
(213,756,o),
(188,779.6,o),
(146,779.6,cs),
(108.4,779.6,o),
(81,757,o),
(83.6,717.6,cs),
(121.6,51.6,ls),
(123,19,o),
(148.8,-9.6,o),
(189.2,-9.6,cs)
);
},
{
closed = 1;
nodes = (
(156.4,5.6,o),
(138,26,o),
(136.4,52.4,cs),
(98.4,718.4,ls),
(97,750,o),
(114.8,764.4,o),
(146,764.4,cs),
(181.2,764.4,o),
(198,748,o),
(199.6,724.8,cs),
(221.6,308,l),
(220,250,ls),
(220,246,o),
(222,242.8,o),
(226.4,241.6,cs),
(227.2,241.6,ls),
(231.6,240.4,o),
(235,242,o),
(236.8,246.4,cs),
(258.8,300.8,l),
(471.6,730.8,ls),
(482,753,o),
(501.2,764.4,o),
(533.2,764.4,cs),
(567.6,764.4,o),
(589,742,o),
(570.4,705.2,cs),
(242.4,43.2,ls),
(232,22,o),
(219.2,5.6,o),
(189.2,5.6,cs)
);
},
{
closed = 1;
nodes = (
(57,548,l),
(69,597,l),
(60,597,l),
(57,727,l),
(43,726,l),
(47,597,l),
(39,596,l)
);
},
{
closed = 1;
nodes = (
(136,718,o),
(141,723,o),
(141,729,cs),
(141,735,o),
(136,740,o),
(130,740,cs),
(124,740,o),
(119,735,o),
(119,729,cs),
(119,723,o),
(124,718,o),
(130,718,cs)
);
}
);
vertWidth = 0;
width = 546;
}
);
unicode = 86;
},
{
glyphname = W;
kernLeft = V_left;
kernRight = V_right;
layers = (
{
background = {
shapes = (
{
closed = 1;
nodes = (
(634,0,o),
(639,13,o),
(647,30,cs),
(996,734,ls),
(1007,758,o),
(993,772,o),
(975,772,cs),
(953,772,o),
(943,763,o),
(933,743,cs),
(589,46,l),
(612,0,l)
);
},
{
closed = 1;
nodes = (
(600,744,ls),
(599,756,o),
(594,772,o),
(568,772,c),
(546,772,o),
(539,759,o),
(541,741,cs),
(580,33,ls),
(581,18,o),
(590,0,o),
(613,0,c),
(638,44,l)
);
}
);
};
layerId = m01;
shapes = (
{
closed = 1;
nodes = (
(250,-7,o),
(260,15,o),
(267,28,cs),
(550,603,l),
(558,622,l),
(558,607,l),
(591,26,ls),
(592,6,o),
(603,-7,o),
(626,-7,cs),
(653,-7,o),
(663,10,o),
(671,27,cs),
(1012,718,ls),
(1027,748,o),
(1016,769,o),
(999,777,cs),
(978,786,o),
(956,772,o),
(944,748,cs),
(656,160,l),
(656,187,l),
(623,745,l),
(621,760,o),
(615,780,o),
(582,780,cs),
(556,780,o),
(544,761,o),
(537,747,cs),
(258,178,l),
(248,157,l),
(248,179,l),
(218,745,l),
(216,758,o),
(211,780,o),
(178,780,cs),
(152,780,o),
(142,761,o),
(144,741,cs),
(183,33,ls),
(185,12,o),
(197,-7,o),
(224,-7,cs)
);
},
{
closed = 1;
nodes = (
(206,8,o),
(199,18,o),
(197,35,c),
(158,741,ls),
(158,757,o),
(161,765,o),
(178,765,cs),
(199,765,o),
(202,754,o),
(204,743,c),
(234,179,l),
(233,129,ls),
(233,124,o),
(236,122,o),
(240,121,cs),
(241,120,ls),
(246,119,o),
(249,121,o),
(251,125,cs),
(272,172,l),
(551,741,ls),
(557,753,o),
(564,765,o),
(582,765,cs),
(604,765,o),
(607,756,o),
(609,743,c),
(642,187,l),
(640,128,ls),
(639,123,o),
(642,121,o),
(646,120,cs),
(652,118,o),
(655,120,o),
(657,124,cs),
(958,742,ls),
(967,761,o),
(980,769,o),
(993,763,cs),
(1004,758,o),
(1010,747,o),
(998,724,cs),
(657,33,ls),
(649,16,o),
(645,8,o),
(626,8,cs),
(611,8,o),
(606,13,o),
(605,26,cs),
(572,607,l),
(573,655,ls),
(573,660,o),
(570,662,o),
(565,663,cs),
(560,664,o),
(557,663,o),
(556,658,cs),
(536,609,l),
(253,34,ls),
(246,21,o),
(240,8,o),
(224,8,cs)
);
},
{
closed = 1;
nodes = (
(120,565,l),
(131,615,l),
(121,615,l),
(114,743,l),
(105,742,l),
(111,615,l),
(102,614,l)
);
},
{
closed = 1;
nodes = (
(188,729,o),
(193,734,o),
(193,740,cs),
(193,746,o),
(188,751,o),
(182,751,cs),
(176,751,o),
(171,746,o),
(171,740,cs),
(171,734,o),
(176,729,o),
(182,729,cs)
);
}
);
vertWidth = 0;
width = 983;
},
{
layerId = m002;
shapes = (
{
closed = 1;
nodes = (
(242.4,-7.6,o),
(253.6,13.6,o),
(267.6,42.8,cs),
(474.8,457.6,l),
(500.4,512.8,l),
(502.4,456.4,l),
(534.4,44.4,ls),
(536.8,12.8,o),
(573.2,-7.6,o),
(600,-7.6,cs),
(636.4,-7.6,o),
(653.2,9.2,o),
(665.6,35.6,cs),
(990.8,691.6,ls),
(1010,734,o),
(980.4,779.6,o),
(947.2,779.6,cs),
(902.8,779.6,o),
(879.2,761.6,o),
(866.4,734.4,cs),
(643.2,264.8,l),
(641.6,317.6,l),
(611.6,725.6,ls),
(608,758.4,o),
(585.6,779.6,o),
(541.2,779.6,cs),
(495.2,779.6,o),
(482.4,753.2,o),
(475.2,738.4,cs),
(261.2,308.4,l),
(238.8,260,l),
(237.6,304.4,l),
(214.4,725.2,ls),
(213.2,756.4,o),
(189.2,779.6,o),
(147.2,779.6,cs),
(109.2,779.6,o),
(81.2,757.6,o),
(83.6,717.6,cs),
(129.6,51.6,ls),
(131.6,13.2,o),
(158.8,-7.6,o),
(201.2,-7.6,cs)
);
},
{
closed = 1;
nodes = (
(164.4,7.6,o),
(146.4,22,o),
(144.4,52.4,cs),
(98.4,718.4,ls),
(96.8,749.6,o),
(115.6,764.4,o),
(147.2,764.4,cs),
(182,764.4,o),
(198.8,748.8,o),
(199.6,724.8,cs),
(222.4,303.6,l),
(224.4,234.8,ls),
(224.4,230,o),
(226.4,227.6,o),
(230.8,226.4,cs),
(232.4,226.4,ls),
(236.8,225.2,o),
(239.6,226.8,o),
(241.6,230.8,cs),
(274.8,301.6,l),
(488.8,731.6,ls),
(495.6,746.8,o),
(504.8,764.4,o),
(541.2,764.4,cs),
(579.2,764.4,o),
(594,750.4,o),
(596.4,724.4,cs),
(626.4,316.4,l),
(629.2,240.4,ls),
(629.6,235.6,o),
(631.6,233.2,o),
(637.2,232,cs),
(641.6,231.2,o),
(644.4,232.8,o),
(646.4,236.8,cs),
(879.6,727.6,ls),
(890.8,751.2,o),
(908.4,764.4,o),
(947.2,764.4,cs),
(970.8,764.4,o),
(992.4,731.2,o),
(977.2,698.4,cs),
(652.4,42.4,ls),
(640.8,18.4,o),
(630,7.6,o),
(600,7.6,cs),
(578,7.6,o),
(551.2,22.4,o),
(549.6,45.6,cs),
(517.6,457.6,l),
(514.8,537.6,ls),
(514.4,542.4,o),
(512.4,544.8,o),
(506.8,546,cs),
(502.4,546.8,o),
(499.6,545.2,o),
(497.6,541.2,cs),
(461.2,464.4,l),
(254.4,49.2,ls),
(240.4,20.4,o),
(233.6,7.6,o),
(201.2,7.6,cs)
);
},
{
closed = 1;
nodes = (
(57,548,l),
(69,597,l),
(60,597,l),
(57,727,l),
(43,726,l),
(47,597,l),
(39,596,l)
);
},
{
closed = 1;
nodes = (
(136,718,o),
(141,723,o),
(141,729,cs),
(141,735,o),
(136,740,o),
(130,740,cs),
(124,740,o),
(119,735,o),
(119,729,cs),
(119,723,o),
(124,718,o),
(130,718,cs)
);
}
);
vertWidth = 0;
width = 950;
},
{
associatedMasterId = m01;
layerId = "0A5AEDD3-7312-4DBD-857C-C4F2C135CE12";
name = background;
shapes = (
{
closed = 1;
nodes = (
(601,0,o),
(607,13,o),
(615,30,cs),
(956,721,ls),
(966,739,o),
(969,754,o),
(966,760,cs),
(961,769,o),
(952,772,o),
(943,772,cs),
(934,772,o),
(927,771,o),
(922,767,cs),
(910,760,o),
(905,751,o),
(901,743,cs),
(625,184,l),
(556,37,l),
(580,0,l)
);
},
{
closed = 1;
nodes = (
(192,179,l),
(162,744,ls),
(160,756,o),
(156,772,o),
(129,772,c),
(108,772,o),
(101,759,o),
(102,741,cs),
(141,33,ls),
(143,14,o),
(156,0,o),
(181,0,c),
(200,44,l)
);
},
{
closed = 1;
nodes = (
(196,0,o),
(204,18,o),
(211,31,cs),
(494,606,l),
(557,735,l),
(531,772,l),
(512,772,o),
(500,754,o),
(495,744,cs),
(216,175,l),
(153,48,l),
(179,0,l)
);
},
{
closed = 1;
nodes = (
(600,187,l),
(567,744,ls),
(565,758,o),
(558,772,o),
(531,772,c),
(508,733,l),
(516,607,l),
(549,23,ls),
(550,7,o),
(560,0,o),
(581,0,c),
(604,36,l)
);
}
);
vertWidth = 0;
width = 594;
}
);
unicode = 87;
},
{
glyphname = X;
layers = (
{
layerId = m01;
shapes = (
{
closed = 1;
nodes = (
(432,2,o),
(446,22,o),
(433,55,cs),
(312,375,l),
(563,719,ls),
(578,740,o),
(576,762,o),
(562,772,cs),
(547,784,o),
(520,783,o),
(504,761,cs),
(282,457,l),
(171,753,ls),
(161,779,o),
(133,785,o),
(116,778,cs),
(97,772,o),
(90,751,o),
(100,725,cs),
(225,391,l),
(-25,50,ls),
(-38,32,o),
(-35,12,o),
(-22,1,cs),
(-6,-12,o),
(22,-13,o),
(38,9,cs),
(255,308,l),
(359,30,ls),
(372,-5,o),
(399,-14,o),
(416,-5,cs)
);
},
{
closed = 1;
nodes = (
(398,3,o),
(384,8,o),
(373,36,cs),
(263,329,ls),
(261,335,o),
(256,336,o),
(253,331,cs),
(26,17,ls),
(16,3,o),
(-1,3,o),
(-12,13,cs),
(-20,19,o),
(-21,29,o),
(-13,40,cs),
(238,384,ls),
(240,387,o),
(241,390,o),
(239,394,cs),
(114,731,ls),
(107,750,o),
(110,760,o),
(122,764,cs),
(134,769,o),
(150,766,o),
(157,747,cs),
(274,435,ls),
(276,430,o),
(281,429,o),
(284,434,cs),
(516,753,ls),
(527,768,o),
(542,768,o),
(552,760,cs),
(561,754,o),
(562,743,o),
(551,727,cs),
(299,382,ls),
(296,379,o),
(296,376,o),
(297,372,cs),
(419,49,ls),
(428,25,o),
(421,14,o),
(410,9,cs)
);
},
{
closed = 1;
nodes = (
(134,547,l),
(130,598,l),
(120,596,l),
(76,716,l),
(68,712,l),
(111,593,l),
(102,589,l)
);
},
{
closed = 1;
nodes = (
(141,729,o),
(146,734,o),
(146,740,cs),
(146,746,o),
(141,751,o),
(135,751,cs),
(129,751,o),
(124,746,o),
(124,740,cs),
(124,734,o),
(129,729,o),
(135,729,cs)
);
}
);
vertWidth = 0;
width = 537;
},
{
layerId = m002;
shapes = (
{
closed = 1;
nodes = (
(463.2,14.8,o),
(476,42,o),
(464,74.8,cs),
(355.6,364,l),
(583.2,682.4,ls),
(606,714,o),
(600.4,743.6,o),
(576,764.8,cs),
(552.4,786,o),
(504,787,o),
(480,754.4,cs),
(301.2,506.8,l),
(212.8,742.8,ls),
(198,781,o),
(154,784.8,o),
(124.4,776,cs),
(89.2,762.4,o),
(78,734,o),
(92.8,693.2,cs),
(204.4,395.2,l),
(-18,86.4,ls),
(-38,59,o),
(-38,31.2,o),
(-12.8,9.2,cs),
(11.6,-12,o),
(64,-18,o),
(88,14.8,cs),
(258,252,l),
(340,30.4,ls),
(355,-9,o),
(405.6,-15.2,o),
(435.6,0.4,cs)
);
},
{
closed = 1;
nodes = (
(403.6,0.8,o),
(365,6,o),
(354,35.6,cs),
(266,273.6,ls),
(264,280,o),
(259,280,o),
(255.6,275.2,cs),
(76,23.2,ls),
(58,-2,o),
(17.2,3.2,o),
(-3.2,20.8,cs),
(-22.4,37.6,o),
(-23,55,o),
(-6,77.6,cs),
(218,388,ls),
(220,391,o),
(221,394,o),
(219.6,398.4,cs),
(107.2,698.8,ls),
(94,733,o),
(101.6,751.2,o),
(129.6,762,cs),
(154.8,769.2,o),
(186.8,766,o),
(199.2,737.2,c),
(292.8,485.6,ls),
(295,480,o),
(300,479,o),
(303.2,484,cs),
(492,745.6,ls),
(511,772,o),
(547.2,770.4,o),
(566,753.2,cs),
(586,736,o),
(589,717,o),
(570.8,691.6,cs),
(341.6,370.8,ls),
(339,368,o),
(339,364,o),
(340.4,360.4,cs),
(450,69.2,ls),
(460,43,o),
(451.6,25.6,o),
(428.4,13.6,cs)
);
},
{
closed = 1;
nodes = (
(118,546,l),
(114,596,l),
(105,593,l),
(62,716,l),
(49,711,l),
(93,589,l),
(86,586,l)
);
},
{
closed = 1;
nodes = (
(136,718,o),
(141,723,o),
(141,729,cs),
(141,735,o),
(136,740,o),
(130,740,cs),
(124,740,o),
(119,735,o),
(119,729,cs),
(119,723,o),
(124,718,o),
(130,718,cs)
);
}
);
vertWidth = 0;
width = 552;
}
);
unicode = 88;
},
{
glyphname = Y;
layers = (
{
layerId = m01;
shapes = (
{
closed = 1;
nodes = (
(273,-7,o),
(280,16,o),
(282,28,cs),
(343,380,l),
(593,719,ls),
(607,739,o),
(605,762,o),
(587,773,cs),
(571,786,o),
(545,779,o),
(532,761,cs),
(334,491,l),
(313,461,l),
(304,490,l),
(206,751,ls),
(197,776,o),
(172,784,o),
(153,777,cs),
(133,769,o),
(128,746,o),
(136,725,cs),
(268,378,l),
(207,33,ls),
(203,11,o),
(215,-7,o),
(241,-7,cs)
);
},
{
closed = 1;
nodes = (
(224,8,o),
(218,16,o),
(221,31,cs),
(283,375,ls),
(284,378,o),
(283,381,o),
(282,384,cs),
(150,731,ls),
(144,747,o),
(146,758,o),
(159,763,cs),
(171,768,o),
(185,763,o),
(192,745,cs),
(290,486,l),
(304,438,ls),
(306,432,o),
(310,431,o),
(314,436,cs),
(346,483,l),
(544,753,ls),
(553,765,o),
(568,769,o),
(579,761,cs),
(590,754,o),
(592,741,o),
(581,727,cs),
(332,390,ls),
(330,387,o),
(329,385,o),
(328,381,cs),
(268,32,l),
(265,20,o),
(261,8,o),
(241,8,cs)
);
},
{
closed = 1;
nodes = (
(169,547,l),
(165,598,l),
(155,596,l),
(111,716,l),
(103,712,l),
(146,593,l),
(137,589,l)
);
},
{
closed = 1;
nodes = (
(176,729,o),
(181,734,o),
(181,740,cs),
(181,746,o),
(176,751,o),
(170,751,cs),
(164,751,o),
(159,746,o),
(159,740,cs),
(159,734,o),
(164,729,o),
(170,729,cs)
);
}
);
vertWidth = 0;
width = 566;
},
{
layerId = m002;
shapes = (
{
closed = 1;
nodes = (
(263.6,-9.6,o),
(283.2,19.6,o),
(287.2,46.8,cs),
(344,372,l),
(574.8,682.4,ls),
(603.2,719.6,o),
(589.2,756.4,o),
(564,773.2,cs),
(537.6,790.8,o),
(496.8,791.2,o),
(470,755.6,cs),
(308.8,536.4,l),
(294.4,516,l),
(287.2,537.6,l),
(209.2,740.8,ls),
(192,784.4,o),
(150.8,792.4,o),
(120.8,777.6,cs),
(93.2,764.4,o),
(74.4,734.4,o),
(89.2,696.4,cs),
(211.2,387.2,l),
(154.8,59.2,ls),
(147.6,21.6,o),
(176.8,-9.6,o),
(219.2,-9.6,cs)
);
},
{
closed = 1;
nodes = (
(184.4,5.6,o),
(164,27.2,o),
(169.2,56.8,cs),
(226,384,ls),
(226.4,387.6,o),
(226.4,390,o),
(224.8,393.6,cs),
(102.8,701.6,ls),
(91.2,732.4,o),
(104.4,753.2,o),
(127.2,764.4,cs),
(152,776,o),
(181.6,770.4,o),
(194.8,735.2,cs),
(272.8,532.4,l),
(286,494.4,ls),
(288,488.8,o),
(292.4,488,o),
(296,492.8,cs),
(321.2,527.6,l),
(482,746.4,ls),
(503.6,775.6,o),
(533.6,775.6,o),
(556,760.8,cs),
(576,747.2,o),
(585.6,721.2,o),
(563.2,691.6,cs),
(332.8,382,ls),
(330.8,379.2,o),
(329.6,376.8,o),
(329.2,373.2,cs),
(272.8,49.2,ls),
(268.8,26,o),
(255.2,5.6,o),
(219.2,5.6,cs)
);
},
{
closed = 1;
nodes = (
(118,546,l),
(114,596,l),
(105,593,l),
(62,716,l),
(49,711,l),
(93,589,l),
(86,586,l)
);
},
{
closed = 1;
nodes = (
(136,718,o),
(141,723,o),
(141,729,cs),
(141,735,o),
(136,740,o),
(130,740,cs),
(124,740,o),
(119,735,o),
(119,729,cs),
(119,723,o),
(124,718,o),
(130,718,cs)
);
}
);
vertWidth = 0;
width = 543;
},
{
associatedMasterId = m01;
layerId = "00B86DF0-33AC-4F1C-ADC9-58C3EF72DD24";
name = background;
shapes = (
{
closed = 1;
nodes = (
(530,723,ls),
(536,732,o),
(539,740,o),
(539,747,cs),
(539,754,o),
(536,762,o),
(529,766,cs),
(520,772,o),
(512,773,o),
(505,772,cs),
(497,770,o),
(487,764,o),
(481,757,cs),
(215,396,l),
(252,346,l)
);
},
{
closed = 1;
nodes = (
(225,416,l),
(157,32,ls),
(153,14,o),
(163,0,o),
(184,0,cs),
(210,0,o),
(215,18,o),
(217,30,cs),
(285,416,l)
);
},
{
closed = 1;
nodes = (
(267,415,l),
(141,748,ls),
(138,758,o),
(129,766,o),
(121,770,cs),
(115,773,o),
(107,773,o),
(97,770,cs),
(88,766,o),
(82,760,o),
(81,753,cs),
(80,746,o),
(82,738,o),
(86,728,cs),
(223,365,l)
);
}
);
vertWidth = 0;
width = 594;
},
{
associatedMasterId = m002;
layerId = "ABE7B4F7-B3A0-4559-B244-B70180902683";
name = background;
shapes = (
{
closed = 1;
nodes = (
(516,776,o),
(494,776,o),
(482,776,c),
(469,772,o),
(451,763,o),
(443,751,cs),
(196,416,l),
(248,302,l),
(536,687,ls),
(545,700,o),
(550,712,o),
(550,726,cs),
(550,740,o),
(543,753,o),
(530,763,cs)
);
},
{
closed = 1;
nodes = (
(226,-2,o),
(242,23,o),
(247,48,cs),
(315,441,l),
(195,441,l),
(128,58,ls),
(122,25,o),
(147,-2,o),
(185,-2,cs)
);
},
{
closed = 1;
nodes = (
(72,764,o),
(59,751,o),
(56,735,cs),
(53,723,o),
(58,712,o),
(63,699,cs),
(214,316,l),
(297,404,l),
(169,738,ls),
(164,751,o),
(153,763,o),
(138,770,cs),
(127,776,o),
(106,777,o),
(90,771,cs)
);
}
);
vertWidth = 0;
width = 594;
}
);
unicode = 89;
},
{
glyphname = Z;
layers = (
{
layerId = m01;
shapes = (
{
closed = 1;
nodes = (
(425,-7,ls),
(454,-7,o),
(464,10,o),
(464,27,cs),
(464,45,o),
(454,63,o),
(425,63,cs),
(118,62,l),
(100,62,l),
(579,718,ls),
(598,744,o),
(581,780,o),
(553,780,cs),
(155,780,ls),
(127,780,o),
(117,762,o),
(117,745,cs),
(117,728,o),
(127,711,o),
(155,711,cs),
(436,710,l),
(482,711,l),
(1,52,ls),
(-15,30,o),
(-6,-7,o),
(26,-7,cs)
);
},
{
closed = 1;
nodes = (
(7,8,o),
(2,28,o),
(13,44,cs),
(505,716,ls),
(509,722,o),
(507,726,o),
(500,726,cs),
(436,726,l),
(155,726,ls),
(136,726,o),
(132,733,o),
(132,745,cs),
(132,757,o),
(136,765,o),
(155,765,cs),
(553,765,ls),
(570,765,o),
(580,744,o),
(567,726,cs),
(77,55,ls),
(73,50,o),
(75,46,o),
(82,46,cs),
(118,48,l),
(425,48,ls),
(445,48,o),
(449,40,o),
(449,27,cs),
(449,15,o),
(445,8,o),
(425,8,cs),
(26,8,ls)
);
},
{
closed = 1;
nodes = (
(284,815,l),
(155,815,l),
(155,805,l),
(284,805,l),
(284,796,l),
(333,810,l),
(284,824,l)
);
},
{
closed = 1;
nodes = (
(162,733,o),
(167,738,o),
(167,744,cs),
(167,750,o),
(162,755,o),
(156,755,cs),
(150,755,o),
(145,750,o),
(145,744,cs),
(145,738,o),
(150,733,o),
(156,733,cs)
);
}
);
vertWidth = 0;
width = 559;
},
{
layerId = m002;
shapes = (
{
closed = 1;
nodes = (
(423.2,-7.6,ls),
(465,-8,o),
(489.6,19.2,o),
(489.6,51.2,cs),
(489.6,86,o),
(463,114,o),
(423.2,114.4,cs),
(200.8,114.4,l),
(157.2,110,l),
(582,680.4,ls),
(617,727,o),
(585,784,o),
(530,783.6,cs),
(154,783.6,ls),
(115,784,o),
(87.6,756,o),
(87.6,721.2,cs),
(87.6,689.2,o),
(112,662,o),
(154,661.6,cs),
(367.2,661.6,l),
(411.2,664.4,l),
(-16,94.4,ls),
(-52,46,o),
(-12,-8,o),
(29.2,-7.6,cs)
);
},
{
closed = 1;
nodes = (
(-3,8,o),
(-32,48,o),
(-4,85.6,cs),
(435.6,672,ls),
(440,677,o),
(437,681,o),
(430.8,680.8,cs),
(366.8,676.4,l),
(154,676.4,ls),
(120,676,o),
(102.4,696,o),
(102.4,721.2,cs),
(102.4,748.8,o),
(122,768,o),
(154,768.4,cs),
(530,768.4,ls),
(575,768,o),
(598,727,o),
(570,689.6,cs),
(132.4,102,ls),
(128,97,o),
(131,93,o),
(137.2,93.2,cs),
(201.2,99.6,l),
(423.2,99.6,ls),
(456,100,o),
(474.4,79.2,o),
(474.4,51.2,cs),
(474.4,26,o),
(458,8,o),
(423.2,7.6,cs),
(29.2,7.6,ls)
);
},
{
closed = 1;
nodes = (
(275,822,l),
(146,822,l),
(146,809,l),
(275,809,l),
(275,800,l),
(324,815,l),
(275,831,l)
);
},
{
closed = 1;
nodes = (
(145,725,o),
(150,730,o),
(150,736,cs),
(150,742,o),
(145,747,o),
(139,747,cs),
(133,747,o),
(128,742,o),
(128,736,cs),
(128,730,o),
(133,725,o),
(139,725,cs)
);
}
);
vertWidth = 0;
width = 563;
}
);
unicode = 90;
},
{
glyphname = A.ss01;
layers = (
{
layerId = m01;
shapes = (
{
closed = 1;
nodes = (
(35,-7,o),
(42,4,o),
(54,27,cs),
(221,354,l),
(388,354,l),
(414,28,l),
(416,16,o),
(420,-7,o),
(452,-7,cs),
(479,-7,o),
(489,10,o),
(487,32,cs),
(425,750,ls),
(424,766,o),
(412,779,o),
(389,780,cs),
(366,780,o),
(359,770,o),
(347,746,cs),
(-20,41,ls),
(-35,11,o),
(-16,-7,o),
(7,-7,cs)
);
},
{
closed = 1;
nodes = (
(-8,8,o),
(-16,16,o),
(-6,35,cs),
(361,740,ls),
(367,752,o),
(372,765,o),
(389,765,cs),
(405,764,o),
(410,759,o),
(411,750,cs),
(473,30,ls),
(474,15,o),
(470,8,o),
(452,8,cs),
(432,8,o),
(430,18,o),
(428,30,c),
(403,361,ls),
(402,366,o),
(400,368,o),
(395,368,cs),
(218,368,ls),
(214,368,o),
(211,367,o),
(209,363,cs),
(40,33,ls),
(30,12,o),
(27,8,o),
(7,8,cs)
);
},
{
closed = 1;
nodes = (
(345,596,l),
(369,649,l),
(369,594,l),
(382,420,l),
(254,420,l)
);
},
{
closed = 1;
nodes = (
(390,404,ls),
(395,404,o),
(398,407,o),
(397,412,cs),
(383,594,l),
(384,677,ls),
(384,682,o),
(382,686,o),
(377,685,cs),
(376,686,ls),
(371,686,o),
(368,685,o),
(366,681,cs),
(331,602,l),
(234,413,ls),
(231,408,o),
(234,404,o),
(240,404,cs)
);
}
);
vertWidth = 0;
width = 584;
},
{
layerId = m002;
shapes = (
{
closed = 1;
nodes = (
(71.2,-7.6,o),
(92.4,4,o),
(108.8,35.6,cs),
(234.4,282.4,l),
(397.2,282.4,l),
(416.4,47.6,ls),
(418.8,14.8,o),
(442.4,-7.6,o),
(482,-7.6,cs),
(519.6,-7.6,o),
(546.8,13.6,o),
(543.6,55.6,cs),
(486.4,716.8,ls),
(482,758,o),
(452.4,779.6,o),
(412,779.6,cs),
(370,779.6,o),
(343.2,759.2,o),
(330.4,735.6,cs),
(-13.6,74.4,ls),
(-39.6,27.2,o),
(-4,-7.6,o),
(37.2,-7.6,cs)
);
},
{
closed = 1;
nodes = (
(4,7.6,o),
(-20.8,30.4,o),
(-0.4,67.6,cs),
(343.6,728.4,ls),
(354.8,748.8,o),
(375.6,764.4,o),
(412,764.4,cs),
(446.4,764.4,o),
(468,748.8,o),
(471.6,715.2,cs),
(528.4,54.4,ls),
(531.2,21.6,o),
(513.6,7.6,o),
(482,7.6,cs),
(448.8,7.6,o),
(433.2,22.4,o),
(431.6,48.4,cs),
(411.2,290.4,ls),
(411.2,295.2,o),
(408.4,297.6,o),
(403.6,297.6,cs),
(231.6,297.6,ls),
(227.6,297.6,o),
(224.8,296,o),
(222.8,292,cs),
(95.2,42.4,ls),
(81.2,15.6,o),
(67.2,7.6,o),
(37.2,7.6,cs)
);
},
{
closed = 1;
nodes = (
(360,530,l),
(378,576.4,l),
(376.4,532,l),
(388,398.4,l),
(293.2,398.4,l)
);
},
{
closed = 1;
nodes = (
(396,383.6,ls),
(401.2,383.6,o),
(403.6,386.4,o),
(403.2,391.6,cs),
(391.6,532,l),
(394,612.8,ls),
(394.4,617.2,o),
(392,620,o),
(387.6,621.2,cs),
(386.8,621.2,ls),
(382.4,622.4,o),
(379.2,620.8,o),
(377.6,616.4,cs),
(346,536,l),
(273.2,392.4,ls),
(270.8,387.2,o),
(272.8,383.6,o),
(278.8,383.6,cs)
);
}
);
vertWidth = 0;
width = 630;
},
{
associatedMasterId = m01;
layerId = "48DF87F4-C72F-4FC9-8329-4E8255600EC0";
name = background;
shapes = (
{
closed = 1;
nodes = (
(409,743,l),
(413,758,o),
(404,772,o),
(381,772,cs),
(355,772,o),
(354,759,o),
(346,743,cs),
(-21,38,ls),
(-33,14,o),
(-19,0,o),
(-1,0,cs),
(23,0,o),
(29,8,o),
(39,30,cs),
(406,735,l)
);
},
{
closed = 1;
nodes = (
(415,361,l),
(409,416,l),
(208,416,l),
(182,361,l)
);
},
{
closed = 1;
nodes = (
(354,728,l),
(413,29,ls),
(415,17,o),
(418,0,o),
(444,0,c),
(466,0,o),
(473,13,o),
(472,31,cs),
(410,754,l)
);
}
);
vertWidth = 0;
width = 594;
}
);
},
{
glyphname = B.ss01;
kernLeft = H_left;
layers = (
{
layerId = m01;
shapes = (
{
closed = 1;
nodes = (
(385,-6,o),
(484,58,o),
(503,193,cs),
(517,283,o),
(467,356,o),
(366,396,c),
(500,422,o),
(536,477,o),
(547,566,cs),
(567,712,o),
(440,780,o),
(182,780,cs),
(157,780,o),
(145,769,o),
(140,741,cs),
(17,38,ls),
(12,16,o),
(23,-7,o),
(51,-7,cs)
);
},
{
closed = 1;
nodes = (
(297,48,o),
(430,79,o),
(445,200,cs),
(459,298,o),
(364,384,o),
(145,388,cs),
(140,388,o),
(137,385,o),
(137,381,cs),
(80,56,ls),
(79,51,o),
(81,48,o),
(87,48,cs)
);
},
{
closed = 1;
nodes = (
(150,372,l),
(359,368,o),
(443,289,o),
(431,202,cs),
(416,94,o),
(299,64,o),
(96,63,c)
);
},
{
closed = 1;
nodes = (
(34,8,o),
(28,19,o),
(31,36,cs),
(154,739,ls),
(159,760,o),
(164,765,o),
(182,765,cs),
(435,765,o),
(551,703,o),
(533,568,cs),
(521,479,o),
(487,430,o),
(342,407,cs),
(333,406,o),
(331,393,o),
(340,390,cs),
(451,353,o),
(502,284,o),
(489,195,cs),
(470,68,o),
(380,8,o),
(51,7,cs)
);
},
{
closed = 1;
nodes = (
(432,419,o),
(476,470,o),
(488,568,cs),
(502,681,o),
(388,723,o),
(205,726,cs),
(200,726,o),
(197,723,o),
(197,719,cs),
(144,427,ls),
(144,421,o),
(146,418,o),
(152,418,cs)
);
},
{
closed = 1;
nodes = (
(210,710,l),
(386,708,o),
(486,669,o),
(474,570,cs),
(462,479,o),
(424,435,o),
(161,434,c)
);
}
);
vertWidth = 0;
width = 579;
},
{
layerId = m002;
shapes = (
{
closed = 1;
nodes = (
(431.6,-7.6,o),
(556.8,24.4,o),
(577.6,178,cs),
(588,257.6,o),
(554.8,318,o),
(494.8,360,c),
(597.6,398,o),
(631.6,463.2,o),
(643.6,548,cs),
(665.2,714.8,o),
(513.6,779.6,o),
(206,779.6,cs),
(176,779.6,o),
(147.6,769.2,o),
(139.6,724.4,cs),
(23.6,64.4,ls),
(16.8,23.6,o),
(46.8,-7.6,o),
(82,-7.6,cs)
);
},
{
closed = 1;
nodes = (
(374.4,103.6,o),
(450.4,130,o),
(460.4,198.8,cs),
(473.6,288,o),
(394.4,333.2,o),
(200,336.4,cs),
(195.2,336.4,o),
(192.4,334,o),
(191.6,329.6,cs),
(152.8,107.2,ls),
(151.6,102.4,o),
(154.4,99.2,o),
(160,99.2,cs)
);
},
{
closed = 1;
nodes = (
(205.2,321.2,l),
(390.4,317.6,o),
(456.8,278,o),
(445.6,201.2,cs),
(437.2,143.2,o),
(372.4,119.2,o),
(168.8,114.8,c)
);
},
{
closed = 1;
nodes = (
(54,7.6,o),
(33.2,29.6,o),
(38.4,61.6,cs),
(154.4,721.6,ls),
(160.8,757.6,o),
(179.2,764.4,o),
(206,764.4,cs),
(509.6,764.4,o),
(648.8,704.4,o),
(628.4,550,cs),
(616.4,463.2,o),
(582.8,402.4,o),
(470.8,367.6,cs),
(464.8,365.6,o),
(464,361.2,o),
(469.6,358,cs),
(537.2,318,o),
(573.6,261.2,o),
(562.4,180,cs),
(543.2,37.2,o),
(429.2,7.6,o),
(82,7.6,cs)
);
},
{
closed = 1;
nodes = (
(494.8,420.8,o),
(515.2,489.2,o),
(524.4,554,cs),
(533.2,625.6,o),
(477.2,665.2,o),
(259.2,671.6,cs),
(254,671.6,o),
(251.2,669.2,o),
(250.4,664.8,cs),
(208.8,425.6,ls),
(207.6,420.8,o),
(210.4,417.6,o),
(216,417.6,cs)
);
},
{
closed = 1;
nodes = (
(264.4,656.4,l),
(470.4,650,o),
(516.8,616.8,o),
(509.6,556,cs),
(500.8,494.4,o),
(482.8,436.8,o),
(224.8,432.8,c)
);
}
);
vertWidth = 0;
width = 670;
},
{
associatedMasterId = m01;
layerId = "C390BF64-4B74-44D2-936D-D44319E19B75";
name = background;
shapes = (
{
closed = 1;
nodes = (
(472,361,o),
(539,436,o),
(557,564,cs),
(576,704,o),
(430,772,o),
(175,772,c),
(185,718,l),
(373,718,o),
(512,675,o),
(498,567,cs),
(486,481,o),
(438,416,o),
(133,416,c),
(124,361,l)
);
},
{
closed = 1;
nodes = (
(373,0,o),
(470,42,o),
(488,171,cs),
(508,321,o),
(366,416,o),
(128,416,c),
(120,361,l),
(334,361,o),
(444,284,o),
(430,179,cs),
(416,74,o),
(285,55,o),
(69,55,c),
(39,0,l)
);
},
{
closed = 1;
nodes = (
(204,762,o),
(197,772,o),
(175,772,cs),
(154,772,o),
(145,764,o),
(140,740,cs),
(17,37,ls),
(13,17,o),
(25,0,o),
(45,0,cs),
(62,0,o),
(71,11,o),
(76,34,cs),
(200,735,ls)
);
}
);
vertWidth = 0;
width = 594;
}
);
},
{
glyphname = C.ss01;
kernLeft = O_left;
layers = (
{
layerId = m01;
shapes = (
{
closed = 1;
nodes = (
(308,-12,o),
(400,49,o),
(499,197,cs),
(525,236,o),
(527,244,o),
(527,252,cs),
(527,270,o),
(511,284,o),
(493,284,cs),
(470,284,o),
(458,270,o),
(438,239,cs),
(346,108,o),
(280,63,o),
(209,63,cs),
(140,63,o),
(125,119,o),
(125,163,cs),
(125,248,o),
(148,367,o),
(156,414,cs),
(184,554,o),
(225,706,o),
(501,706,cs),
(577,706,o),
(586,707,o),
(599,714,cs),
(616,724,o),
(619,757,o),
(601,769,cs),
(590,777,o),
(577,780,o),
(502,780,cs),
(172,780,o),
(113,594,o),
(79,403,cs),
(75,379,o),
(51,242,o),
(51,164,cs),
(51,81,o),
(88,-12,o),
(210,-12,cs)
);
},
{
closed = 1;
nodes = (
(99,3,o),
(66,84,o),
(66,164,cs),
(66,240,o),
(89,377,o),
(93,401,cs),
(127,590,o),
(183,765,o),
(502,765,cs),
(575,765,o),
(584,763,o),
(593,757,cs),
(602,750,o),
(601,733,o),
(591,728,cs),
(580,721,o),
(575,721,o),
(501,721,cs),
(213,721,o),
(170,558,o),
(142,416,cs),
(134,369,o),
(110,250,o),
(110,163,cs),
(110,117,o),
(128,48,o),
(209,48,cs),
(285,48,o),
(356,97,o),
(450,231,cs),
(470,260,o),
(477,269,o),
(493,269,cs),
(504,269,o),
(512,262,o),
(512,252,cs),
(512,246,o),
(511,241,o),
(487,205,cs),
(390,60,o),
(303,3,o),
(210,3,cs)
);
}
);
vertWidth = 0;
width = 588;
},
{
layerId = m002;
shapes = (
{
closed = 1;
nodes = (
(336.4,-12.4,o),
(450.8,50,o),
(547.2,192.8,cs),
(576.4,236.4,o),
(577.6,248.4,o),
(577.6,260,cs),
(577.6,293.6,o),
(547.2,315.6,o),
(516,315.6,cs),
(485.2,315.6,o),
(467.6,300.4,o),
(440.8,263.2,cs),
(356.8,142.8,o),
(296,108.4,o),
(239.2,108.4,cs),
(199.6,108.4,o),
(177.6,136.4,o),
(177.6,176,cs),
(177.6,253.2,o),
(198.4,364.8,o),
(205.2,405.6,cs),
(230.4,536.8,o),
(277.2,658.4,o),
(514,658.4,cs),
(580.4,658.4,o),
(613.2,661.6,o),
(630.8,671.6,cs),
(666.4,693.2,o),
(670,742.8,o),
(635.2,768.4,cs),
(617.2,779.6,o),
(582,779.6,o),
(516,779.6,cs),
(182.8,779.6,o),
(102,589.6,o),
(69.6,406.4,cs),
(64.8,382.4,o),
(43.6,252.8,o),
(43.6,177.2,cs),
(43.6,92.4,o),
(91.2,-12.4,o),
(232,-12.4,cs)
);
},
{
closed = 1;
nodes = (
(102,2.4,o),
(58.4,96.8,o),
(58.4,177.2,cs),
(58.4,251.2,o),
(79.2,379.6,o),
(84.4,403.6,cs),
(116.4,584.8,o),
(192.8,764.4,o),
(516,764.4,cs),
(582,764.4,o),
(612.8,764.4,o),
(626.8,755.6,cs),
(653.2,736.4,o),
(650.8,701.2,o),
(623.2,684.4,cs),
(608.8,676.4,o),
(579.6,673.6,o),
(514,673.6,cs),
(266.4,673.6,o),
(216,541.6,o),
(190.8,408.4,cs),
(183.6,367.2,o),
(162.4,254.8,o),
(162.4,176,cs),
(162.4,130.8,o),
(191.6,93.6,o),
(239.2,93.6,cs),
(300.4,93.6,o),
(366.8,130.8,o),
(453.2,254.8,cs),
(478.4,290,o),
(490.8,300.4,o),
(516,300.4,cs),
(541.6,300.4,o),
(562.4,285.2,o),
(562.4,260,cs),
(562.4,249.2,o),
(561.6,241.6,o),
(534.8,201.2,cs),
(440.8,61.6,o),
(332,2.4,o),
(232,2.4,cs)
);
}
);
vertWidth = 0;
width = 647;
}
);
},
{
glyphname = D.ss01;
kernLeft = H_left;
kernRight = O_right;
layers = (
{
layerId = m01;
shapes = (
{
closed = 1;
nodes = (
(126,-7,ls),
(358,-7,o),
(521,140,o),
(556,408,cs),
(588,649,o),
(448,780,o),
(224,780,cs),
(183,780,ls),
(152,780,o),
(144,762,o),
(140,741,cs),
(15,33,ls),
(11,11,o),
(23,-7,o),
(50,-7,cs)
);
},
{
closed = 1;
nodes = (
(126,48,ls),
(322,48,o),
(468,172,o),
(496,416,cs),
(520,612,o),
(413,717,o),
(227,717,cs),
(203,716,ls),
(198,716,o),
(195,714,o),
(195,710,cs),
(80,56,ls),
(79,51,o),
(81,48,o),
(86,48,cs)
);
},
{
closed = 1;
nodes = (
(208,702,l),
(227,702,ls),
(406,702,o),
(504,605,o),
(482,418,cs),
(454,181,o),
(315,63,o),
(126,63,cs),
(96,63,l)
);
},
{
closed = 1;
nodes = (
(32,8,o),
(27,16,o),
(29,31,cs),
(154,739,ls),
(158,757,o),
(162,765,o),
(183,765,cs),
(224,765,ls),
(441,765,o),
(572,642,o),
(542,410,cs),
(507,149,o),
(351,8,o),
(126,8,cs),
(50,8,ls)
);
}
);
vertWidth = 0;
width = 609;
},
{
layerId = m002;
shapes = (
{
closed = 1;
nodes = (
(177.2,-7.6,ls),
(409.6,-7.6,o),
(584,148.4,o),
(620.4,416,cs),
(648,624.4,o),
(501.2,779.6,o),
(268,779.6,cs),
(209.2,779.6,ls),
(168.4,779.6,o),
(147.2,760.4,o),
(141.6,724.4,cs),
(23.6,59.2,ls),
(16.8,22.8,o),
(43.6,-6.4,o),
(84,-7.6,cs)
);
},
{
closed = 1;
nodes = (
(177.2,98.4,ls),
(350.4,98.4,o),
(476.8,205.2,o),
(505.6,415.2,cs),
(524.8,565.2,o),
(442.8,673.6,o),
(274,673.6,cs),
(259.6,673.6,ls),
(255.2,673.6,o),
(252.4,671.2,o),
(251.6,666.8,cs),
(152.8,106.4,ls),
(151.6,101.6,o),
(154.4,98.4,o),
(159.6,98.4,cs)
);
},
{
closed = 1;
nodes = (
(265.2,658.4,l),
(274,658.4,ls),
(434.4,658.4,o),
(509.2,560,o),
(490.4,416.8,cs),
(462.8,214,o),
(344.4,113.6,o),
(177.2,113.6,cs),
(168.8,113.6,l)
);
},
{
closed = 1;
nodes = (
(51.2,8.4,o),
(33.2,28.4,o),
(38.4,56.8,cs),
(156.4,721.6,ls),
(161.2,752,o),
(174.8,764.4,o),
(209.2,764.4,cs),
(268,764.4,ls),
(493.6,764.4,o),
(632,618.4,o),
(605.6,418,cs),
(570,156.8,o),
(403.2,7.6,o),
(177.2,7.6,cs),
(84,7.6,ls)
);
}
);
vertWidth = 0;
width = 672;
}
);
},
{
glyphname = E.ss01;
kernLeft = H_left;
layers = (
{
layerId = m01;
shapes = (
{
closed = 1;
nodes = (
(418,-7,ls),
(447,-7,o),
(457,11,o),
(457,29,cs),
(457,46,o),
(447,63,o),
(418,63,cs),
(96,63,l),
(147,354,l),
(442,354,ls),
(471,354,o),
(481,371,o),
(481,388,cs),
(481,406,o),
(471,424,o),
(442,424,cs),
(160,424,l),
(210,711,l),
(539,711,ls),
(568,711,o),
(578,728,o),
(578,745,cs),
(578,762,o),
(568,780,o),
(539,780,cs),
(183,780,ls),
(152,780,o),
(144,762,o),
(140,741,cs),
(15,33,ls),
(11,11,o),
(23,-7,o),
(50,-7,cs)
);
},
{
closed = 1;
nodes = (
(32,8,o),
(27,16,o),
(29,31,cs),
(154,739,ls),
(158,757,o),
(162,765,o),
(183,765,cs),
(539,765,ls),
(559,765,o),
(563,757,o),
(563,745,cs),
(563,733,o),
(559,726,o),
(539,726,cs),
(205,726,ls),
(200,726,o),
(197,723,o),
(197,719,cs),
(144,417,ls),
(143,411,o),
(145,408,o),
(150,408,cs),
(442,409,ls),
(462,409,o),
(466,401,o),
(466,388,cs),
(466,376,o),
(462,369,o),
(442,369,cs),
(141,368,ls),
(137,368,o),
(134,366,o),
(133,362,cs),
(80,56,ls),
(79,51,o),
(81,48,o),
(86,48,cs),
(418,48,ls),
(438,48,o),
(442,41,o),
(442,29,cs),
(442,16,o),
(437,8,o),
(418,8,cs),
(50,8,ls)
);
}
);
vertWidth = 0;
width = 533;
},
{
layerId = m002;
shapes = (
{
closed = 1;
nodes = (
(487.2,-7.6,ls),
(527.2,-7.6,o),
(553.6,18.8,o),
(553.6,59.2,cs),
(553.6,98,o),
(531.2,120.4,o),
(489.2,120.4,cs),
(168.8,120.4,l),
(202.4,308.4,l),
(508,308.4,ls),
(550,308.4,o),
(580.4,336.8,o),
(580.4,371.2,cs),
(580.4,408.4,o),
(554,432.4,o),
(514,432.4,cs),
(224,432.4,l),
(262.4,651.6,l),
(605.2,651.6,ls),
(644.4,651.6,o),
(672.4,685.6,o),
(672.4,720,cs),
(672.4,754,o),
(648.4,779.6,o),
(607.2,779.6,cs),
(211.2,779.6,ls),
(172,779.6,o),
(147.2,764.4,o),
(141.6,727.2,cs),
(23.6,60.4,ls),
(16.8,23.6,o),
(33.6,-7.6,o),
(75.2,-7.6,cs)
);
},
{
closed = 1;
nodes = (
(43.6,7.6,o),
(32.8,27.2,o),
(38.4,57.6,cs),
(156.4,724.8,ls),
(160.8,754.4,o),
(177.2,764.4,o),
(211.2,764.4,cs),
(607.2,764.4,ls),
(640.8,764.4,o),
(657.6,746.8,o),
(657.6,720,cs),
(657.6,691.6,o),
(636.4,666.4,o),
(605.2,666.4,cs),
(256.4,666.4,ls),
(252,666.4,o),
(249.2,664,o),
(248.4,659.6,cs),
(207.6,425.6,ls),
(206.4,420.4,o),
(209.2,417.6,o),
(214.4,417.6,cs),
(514,417.6,ls),
(547.2,417.6,o),
(565.6,400.8,o),
(565.6,371.2,cs),
(565.6,344.4,o),
(543.2,323.6,o),
(508,323.6,cs),
(196.4,323.6,ls),
(192,323.6,o),
(189.2,321.2,o),
(188.4,316.8,cs),
(152.8,113.6,ls),
(151.6,108.8,o),
(154.4,105.6,o),
(159.6,105.6,cs),
(489.2,105.6,ls),
(524,105.6,o),
(538.4,90.8,o),
(538.4,59.2,cs),
(538.4,26,o),
(520,7.6,o),
(487.2,7.6,cs),
(75.2,7.6,ls)
);
}
);
vertWidth = 0;
width = 646;
},
{
associatedMasterId = m01;
layerId = "7D81A9B3-6763-4C6E-8CF8-C1959E1CDD3E";
name = background;
shapes = (
{
closed = 1;
nodes = (
(203,757,o),
(201,772,o),
(176,772,cs),
(150,772,o),
(144,759,o),
(140,740,c),
(15,32,l),
(12,14,o),
(21,0,o),
(43,0,cs),
(69,0,o),
(74,18,o),
(76,30,c),
(200,735,l)
);
},
{
closed = 1;
nodes = (
(441,0,ls),
(465,0,o),
(472,17,o),
(472,31,cs),
(472,45,o),
(465,59,o),
(441,59,cs),
(53,59,l),
(44,0,l)
);
},
{
closed = 1;
nodes = (
(472,361,ls),
(495,361,o),
(503,374,o),
(503,388,cs),
(503,403,o),
(495,416,o),
(472,416,cs),
(110,416,l),
(101,361,l)
);
},
{
closed = 1;
nodes = (
(569,713,ls),
(593,713,o),
(600,728,o),
(600,743,cs),
(600,757,o),
(593,772,o),
(569,772,cs),
(181,772,l),
(170,713,l)
);
}
);
vertWidth = 0;
width = 594;
},
{
associatedMasterId = m002;
layerId = "BD7EF2B7-F3AE-423E-98C0-14594FE969C3";
name = background;
shapes = (
{
closed = 1;
nodes = (
(25,26,o),
(39,0,o),
(75,0,cs),
(113,0,o),
(146,21,o),
(151,48,cs),
(267,709,ls),
(276,758,o),
(245,772,o),
(211,772,cs),
(175,772,o),
(154,759,o),
(149,726,cs),
(31,59,ls)
);
},
{
closed = 1;
nodes = (
(546,78,o),
(527,95,o),
(489,95,cs),
(100,95,l),
(83,0,l),
(487,0,ls),
(523,0,o),
(546,19,o),
(546,50,cs)
);
},
{
closed = 1;
nodes = (
(573,397,o),
(550,416,o),
(514,416,cs),
(157,416,l),
(138,315,l),
(508,315,ls),
(546,315,o),
(573,337,o),
(573,366,cs)
);
},
{
closed = 1;
nodes = (
(665,750,o),
(644,772,o),
(607,772,cs),
(220,772,l),
(201,659,l),
(605,659,ls),
(640,659,o),
(665,689,o),
(665,720,cs)
);
}
);
vertWidth = 0;
width = 594;
}
);
},
{
glyphname = F.ss01;
kernLeft = H_left;
layers = (
{
layerId = m01;
shapes = (
{
closed = 1;
nodes = (
(82,-7,o),
(88,16,o),
(90,29,cs),
(147,354,l),
(437,354,ls),
(466,354,o),
(476,371,o),
(476,388,cs),
(476,406,o),
(466,424,o),
(437,424,cs),
(160,424,l),
(210,711,l),
(526,711,ls),
(555,711,o),
(565,728,o),
(565,745,cs),
(565,762,o),
(555,780,o),
(526,780,cs),
(183,780,ls),
(152,780,o),
(144,762,o),
(140,741,cs),
(15,33,ls),
(11,11,o),
(23,-7,o),
(50,-7,cs)
);
},
{
closed = 1;
nodes = (
(32,8,o),
(27,16,o),
(29,31,cs),
(154,739,ls),
(158,757,o),
(162,765,o),
(183,765,cs),
(526,765,ls),
(546,765,o),
(550,757,o),
(550,745,cs),
(550,733,o),
(546,726,o),
(526,726,cs),
(205,726,ls),
(200,726,o),
(197,723,o),
(197,719,cs),
(144,417,ls),
(143,411,o),
(145,408,o),
(150,408,cs),
(437,409,ls),
(457,409,o),
(461,401,o),
(461,388,cs),
(461,376,o),
(457,369,o),
(437,369,cs),
(141,368,ls),
(137,368,o),
(134,366,o),
(133,362,cs),
(76,31,ls),
(74,20,o),
(70,8,o),
(50,8,cs)
);
}
);
vertWidth = 0;
width = 515;
},
{
layerId = m002;
shapes = (
{
closed = 1;
nodes = (
(122.8,-7.6,o),
(152,20.4,o),
(158.4,59.6,cs),
(202.4,307.6,l),
(503.2,307.6,ls),
(545.2,307.6,o),
(568.4,333.2,o),
(568.4,366,cs),
(568.4,400,o),
(547.6,430.4,o),
(505.2,430.4,cs),
(224,430.4,l),
(262.4,651.6,l),
(589.2,651.6,ls),
(628.8,651.6,o),
(660.4,678.4,o),
(660.4,718,cs),
(660.4,755.2,o),
(636,779.6,o),
(595.2,779.6,cs),
(209.2,779.6,ls),
(168.8,779.6,o),
(147.2,762.8,o),
(141.6,726.4,cs),
(24.8,65.2,ls),
(18,30.8,o),
(29.6,-7.6,o),
(74,-7.6,cs)
);
},
{
closed = 1;
nodes = (
(41.6,7.6,o),
(33.6,32.4,o),
(39.2,62.8,cs),
(156.4,723.6,ls),
(160.8,754,o),
(174.4,764.4,o),
(209.2,764.4,cs),
(595.2,764.4,ls),
(628.8,764.4,o),
(645.6,748,o),
(645.6,718,cs),
(645.6,686.4,o),
(622.4,666.4,o),
(589.2,666.4,cs),
(256.4,666.4,ls),
(252,666.4,o),
(249.2,664,o),
(248.4,659.6,cs),
(207.6,423.6,ls),
(206.4,418.4,o),
(209.2,415.6,o),
(214.4,415.6,cs),
(505.2,415.6,ls),
(539.2,415.6,o),
(553.6,394.8,o),
(553.6,366,cs),
(553.6,340,o),
(537.6,322.4,o),
(503.2,322.4,cs),
(196.4,322.4,ls),
(192,322.4,o),
(189.2,320,o),
(188.4,315.6,cs),
(143.6,62.4,ls),
(138,28.8,o),
(116,7.6,o),
(74,7.6,cs)
);
}
);
vertWidth = 0;
width = 634;
},
{
associatedMasterId = m01;
layerId = "F9C33966-9A92-4AEC-87C7-153E19327B3B";
name = background;
shapes = (
{
closed = 1;
nodes = (
(203,757,o),
(201,772,o),
(176,772,cs),
(150,772,o),
(144,759,o),
(140,740,cs),
(15,32,ls),
(12,14,o),
(21,0,o),
(43,0,cs),
(69,0,o),
(74,18,o),
(76,30,cs),
(200,735,ls)
);
},
{
closed = 1;
nodes = (
(470,361,ls),
(494,361,o),
(501,374,o),
(501,388,cs),
(501,403,o),
(494,416,o),
(470,416,cs),
(119,416,l),
(110,361,l)
);
},
{
closed = 1;
nodes = (
(569,713,ls),
(593,713,o),
(600,728,o),
(600,743,cs),
(600,757,o),
(593,772,o),
(569,772,cs),
(177,772,l),
(169,713,l)
);
}
);
vertWidth = 0;
width = 594;
}
);
},
{
glyphname = G.ss01;
kernLeft = O_left;
layers = (
{
layerId = m01;
shapes = (
{
closed = 1;
nodes = (
(260,-12,o),
(356,96,o),
(447,225,c),
(413,33,ls),
(410,17,o),
(414,-6,o),
(445,-7,cs),
(479,-9,o),
(485,17,o),
(488,31,cs),
(550,383,ls),
(554,406,o),
(547,424,o),
(521,424,cs),
(490,424,o),
(475,398,o),
(459,376,cs),
(423,324,o),
(226,58,o),
(171,58,cs),
(134,58,o),
(125,107,o),
(125,160,cs),
(125,237,o),
(146,367,o),
(159,431,cs),
(184,554,o),
(234,711,o),
(509,711,cs),
(576,711,ls),
(598,711,o),
(614,725,o),
(614,745,cs),
(614,763,o),
(599,780,o),
(581,780,cs),
(511,780,ls),
(180,780,o),
(113,594,o),
(79,403,cs),
(75,379,o),
(51,242,o),
(51,166,cs),
(51,81,o),
(82,-12,o),
(167,-12,cs)
);
},
{
closed = 1;
nodes = (
(93,3,o),
(66,84,o),
(66,166,cs),
(66,240,o),
(89,377,o),
(93,401,cs),
(127,590,o),
(191,765,o),
(511,765,cs),
(581,765,ls),
(592,765,o),
(599,756,o),
(599,745,cs),
(599,732,o),
(591,726,o),
(576,726,cs),
(509,726,ls),
(222,726,o),
(170,558,o),
(145,433,cs),
(132,369,o),
(110,239,o),
(110,160,cs),
(110,105,o),
(121,43,o),
(171,43,cs),
(236,43,o),
(435,315,o),
(471,368,cs),
(487,390,o),
(498,409,o),
(521,409,cs),
(536,409,o),
(538,403,o),
(536,385,cs),
(474,33,ls),
(471,21,o),
(467,7,o),
(445,7,cs),
(427,8,o),
(426,18,o),
(427,31,cs),
(466,250,ls),
(467,255,o),
(465,258,o),
(461,259,c),
(460,260,l),
(456,262,o),
(453,261,o),
(450,257,cs),
(355,118,o),
(258,2,o),
(167,3,cs)
);
}
);
vertWidth = 0;
width = 614;
},
{
layerId = m002;
shapes = (
{
closed = 1;
nodes = (
(261.6,-12.4,o),
(338,61.2,o),
(404,147.2,c),
(388.8,59.2,ls),
(381.6,17.2,o),
(409.2,-7.6,o),
(454,-7.6,cs),
(500,-7.6,o),
(513.2,18,o),
(518.4,48.8,cs),
(576.4,378.8,ls),
(583.2,420,o),
(560.4,447.6,o),
(517.2,447.6,cs),
(470.8,447.6,o),
(460.8,431.2,o),
(392.8,326,cs),
(351.6,262,o),
(250,108.4,o),
(194,108.4,cs),
(181.2,108.4,o),
(175.6,135.6,o),
(175.6,184,cs),
(175.6,253.2,o),
(196.4,359.6,o),
(207.2,419.6,cs),
(227.2,533.2,o),
(271.2,658.4,o),
(508,658.4,cs),
(571.2,658.4,ls),
(608,658.4,o),
(635.6,686.8,o),
(635.6,721.2,cs),
(635.6,754.4,o),
(609.2,779.6,o),
(575.2,779.6,cs),
(510,779.6,ls),
(176.4,779.6,o),
(102,589.6,o),
(69.6,406.4,cs),
(64.8,382.4,o),
(43.6,252.8,o),
(43.6,179.2,cs),
(43.6,92.4,o),
(73.6,-12.4,o),
(179.2,-12.4,cs)
);
},
{
closed = 1;
nodes = (
(85.6,2.4,o),
(58.4,95.2,o),
(58.4,179.2,cs),
(58.4,251.2,o),
(79.2,379.6,o),
(84.4,403.6,cs),
(116.4,584.8,o),
(187.2,764.4,o),
(510,764.4,cs),
(575.2,764.4,ls),
(602,764.4,o),
(620.4,746.8,o),
(620.4,721.2,cs),
(620.4,694,o),
(600.8,673.6,o),
(571.2,673.6,cs),
(508,673.6,ls),
(260.4,673.6,o),
(212.8,537.2,o),
(192.8,422.4,cs),
(181.6,362.4,o),
(160.4,254.8,o),
(160.4,184,cs),
(160.4,133.2,o),
(168,93.6,o),
(194,93.6,cs),
(259.2,93.6,o),
(364.4,254,o),
(405.2,318,cs),
(473.2,422.8,o),
(479.2,432.4,o),
(517.2,432.4,cs),
(552.4,432.4,o),
(567.2,414.8,o),
(561.6,381.2,cs),
(503.6,51.2,ls),
(498.8,23.6,o),
(490.4,7.6,o),
(454,7.6,cs),
(416,7.6,o),
(398,24,o),
(403.2,56.8,cs),
(423.2,169.2,ls),
(424,173.6,o),
(422.4,176.4,o),
(418.4,178.4,cs),
(416.8,178.8,ls),
(412.8,180.8,o),
(409.6,180,o),
(406.8,176,cs),
(338,82.4,o),
(261.2,2.4,o),
(179.2,2.4,cs)
);
}
);
vertWidth = 0;
width = 624;
}
);
},
{
glyphname = H.ss01;
kernLeft = H_left;
kernRight = H_right;
layers = (
{
layerId = m01;
shapes = (
{
closed = 1;
nodes = (
(82,-7,o),
(88,16,o),
(90,29,cs),
(147,354,l),
(470,354,l),
(415,33,ls),
(411,18,o),
(415,-7,o),
(449,-7,cs),
(477,-7,o),
(486,12,o),
(488,25,cs),
(613,737,ls),
(617,760,o),
(608,780,o),
(578,780,cs),
(552,780,o),
(542,761,o),
(539,748,c),
(483,424,l),
(160,424,l),
(214,734,ls),
(218,759,o),
(209,780,o),
(183,780,cs),
(155,780,o),
(144,763,o),
(140,741,cs),
(15,33,ls),
(11,11,o),
(23,-7,o),
(50,-7,cs)
);
},
{
closed = 1;
nodes = (
(32,8,o),
(27,16,o),
(29,31,cs),
(154,739,ls),
(158,756,o),
(164,765,o),
(183,765,cs),
(198,765,o),
(202,756,o),
(200,736,cs),
(144,417,ls),
(143,411,o),
(145,408,o),
(150,408,cs),
(488,408,ls),
(493,408,o),
(496,411,o),
(497,415,cs),
(553,744,l),
(556,755,o),
(561,765,o),
(578,765,cs),
(597,765,o),
(601,757,o),
(599,739,cs),
(474,27,ls),
(472,17,o),
(467,8,o),
(449,8,cs),
(428,8,o),
(427,18,o),
(429,31,cs),
(486,360,ls),
(487,365,o),
(485,368,o),
(480,368,cs),
(141,368,ls),
(137,368,o),
(134,366,o),
(133,362,cs),
(76,31,ls),
(74,20,o),
(70,8,o),
(50,8,cs)
);
}
);
vertWidth = 0;
width = 628;
},
{
layerId = m002;
shapes = (
{
closed = 1;
nodes = (
(131.6,-7.6,o),
(152.8,20,o),
(157.2,46.8,cs),
(204.4,318.4,l),
(466,318.4,l),
(421.6,59.2,ls),
(414.8,20.8,o),
(438.4,-7.6,o),
(482,-7.6,cs),
(520.4,-7.6,o),
(548.8,15.2,o),
(553.2,42.8,cs),
(670.4,710.8,ls),
(678.4,754,o),
(648.8,779.6,o),
(608,779.6,cs),
(571.6,779.6,o),
(543.2,759.2,o),
(537.6,729.2,cs),
(487.6,439.6,l),
(226,439.6,l),
(272.4,707.6,ls),
(280,754.4,o),
(255.2,779.6,o),
(216,779.6,cs),
(181.6,779.6,o),
(146.4,762.8,o),
(139.6,724.4,cs),
(23.6,59.2,ls),
(16.8,21.6,o),
(44.8,-7.6,o),
(87.2,-7.6,cs)
);
},
{
closed = 1;
nodes = (
(52,7.6,o),
(33.2,27.6,o),
(38.4,56.8,cs),
(154.4,721.6,ls),
(159.6,752,o),
(185.6,764.4,o),
(216,764.4,cs),
(248,764.4,o),
(264,748.4,o),
(257.6,710.4,cs),
(209.6,432.4,ls),
(208.4,427.2,o),
(211.2,424.4,o),
(216.4,424.4,cs),
(493.6,424.4,ls),
(498,424.4,o),
(500.8,426.8,o),
(501.6,431.2,cs),
(552.4,726.8,ls),
(556.8,749.6,o),
(577.6,764.4,o),
(608,764.4,cs),
(642,764.4,o),
(662,747.2,o),
(655.6,713.2,cs),
(538.8,45.2,ls),
(535.2,24,o),
(514.4,7.6,o),
(482,7.6,cs),
(446.4,7.6,o),
(430.8,26,o),
(436.4,56.8,cs),
(482.8,325.6,ls),
(483.6,330.8,o),
(480.8,333.6,o),
(475.6,333.6,cs),
(198.4,333.6,ls),
(194,333.6,o),
(191.2,331.2,o),
(190.4,326.8,cs),
(142.8,49.2,ls),
(138.8,27.2,o),
(123.2,7.6,o),
(87.2,7.6,cs)
);
}
);
vertWidth = 0;
width = 694;
}
);
},
{
glyphname = I.ss01;
layers = (
{
layerId = m01;
shapes = (
{
closed = 1;
nodes = (
(159,-7,ls),
(188,-7,o),
(198,10,o),
(198,27,cs),
(198,45,o),
(188,63,o),
(159,63,cs),
(152,63,l),
(265,711,l),
(287,711,ls),
(316,711,o),
(326,729,o),
(326,746,cs),
(326,763,o),
(316,780,o),
(287,780,cs),
(182,780,ls),
(153,780,o),
(144,763,o),
(144,746,cs),
(144,729,o),
(153,711,o),
(182,711,cs),
(190,711,l),
(76,63,l),
(53,63,ls),
(25,63,o),
(15,45,o),
(15,27,cs),
(15,10,o),
(25,-7,o),
(53,-7,cs)
);
},
{
closed = 1;
nodes = (
(34,8,o),
(30,15,o),
(30,27,cs),
(30,40,o),
(34,48,o),
(53,48,cs),
(81,48,ls),
(86,48,o),
(89,50,o),
(89,54,cs),
(206,717,ls),
(207,723,o),
(205,726,o),
(200,726,cs),
(182,726,ls),
(163,726,o),
(159,734,o),
(159,746,cs),
(159,758,o),
(162,765,o),
(182,765,cs),
(287,765,ls),
(307,765,o),
(311,758,o),
(311,746,cs),
(311,734,o),
(306,726,o),
(287,726,cs),
(259,726,ls),
(255,726,o),
(252,723,o),
(251,719,cs),
(136,56,ls),
(135,51,o),
(137,48,o),
(142,48,cs),
(159,48,ls),
(179,48,o),
(183,40,o),
(183,27,cs),
(183,15,o),
(179,8,o),
(159,8,cs),
(53,8,ls)
);
}
);
vertWidth = 0;
width = 332;
},
{
layerId = m002;
shapes = (
{
closed = 1;
nodes = (
(189.2,-7.6,ls),
(232,-8,o),
(248,14.4,o),
(253.2,44.8,cs),
(259,76,o),
(247,100,o),
(218,100,cs),
(215,100,l),
(312,670,l),
(314,670,ls),
(355,670,o),
(369,696,o),
(374.4,725.6,cs),
(380.4,760,o),
(356,780,o),
(324,779.6,cs),
(208,779.6,ls),
(167,780,o),
(147.2,760.4,o),
(142.8,728.4,cs),
(138,703,o),
(150,680,o),
(173,673,cs),
(177.6,671.6,l),
(79.6,100,l),
(76.4,99.6,ls),
(42,95,o),
(26,75.6,o),
(21.6,47.2,cs),
(15.6,14.4,o),
(39,-8,o),
(72,-7.6,cs)
);
},
{
closed = 1;
nodes = (
(46,8,o),
(32,20.8,o),
(36.4,44.8,cs),
(40,68.8,o),
(50.8,82,o),
(77.6,84.4,cs),
(86,85.2,ls),
(90,86,o),
(93,88,o),
(93.6,92.4,cs),
(193.2,675.2,ls),
(194,680,o),
(192,684,o),
(187.6,684.4,cs),
(183.6,685.2,ls),
(164,689,o),
(153.2,704.8,o),
(157.2,725.6,cs),
(161.2,752.4,o),
(174,764,o),
(208,764.4,cs),
(324,764.4,ls),
(349,764,o),
(364,752.8,o),
(359.6,728.4,cs),
(354.8,702,o),
(342,684,o),
(308,684.4,cs),
(306.4,684.4,ls),
(302,684,o),
(299,682,o),
(298.4,677.6,cs),
(198.4,93.6,ls),
(197,88,o),
(200,86,o),
(205.6,85.6,cs),
(210,85.6,ls),
(232,86,o),
(243.2,72,o),
(238.8,47.2,cs),
(234,21.2,o),
(224,8,o),
(189.2,7.6,cs),
(72,7.6,ls)
);
}
);
vertWidth = 0;
width = 387;
}
);
},
{
glyphname = J.ss01;
kernRight = H_right;
layers = (
{
background = {
shapes = (
{
closed = 1;
nodes = (
(360,738,l),
(292,358,ls),
(278,276,o),
(270,189,o),
(235,132,cs),
(214,95,o),
(181,70,o),
(132,64,cs),
(100,61,o),
(17,55,o),
(-12,55,cs),
(-26,55,o),
(-42,45,o),
(-42,29,cs),
(-42,11,o),
(-26,0,o),
(-12,0,cs),
(25,0,o),
(105,6,o),
(127,8,cs),
(210,19,o),
(254,55,o),
(284,102,cs),
(324,166,o),
(334,251,o),
(352,352,cs),
(421,738,l)
);
},
{
closed = 1;
nodes = (
(571,713,o),
(579,728,o),
(579,743,cs),
(579,757,o),
(571,772,o),
(548,772,cs),
(234,772,ls),
(210,772,o),
(203,757,o),
(203,743,cs),
(203,728,o),
(210,713,o),
(234,713,cs),
(548,713,ls)
);
}
);
};
layerId = m01;
shapes = (
{
closed = 1;
nodes = (
(20,-7,o),
(89,-6,o),
(111,-3,cs),
(248,13,o),
(297,97,o),
(334,304,cs),
(406,711,l),
(531,711,ls),
(560,711,o),
(570,728,o),
(570,745,cs),
(570,762,o),
(560,780,o),
(531,780,cs),
(217,780,ls),
(189,780,o),
(179,762,o),
(179,745,cs),
(179,728,o),
(189,711,o),
(217,711,cs),
(330,711,l),
(263,323,ls),
(234,162,o),
(207,76,o),
(105,65,cs),
(75,63,o),
(12,63,o),
(-17,63,cs),
(-34,63,o),
(-53,50,o),
(-53,29,cs),
(-53,6,o),
(-34,-7,o),
(-17,-7,cs)
);
},
{
closed = 1;
nodes = (
(-29,8,o),
(-38,15,o),
(-38,29,cs),
(-38,41,o),
(-29,48,o),
(-17,48,cs),
(12,48,o),
(75,48,o),
(107,51,cs),
(219,62,o),
(248,158,o),
(277,321,cs),
(346,717,ls),
(347,723,o),
(345,726,o),
(340,726,cs),
(217,726,ls),
(198,726,o),
(194,733,o),
(194,745,cs),
(194,757,o),
(198,765,o),
(217,765,cs),
(531,765,ls),
(551,765,o),
(555,757,o),
(555,745,cs),
(555,733,o),
(551,726,o),
(531,726,cs),
(401,726,ls),
(396,726,o),
(393,723,o),
(393,719,cs),
(320,306,ls),
(283,103,o),
(238,27,o),
(109,11,cs),
(87,8,o),
(20,8,o),
(-17,8,cs)
);
}
);
vertWidth = 0;
width = 509;
},
{
layerId = m002;
shapes = (
{
closed = 1;
nodes = (
(45.2,-7.6,o),
(135.6,-5.6,o),
(158,-2.4,cs),
(316.4,16,o),
(372,143.6,o),
(407.2,347.6,cs),
(460.4,651.6,l),
(577.2,651.6,ls),
(619.2,651.6,o),
(644.4,680,o),
(644.4,715.2,cs),
(644.4,752,o),
(618.4,779.6,o),
(579.2,779.6,cs),
(236,779.6,ls),
(195.6,779.6,o),
(169.6,750.8,o),
(169.6,715.2,cs),
(169.6,678,o),
(196,651.6,o),
(235.2,651.6,cs),
(324,651.6,l),
(275.6,365.2,ls),
(244.8,185.6,o),
(212.4,127.2,o),
(153.2,120.4,cs),
(125.2,116.4,o),
(34,114.4,o),
(10,114.4,cs),
(-22.4,114.4,o),
(-56.4,88.4,o),
(-56.4,53.2,cs),
(-56.4,16.4,o),
(-22,-7.6,o),
(10,-7.6,cs)
);
},
{
closed = 1;
nodes = (
(-16.8,7.6,o),
(-41.6,24.8,o),
(-41.6,53.2,cs),
(-41.6,80.4,o),
(-16.4,99.6,o),
(10,99.6,cs),
(34,99.6,o),
(126.8,101.6,o),
(154.8,105.6,cs),
(222.8,113.2,o),
(259.2,179.6,o),
(290.4,362.8,cs),
(340.8,658.4,ls),
(341.6,663.6,o),
(338.8,666.4,o),
(333.6,666.4,cs),
(235.2,666.4,ls),
(203.2,666.4,o),
(184.4,685.2,o),
(184.4,715.2,cs),
(184.4,744,o),
(203.2,764.4,o),
(236,764.4,cs),
(579.2,764.4,ls),
(610.8,764.4,o),
(629.6,744.8,o),
(629.6,715.2,cs),
(629.6,686.8,o),
(611.6,666.4,o),
(577.2,666.4,cs),
(454.4,666.4,ls),
(450,666.4,o),
(447.2,664,o),
(446.4,659.6,cs),
(392.8,350.4,ls),
(357.6,148,o),
(306,30,o),
(156,12.4,cs),
(134.4,9.6,o),
(44.8,7.6,o),
(10,7.6,cs)
);
}
);
vertWidth = 0;
width = 582;
},
{
associatedMasterId = m01;
layerId = "06052F2C-BE0F-40BC-8081-A274CED33EF8";
name = background;
shapes = (
{
closed = 1;
nodes = (
(444,738,l),
(377,358,ls),
(362,276,o),
(352,191,o),
(317,134,cs),
(296,97,o),
(265,70,o),
(216,64,cs),
(184,61,o),
(74,55,o),
(45,55,cs),
(31,55,o),
(15,45,o),
(15,29,cs),
(15,11,o),
(31,0,o),
(45,0,cs),
(82,0,o),
(189,6,o),
(211,8,cs),
(295,19,o),
(339,55,o),
(368,102,cs),
(409,166,o),
(418,251,o),
(436,352,cs),
(505,738,l)
);
},
{
closed = 1;
nodes = (
(680,713,o),
(687,728,o),
(687,743,cs),
(687,757,o),
(680,772,o),
(656,772,cs),
(295,772,ls),
(271,772,o),
(264,757,o),
(264,743,cs),
(264,728,o),
(271,713,o),
(295,713,cs),
(656,713,ls)
);
}
);
vertWidth = 0;
width = 594;
},
{
associatedMasterId = m002;
layerId = "F37B6A25-0192-483E-B22B-1CA87C39BAD9";
name = background;
shapes = (
{
closed = 1;
nodes = (
(-88,21,o),
(-58,0,o),
(-30,0,cs),
(6,0,o),
(96,2,o),
(118,5,cs),
(208,17,o),
(257,57,o),
(287,105,cs),
(328,172,o),
(345,255,o),
(361,349,cs),
(424,709,l),
(303,709,l),
(244,364,ls),
(230,286,o),
(217,211,o),
(188,163,cs),
(170,132,o),
(152,118,o),
(115,113,cs),
(87,109,o),
(-5,107,o),
(-30,107,cs),
(-58,107,o),
(-88,84,o),
(-88,53,cs)
);
},
{
closed = 1;
nodes = (
(138,682,o),
(160,659,o),
(196,659,cs),
(538,659,ls),
(576,659,o),
(598,684,o),
(598,715,cs),
(598,748,o),
(575,772,o),
(539,772,cs),
(197,772,ls),
(160,772,o),
(138,747,o),
(138,715,cs)
);
}
);
vertWidth = 0;
width = 594;
}
);
},
{
glyphname = K.ss01;
kernLeft = H_left;
layers = (
{
layerId = m01;
shapes = (
{
closed = 1;
nodes = (
(82,-8,o),
(88,19,o),
(91,36,cs),
(154,372,l),
(412,19,ls),
(421,6,o),
(434,-8,o),
(453,-8,cs),
(467,-8,o),
(482,2,o),
(487,18,cs),
(490,29,o),
(487,41,o),
(478,54,cs),
(227,415,l),
(556,706,ls),
(570,719,o),
(583,732,o),
(583,746,cs),
(583,761,o),
(572,780,o),
(550,780,cs),
(536,780,o),
(520,771,o),
(508,760,cs),
(196,475,l),
(165,450,l),
(215,734,ls),
(219,758,o),
(213,780,o),
(184,780,cs),
(155,780,o),
(145,763,o),
(141,742,cs),
(17,40,ls),
(13,18,o),
(24,-8,o),
(51,-8,cs)
);
},
{
closed = 1;
nodes = (
(35,8,o),
(28,21,o),
(31,36,cs),
(155,738,ls),
(158,756,o),
(164,764,o),
(184,764,cs),
(201,764,o),
(204,756,o),
(201,736,cs),
(148,430,ls),
(147,423,o),
(159,421,o),
(167,428,cs),
(204,462,l),
(518,748,ls),
(529,758,o),
(540,764,o),
(550,764,cs),
(563,764,o),
(567,756,o),
(567,746,cs),
(567,738,o),
(559,729,o),
(546,718,cs),
(212,422,ls),
(209,419,o),
(208,415,o),
(211,411,cs),
(466,46,ls),
(473,35,o),
(474,29,o),
(473,22,cs),
(470,12,o),
(462,8,o),
(453,8,cs),
(440,8,o),
(432,16,o),
(424,27,cs),
(149,408,ls),
(147,411,o),
(143,410,o),
(142,406,cs),
(77,38,ls),
(74,23,o),
(70,8,o),
(51,8,cs)
);
}
);
vertWidth = 0;
width = 550;
},
{
layerId = m002;
shapes = (
{
closed = 1;
nodes = (
(130,-7.6,o),
(152,19.2,o),
(158.4,51.6,cs),
(208.4,335.6,l),
(422,25.6,ls),
(436,4.8,o),
(460.8,-7.6,o),
(486,-7.6,cs),
(512,-7.6,o),
(543.6,6,o),
(549.2,35.6,cs),
(552.4,51.6,o),
(551.6,73.2,o),
(538,92.4,cs),
(317.2,409.6,l),
(610,662.4,ls),
(626.8,677.2,o),
(639.2,697.2,o),
(641.6,717.2,cs),
(646,747.6,o),
(625.2,779.6,o),
(586,779.6,cs),
(566,779.6,o),
(539.6,772.8,o),
(519.2,755.6,cs),
(270.8,535.6,l),
(238.4,503.2,l),
(274.4,707.6,ls),
(284.4,760.8,o),
(246.4,779.6,o),
(215.2,779.6,cs),
(181.6,779.6,o),
(149.2,762.4,o),
(142.8,724.4,cs),
(24.8,65.2,ls),
(18,25.6,o),
(46.4,-7.6,o),
(89.2,-7.6,cs)
);
},
{
closed = 1;
nodes = (
(54.4,7.6,o),
(34,31.2,o),
(39.2,62.8,cs),
(157.2,721.6,ls),
(162.8,752,o),
(186,764.4,o),
(215.2,764.4,cs),
(242.4,764.4,o),
(267.6,752,o),
(259.6,710.4,cs),
(220.8,488.8,ls),
(219,480,o),
(230,474,o),
(237.2,480.4,cs),
(281.2,524.4,l),
(528.8,744.4,ls),
(546.4,759.2,o),
(568,764.4,o),
(586,764.4,cs),
(616,764.4,o),
(630,743.2,o),
(626.4,718.8,cs),
(624.8,702.4,o),
(615.2,686.8,o),
(600,673.6,cs),
(302.4,417.2,ls),
(298.8,414,o),
(298,410.4,o),
(300.8,406.4,cs),
(526,83.6,ls),
(536.8,68.4,o),
(537.6,52.4,o),
(534.8,38.4,cs),
(530.4,17.2,o),
(508.4,7.6,o),
(486,7.6,cs),
(464.8,7.6,o),
(446,16.8,o),
(434,34.4,cs),
(207.2,363.6,ls),
(203.2,369.2,o),
(198.4,368,o),
(197.2,361.6,cs),
(143.6,54.4,ls),
(138,26.4,o),
(122.4,7.6,o),
(89.2,7.6,cs)
);
}
);
vertWidth = 0;
width = 631;
},
{
associatedMasterId = m01;
layerId = "E010F034-4598-4FE9-A40B-8BF5FC7CFE65";
name = background;
shapes = (
{
closed = 1;
nodes = (
(579,712,ls),
(593,723,o),
(599,735,o),
(601,746,cs),
(602,760,o),
(593,772,o),
(577,772,cs),
(568,773,o),
(555,769,o),
(541,757,cs),
(140,428,l),
(140,413,l),
(209,407,l)
);
},
{
closed = 1;
nodes = (
(140,423,l),
(141,410,l),
(411,23,ls),
(419,11,o),
(430,0,o),
(446,0,cs),
(457,0,o),
(469,7,o),
(473,20,cs),
(475,29,o),
(473,38,o),
(465,50,cs),
(207,421,l)
);
},
{
closed = 1;
nodes = (
(204,757,o),
(200,772,o),
(177,772,cs),
(153,772,o),
(145,759,o),
(141,740,cs),
(17,38,ls),
(13,20,o),
(23,0,o),
(44,0,cs),
(69,0,o),
(75,21,o),
(77,37,cs),
(201,735,ls)
);
}
);
vertWidth = 0;
width = 594;
}
);
},
{
glyphname = L.ss01;
kernLeft = H_left;
layers = (
{
layerId = m01;
shapes = (
{
closed = 1;
nodes = (
(403,-7,ls),
(429,-7,o),
(441,11,o),
(441,29,cs),
(441,46,o),
(429,63,o),
(403,63,cs),
(95,63,l),
(214,734,ls),
(218,758,o),
(214,780,o),
(183,780,cs),
(154,780,o),
(144,762,o),
(140,741,cs),
(15,33,ls),
(11,11,o),
(23,-7,o),
(50,-7,cs)
);
},
{
closed = 1;
nodes = (
(32,8,o),
(27,16,o),
(29,31,cs),
(154,739,ls),
(158,756,o),
(163,765,o),
(183,765,cs),
(201,765,o),
(202,757,o),
(200,736,cs),
(78,56,ls),
(78,51,o),
(80,48,o),
(85,48,cs),
(403,48,ls),
(420,48,o),
(426,41,o),
(426,29,cs),
(426,16,o),
(420,8,o),
(403,8,cs),
(50,8,ls)
);
}
);
vertWidth = 0;
width = 485;
},
{
layerId = m002;
shapes = (
{
closed = 1;
nodes = (
(493.2,-7.6,ls),
(533.2,-7.6,o),
(559.6,22,o),
(559.6,55.2,cs),
(559.6,87.2,o),
(533.2,114.4,o),
(493.2,114.4,cs),
(170,114.4,l),
(274.4,707.6,ls),
(284.4,764.4,o),
(249.6,779.6,o),
(217.2,779.6,cs),
(180.4,779.6,o),
(147.2,762.8,o),
(141.6,724.4,cs),
(23.6,59.2,ls),
(16.8,22,o),
(41.6,-7.6,o),
(82,-7.6,cs)
);
},
{
closed = 1;
nodes = (
(49.6,7.6,o),
(33.2,27.2,o),
(38.4,56.8,cs),
(156.4,721.6,ls),
(160.8,752,o),
(184.8,764.4,o),
(217.2,764.4,cs),
(245.2,764.4,o),
(267.6,754.4,o),
(259.6,710.4,cs),
(153.6,107.6,ls),
(152.4,102.8,o),
(155.2,99.6,o),
(160.4,99.6,cs),
(493.2,99.6,ls),
(525.6,99.6,o),
(544.4,80,o),
(544.4,55.2,cs),
(544.4,28.8,o),
(525.6,7.6,o),
(493.2,7.6,cs),
(82,7.6,ls)
);
}
);
vertWidth = 0;
width = 607;
}
);
},
{
glyphname = M.ss01;
kernLeft = H_left;
kernRight = H_right;
layers = (
{
layerId = m01;
shapes = (
{
closed = 1;
nodes = (
(23,-7,o),
(42,2,o),
(53,27,cs),
(344,603,l),
(352,622,l),
(352,601,l),
(392,42,ls),
(393,15,o),
(399,-7,o),
(431,-7,cs),
(460,-7,o),
(471,17,o),
(481,34,cs),
(781,633,l),
(782,606,l),
(817,32,ls),
(819,15,o),
(825,-7,o),
(856,-7,cs),
(880,-7,o),
(893,10,o),
(891,36,cs),
(844,739,ls),
(843,759,o),
(839,780,o),
(807,779,cs),
(778,781,o),
(767,758,o),
(760,744,cs),
(476,180,l),
(454,130,l),
(452,183,l),
(413,745,ls),
(412,762,o),
(402,780,o),
(376,780,cs),
(350,780,o),
(343,762,o),
(335,746,cs),
(-17,48,ls),
(-24,33,o),
(-27,18,o),
(-20,8,cs),
(-15,-1,o),
(-3,-7,o),
(8,-7,cs)
);
},
{
closed = 1;
nodes = (
(1,8,o),
(-5,11,o),
(-8,16,cs),
(-11,21,o),
(-10,29,o),
(-3,42,cs),
(349,740,ls),
(357,756,o),
(360,765,o),
(376,765,cs),
(393,765,o),
(398,757,o),
(399,743,cs),
(438,183,l),
(440,104,ls),
(441,99,o),
(443,96,o),
(447,96,cs),
(448,95,ls),
(453,94,o),
(456,96,o),
(458,100,cs),
(490,174,l),
(774,738,ls),
(781,752,o),
(788,765,o),
(807,765,cs),
(827,765,o),
(829,757,o),
(830,739,cs),
(877,36,ls),
(877,15,o),
(871,8,o),
(856,8,cs),
(837,8,o),
(833,19,o),
(831,34,c),
(796,606,l),
(795,657,ls),
(795,661,o),
(792,664,o),
(788,665,cs),
(787,665,ls),
(782,666,o),
(779,664,o),
(777,660,cs),
(467,42,ls),
(457,23,o),
(450,8,o),
(431,8,cs),
(411,8,o),
(407,18,o),
(406,42,cs),
(366,601,l),
(367,654,ls),
(367,659,o),
(364,662,o),
(360,662,cs),
(359,662,ls),
(354,663,o),
(351,662,o),
(350,657,cs),
(330,609,l),
(39,33,ls),
(30,13,o),
(19,8,o),
(8,8,cs)
);
}
);
vertWidth = 0;
width = 993;
},
{
layerId = m002;
shapes = (
{
closed = 1;
nodes = (
(39.6,-7.6,o),
(76,4.4,o),
(92.8,35.6,cs),
(310.8,462.8,l),
(328,500,l),
(328.4,466.8,l),
(363.6,58.4,ls),
(366.8,16.8,o),
(390,-7.6,o),
(431.2,-7.6,cs),
(482.4,-7.6,o),
(497.6,19.6,o),
(510.8,45.6,cs),
(743.6,518.8,l),
(745.6,462.4,l),
(780.4,54.4,ls),
(782.8,19.2,o),
(806.8,-7.6,o),
(848,-7.6,cs),
(887.2,-7.6,o),
(912.8,20.4,o),
(909.6,62.8,cs),
(855.6,720.4,ls),
(853.2,756.4,o),
(844.8,779.6,o),
(798,779.6,cs),
(759.2,779.6,o),
(735.6,763.6,o),
(720.4,735.6,cs),
(504.4,325.2,l),
(474.8,255.6,l),
(470.4,329.6,l),
(438.4,720.4,ls),
(436.4,757.2,o),
(423.2,779.6,o),
(371.2,779.6,cs),
(332.8,779.6,o),
(320.8,762,o),
(307.2,736.4,cs),
(-31.6,90.4,ls),
(-47.6,57.2,o),
(-46.4,38.4,o),
(-37.6,21.6,cs),
(-28.4,4,o),
(-3.2,-7.6,o),
(17.2,-7.6,cs)
);
},
{
closed = 1;
nodes = (
(0.8,7.6,o),
(-17.6,15.6,o),
(-24.4,28.4,cs),
(-31.6,42,o),
(-32.4,54.4,o),
(-18.4,83.6,cs),
(320.8,729.6,ls),
(333.6,754,o),
(340.8,764.4,o),
(371.2,764.4,cs),
(413.6,764.4,o),
(421.6,751.6,o),
(423.6,719.6,cs),
(455.6,328.4,l),
(461.2,229.2,ls),
(461.6,224.8,o),
(463.6,222,o),
(468.4,221.2,cs),
(469.2,221.2,ls),
(474,220.4,o),
(476.8,222,o),
(478.8,226,cs),
(517.6,318.8,l),
(733.6,728.4,ls),
(746.8,752.8,o),
(764.4,764.4,o),
(798,764.4,cs),
(834,764.4,o),
(838.4,752.4,o),
(840.4,719.6,cs),
(894.4,61.2,ls),
(897.2,26.8,o),
(879.6,7.6,o),
(848,7.6,cs),
(814.4,7.6,o),
(797.2,26,o),
(795.6,55.6,cs),
(760.4,463.6,l),
(758,542.4,ls),
(757.6,547.2,o),
(755.6,549.6,o),
(751.2,550.8,cs),
(749.6,550.8,ls),
(745.2,552,o),
(742.4,550.4,o),
(740.4,546.4,cs),
(497.2,52.4,ls),
(484.4,26.4,o),
(473.6,7.6,o),
(431.2,7.6,cs),
(397.2,7.6,o),
(381.2,24.4,o),
(378.4,59.6,cs),
(343.6,467.2,l),
(342.4,526.4,ls),
(342.4,530.8,o),
(340.4,533.6,o),
(335.6,534.4,cs),
(334.4,534.8,ls),
(330,535.6,o),
(327.2,534,o),
(325.2,530,cs),
(297.2,469.2,l),
(79.2,42.4,ls),
(65.6,17.2,o),
(36.8,7.6,o),
(17.2,7.6,cs)
);
}
);
vertWidth = 0;
width = 982;
},
{
associatedMasterId = m01;
layerId = "821342D0-DD98-4007-9C88-2E342CE68D40";
name = background;
shapes = (
{
closed = 1;
nodes = (
(381,772,l),
(360,772,o),
(353,759,o),
(345,743,cs),
(-19,45,ls),
(-26,31,o),
(-26,19,o),
(-21,12,cs),
(-17,5,o),
(-8,0,o),
(1,0,cs),
(14,0,o),
(29,8,o),
(40,30,cs),
(392,704,l)
);
},
{
closed = 1;
nodes = (
(411,750,ls),
(410,759,o),
(402,772,o),
(380,772,c),
(356,694,l),
(410,29,ls),
(411,17,o),
(416,0,o),
(444,0,c),
(466,72,l)
);
},
{
closed = 1;
nodes = (
(466,0,o),
(475,20,o),
(480,29,cs),
(828,696,l),
(816,772,l),
(798,772,o),
(791,754,o),
(784,741,cs),
(436,72,l),
(442,0,l)
);
},
{
closed = 1;
nodes = (
(853,758,o),
(849,772,o),
(815,772,c),
(796,722,l),
(853,29,ls),
(854,17,o),
(860,0,o),
(885,0,c),
(904,0,o),
(914,13,o),
(912,31,cs),
(854,739,ls)
);
}
);
vertWidth = 0;
width = 594;
}
);
},
{
glyphname = N.ss01;
kernLeft = H_left;
kernRight = H_right;
layers = (
{
layerId = m01;
shapes = (
{
closed = 1;
nodes = (
(82,-7,o),
(88,17,o),
(90,32,cs),
(192,612,l),
(194,625,l),
(197,612,l),
(413,18,l),
(419,5,o),
(431,-7,o),
(451,-7,cs),
(472,-7,o),
(486,7,o),
(489,29,cs),
(613,734,ls),
(618,758,o),
(613,780,o),
(583,780,cs),
(554,780,o),
(544,762,o),
(541,741,cs),
(442,178,l),
(439,146,l),
(431,179,l),
(225,750,l),
(222,763,o),
(208,780,o),
(183,780,cs),
(152,780,o),
(143,762,o),
(140,741,cs),
(15,33,ls),
(11,11,o),
(23,-7,o),
(50,-7,cs)
);
},
{
closed = 1;
nodes = (
(32,8,o),
(27,16,o),
(29,31,cs),
(154,739,ls),
(157,757,o),
(161,765,o),
(183,765,cs),
(201,765,o),
(208,755,o),
(211,746,cs),
(417,175,l),
(433,104,ls),
(434,99,o),
(437,97,o),
(442,98,cs),
(443,98,ls),
(447,98,o),
(450,101,o),
(450,105,cs),
(456,176,l),
(555,739,ls),
(558,756,o),
(563,765,o),
(583,765,cs),
(600,765,o),
(602,757,o),
(599,736,cs),
(475,31,ls),
(472,15,o),
(465,8,o),
(451,8,cs),
(438,8,o),
(431,14,o),
(427,24,c),
(211,616,l),
(200,664,ls),
(199,669,o),
(196,671,o),
(191,670,cs),
(190,670,ls),
(186,670,o),
(183,667,o),
(183,663,cs),
(178,614,l),
(76,34,ls),
(74,20,o),
(70,8,o),
(50,8,cs)
);
}
);
vertWidth = 0;
width = 629;
},
{
layerId = m002;
shapes = (
{
closed = 1;
nodes = (
(124.8,-7.6,o),
(151.6,18.4,o),
(157.2,48.8,cs),
(228.4,454,l),
(232.4,482.4,l),
(244,451.2,l),
(415.2,30.4,ls),
(424,6.4,o),
(446.4,-7.6,o),
(480,-7.6,cs),
(518,-7.6,o),
(536,12.8,o),
(542.4,46.8,cs),
(658.4,707.6,ls),
(666,749.6,o),
(644,783.6,o),
(600,783.6,cs),
(564,783.6,o),
(532.4,762.4,o),
(525.6,724.4,cs),
(454.8,318.4,l),
(449.2,283.6,l),
(437.2,318.8,l),
(266,740,ls),
(254.8,768,o),
(229.2,779.6,o),
(203.2,779.6,cs),
(169.6,779.6,o),
(146.4,760.8,o),
(139.6,724.4,cs),
(23.6,59.2,ls),
(16.8,21.6,o),
(43.6,-7.6,o),
(82,-7.6,cs)
);
},
{
closed = 1;
nodes = (
(51.2,7.6,o),
(33.2,27.2,o),
(38.4,56.8,cs),
(154.4,721.6,ls),
(160,752,o),
(175.6,764.4,o),
(203.2,764.4,cs),
(225.2,764.4,o),
(243.2,756.4,o),
(252,734,cs),
(422.8,313.2,l),
(442.4,256.8,ls),
(444,252.4,o),
(446.8,250.8,o),
(451.6,251.2,cs),
(452.8,251.2,ls),
(457.6,251.6,o),
(460,254,o),
(460.4,258.4,cs),
(469.2,315.6,l),
(540.4,721.6,ls),
(546,752.4,o),
(569.2,768.4,o),
(600,768.4,cs),
(634.8,768.4,o),
(650,745.6,o),
(643.6,710.4,cs),
(527.6,49.2,ls),
(522,20.4,o),
(510.8,7.6,o),
(480,7.6,cs),
(451.2,7.6,o),
(436,17.2,o),
(428.8,35.6,cs),
(258,456.8,l),
(238.4,509.2,ls),
(236.8,513.6,o),
(234,515.2,o),
(229.2,514.8,cs),
(228.4,514.8,ls),
(223.6,514.4,o),
(221.2,512,o),
(220.8,507.2,cs),
(213.6,456,l),
(142.8,51.2,ls),
(138,26.8,o),
(118,7.6,o),
(82,7.6,cs)
);
}
);
vertWidth = 0;
width = 682;
}
);
},
{
glyphname = O.ss01;
kernLeft = O_left;
kernRight = O_right;
layers = (
{
background = {
shapes = (
{
closed = 1;
nodes = (
(372,-13,o),
(532,293,o),
(552,524,cs),
(564,661,o),
(522,781,o),
(353,779,cs),
(207,777,o),
(134,663,o),
(93,485,cs),
(82,436,o),
(74,379,o),
(71,327,cs),
(64,163,o),
(87,-13,o),
(197,-13,cs)
);
},
{
closed = 1;
nodes = (
(131,42,o),
(121,204,o),
(131,314,cs),
(135,365,o),
(143,419,o),
(151,461,cs),
(189,627,o),
(234,720,o),
(349,722,cs),
(484,725,o),
(503,636,o),
(493,517,cs),
(478,321,o),
(321,42,o),
(194,42,cs)
);
}
);
};
layerId = m01;
shapes = (
{
closed = 1;
nodes = (
(393,-20,o),
(558,288,o),
(578,521,cs),
(591,660,o),
(536,790,o),
(361,786,cs),
(214,784,o),
(125,673,o),
(81,489,cs),
(19,236,o),
(60,-20,o),
(201,-20,cs)
);
},
{
closed = 1;
nodes = (
(74,-5,o),
(35,236,o),
(95,485,cs),
(139,666,o),
(222,770,o),
(361,772,cs),
(525,774,o),
(575,657,o),
(564,523,cs),
(544,293,o),
(384,-5,o),
(201,-5,cs)
);
},
{
closed = 1;
nodes = (
(342,35,o),
(503,315,o),
(519,513,cs),
(529,635,o),
(498,733,o),
(357,729,cs),
(237,727,o),
(175,634,o),
(138,467,cs),
(92,264,o),
(113,35,o),
(205,35,cs)
);
},
{
closed = 1;
nodes = (
(129,50,o),
(108,264,o),
(152,463,cs),
(189,627,o),
(246,713,o),
(357,715,cs),
(487,717,o),
(513,632,o),
(505,515,cs),
(489,320,o),
(333,50,o),
(205,50,cs)
);
}
);
vertWidth = 0;
width = 604;
},
{
layerId = m002;
shapes = (
{
closed = 1;
nodes = (
(404,-19.6,o),
(597.2,287.6,o),
(620.4,502.4,cs),
(634.8,646.8,o),
(555.2,786.4,o),
(378,786.4,cs),
(209.2,786.4,o),
(133.2,659.6,o),
(86.8,482,cs),
(25.2,243.2,o),
(56,-19.6,o),
(219.2,-19.6,cs)
);
},
{
closed = 1;
nodes = (
(70.8,-4.4,o),
(40.8,243.6,o),
(101.2,478,cs),
(146.8,653.2,o),
(218.4,771.6,o),
(378,771.6,cs),
(545.6,771.6,o),
(619.2,642.4,o),
(605.6,503.6,cs),
(582.8,293.6,o),
(394.8,-4.4,o),
(219.2,-4.4,cs)
);
},
{
closed = 1;
nodes = (
(309.6,87.6,o),
(482.4,324,o),
(500.4,499.2,cs),
(506.4,568,o),
(502.4,679.6,o),
(375.2,679.6,cs),
(266.4,679.6,o),
(232,594.8,o),
(200.8,443.6,cs),
(173.6,310.8,o),
(162,87.6,o),
(222,87.6,cs)
);
},
{
closed = 1;
nodes = (
(180,102.4,o),
(188.4,309.2,o),
(215.2,440.4,cs),
(246.4,589.6,o),
(277.2,664.4,o),
(375.2,664.4,cs),
(487.6,664.4,o),
(491.6,568,o),
(485.6,500.8,cs),
(467.6,330,o),
(300.4,102.4,o),
(222,102.4,cs)
);
}
);
vertWidth = 0;
width = 657;
},
{
associatedMasterId = m01;
layerId = "7307B018-DEB8-4492-83DD-A560B2CDD96E";
name = background;
shapes = (
{
closed = 1;
nodes = (
(352,-5,o),
(530,304,o),
(558,520,cs),
(576,655,o),
(539,772,o),
(371,772,cs),
(225,772,o),
(147,662,o),
(97,486,cs),
(84,438,o),
(74,383,o),
(69,330,cs),
(55,170,o),
(69,-5,o),
(179,-5,cs)
);
},
{
closed = 1;
nodes = (
(115,50,o),
(119,211,o),
(127,318,cs),
(132,368,o),
(144,422,o),
(154,461,cs),
(200,625,o),
(249,718,o),
(365,718,cs),
(523,718,o),
(510,588,o),
(499,513,cs),
(473,321,o),
(284,50,o),
(178,50,cs)
);
}
);
vertWidth = 0;
width = 590;
},
{
associatedMasterId = m002;
layerId = "D1F148A5-460D-423B-8A8D-A02342BEA43C";
name = background;
shapes = (
{
closed = 1;
nodes = (
(393,-12,o),
(592,291,o),
(619,503,cs),
(637,644,o),
(563,779,o),
(391,779,cs),
(227,779,o),
(147,652,o),
(100,480,cs),
(87,432,o),
(77,379,o),
(75,329,cs),
(62,171,o),
(70,-12,o),
(213,-12,cs)
);
},
{
closed = 1;
nodes = (
(175,95,o),
(185,215,o),
(192,312,cs),
(195,359,o),
(204,406,o),
(213,442,cs),
(253,593,o),
(283,672,o),
(386,672,cs),
(506,672,o),
(507,568,o),
(499,500,cs),
(478,327,o),
(301,95,o),
(219,95,cs)
);
}
);
vertWidth = 0;
width = 594;
}
);
},
{
glyphname = P.ss01;
kernLeft = H_left;
layers = (
{
layerId = m01;
shapes = (
{
closed = 1;
nodes = (
(83,-12,o),
(86,17,o),
(89,28,c),
(147,354,l),
(392,357,o),
(563,403,o),
(583,564,cs),
(604,726,o),
(438,781,o),
(183,779,cs),
(152,780,o),
(144,762,o),
(140,741,cs),
(15,33,ls),
(11,12,o),
(22,-12,o),
(50,-12,cs)
);
},
{
closed = 1;
nodes = (
(33,3,o),
(27,15,o),
(29,31,cs),
(154,739,ls),
(158,757,o),
(162,765,o),
(183,765,cs),
(435,765,o),
(588,715,o),
(569,566,cs),
(549,414,o),
(387,372,o),
(142,368,cs),
(137,368,o),
(134,366,o),
(133,362,cs),
(75,32,l),
(72,19,o),
(70,3,o),
(50,3,cs)
);
},
{
closed = 1;
nodes = (
(362,412,o),
(508,454,o),
(522,570,cs),
(537,679,o),
(438,723,o),
(205,726,cs),
(200,726,o),
(197,723,o),
(197,719,cs),
(142,417,ls),
(142,411,o),
(144,408,o),
(150,409,cs)
);
},
{
closed = 1;
nodes = (
(210,710,l),
(435,708,o),
(521,669,o),
(508,572,cs),
(494,468,o),
(363,428,o),
(159,424,c)
);
}
);
vertWidth = 0;
width = 569;
},
{
layerId = m002;
shapes = (
{
closed = 1;
nodes = (
(131.2,-14.4,o),
(148,16.8,o),
(153.2,44.8,cs),
(201.2,318.4,l),
(412,322,o),
(614.8,352,o),
(643.6,554,cs),
(666.4,720.8,o),
(508.4,786.4,o),
(210,782.4,cs),
(171.6,782.4,o),
(146.4,762,o),
(139.6,724.4,cs),
(22.8,58.4,ls),
(16,22.4,o),
(41.2,-14.4,o),
(86,-14.4,cs)
);
},
{
closed = 1;
nodes = (
(50,0.4,o),
(32,26.8,o),
(37.2,55.6,cs),
(154.4,721.6,ls),
(160,752.8,o),
(177.6,767.6,o),
(210,767.6,cs),
(504.4,771.6,o),
(649.6,710.4,o),
(628.4,556,cs),
(601.6,363.6,o),
(406.8,336.4,o),
(195.6,333.6,cs),
(191.2,333.6,o),
(188.4,331.2,o),
(187.6,326.8,cs),
(138.8,47.2,ls),
(134,22.4,o),
(121.6,0.4,o),
(86,0.4,cs)
);
},
{
closed = 1;
nodes = (
(373.2,429.2,o),
(514.8,457.2,o),
(527.6,560,cs),
(537.2,634.8,o),
(477.2,672.4,o),
(256.8,675.6,cs),
(252,675.6,o),
(249.2,673.2,o),
(248.4,668.8,cs),
(206.8,433.6,ls),
(205.6,428.4,o),
(208.4,425.2,o),
(213.6,425.2,cs)
);
},
{
closed = 1;
nodes = (
(262.4,660.4,l),
(470.8,656.8,o),
(520.8,625.6,o),
(512.4,562,cs),
(501.6,472,o),
(376.4,445.6,o),
(223.2,440.8,c)
);
}
);
vertWidth = 0;
width = 651;
},
{
associatedMasterId = m01;
layerId = "20E38FB0-B6D6-4C6B-89B9-150B1056CEBB";
name = background;
shapes = (
{
closed = 1;
nodes = (
(352,361,o),
(543,381,o),
(569,565,cs),
(589,709,o),
(435,772,o),
(181,772,c),
(184,718,l),
(426,718,o),
(522,662,o),
(510,571,cs),
(492,436,o),
(317,416,o),
(134,416,c),
(126,361,l)
);
},
{
closed = 1;
nodes = (
(203,757,o),
(201,772,o),
(176,772,cs),
(150,772,o),
(144,759,o),
(140,740,cs),
(15,32,ls),
(12,14,o),
(21,-5,o),
(43,-5,cs),
(69,-5,o),
(72,18,o),
(75,30,cs),
(200,735,ls)
);
}
);
vertWidth = 0;
width = 594;
}
);
},
{
glyphname = Q.ss01;
kernLeft = O_left;
kernRight = O_right;
layers = (
{
layerId = m01;
shapes = (
{
closed = 1;
nodes = (
(428,-48,o),
(428,-19,o),
(417,-3,cs),
(372,63,l),
(485,166,o),
(568,357,o),
(582,517,cs),
(595,657,o),
(537,790,o),
(369,786,cs),
(215,784,o),
(122,676,o),
(78,493,cs),
(17,240,o),
(61,-14,o),
(202,-14,cs),
(240,-14,o),
(278,-2,o),
(313,18,c),
(351,-38,ls),
(364,-58,o),
(387,-71,o),
(408,-60,cs)
);
},
{
closed = 1;
nodes = (
(388,-53,o),
(374,-46,o),
(363,-30,cs),
(321,32,ls),
(319,36,o),
(315,37,o),
(311,34,cs),
(276,13,o),
(240,0,o),
(202,1,cs),
(75,1,o),
(33,240,o),
(92,489,cs),
(136,668,o),
(222,770,o),
(369,772,cs),
(526,774,o),
(579,654,o),
(568,519,cs),
(553,359,o),
(470,170,o),
(357,70,cs),
(354,67,o),
(353,63,o),
(356,59,cs),
(405,-11,ls),
(413,-23,o),
(413,-40,o),
(400,-46,cs)
);
},
{
closed = 1;
nodes = (
(232,40,o),
(261,51,o),
(287,68,cs),
(291,71,o),
(292,74,o),
(289,78,cs),
(240,150,ls),
(228,168,o),
(226,176,o),
(238,184,cs),
(251,195,o),
(266,190,o),
(276,175,cs),
(323,107,ls),
(326,103,o),
(330,102,o),
(334,106,cs),
(428,198,o),
(512,372,o),
(522,510,cs),
(533,632,o),
(499,733,o),
(366,729,cs),
(239,727,o),
(172,637,o),
(135,470,cs),
(89,267,o),
(114,41,o),
(206,41,cs)
);
},
{
closed = 1;
nodes = (
(130,56,o),
(105,267,o),
(149,466,cs),
(186,630,o),
(247,713,o),
(366,715,cs),
(488,717,o),
(517,629,o),
(508,512,cs),
(498,379,o),
(420,215,o),
(330,124,c),
(288,183,ls),
(275,203,o),
(248,213,o),
(228,196,cs),
(209,182,o),
(214,163,o),
(228,142,cs),
(272,76,l),
(249,63,o),
(228,56,o),
(206,56,cs)
);
}
);
vertWidth = 0;
width = 605;
},
{
layerId = m002;
shapes = (
{
closed = 1;
nodes = (
(511.2,-37.2,o),
(513.2,2,o),
(492.4,34,cs),
(447.6,98.4,l),
(548.4,207.2,o),
(625.6,371.6,o),
(639.6,502.4,cs),
(653.6,646.8,o),
(574.4,786.4,o),
(387.2,786.4,cs),
(209.2,786.4,o),
(133.2,659.2,o),
(86.8,482,cs),
(25.2,243.6,o),
(56.4,-19.6,o),
(232,-19.6,cs),
(271.2,-19.6,o),
(312,-6.4,o),
(350,16.8,c),
(380.8,-29.2,ls),
(404.8,-63.2,o),
(447.6,-73.6,o),
(475.6,-56.4,cs)
);
},
{
closed = 1;
nodes = (
(445.6,-56.8,o),
(413.6,-49.2,o),
(393.2,-20.8,cs),
(358,31.2,ls),
(355.6,35.2,o),
(352,35.6,o),
(347.6,33.2,cs),
(309.6,8.8,o),
(270.8,-4.4,o),
(232,-4.4,cs),
(70.8,-4.4,o),
(40.8,243.6,o),
(101.2,478,cs),
(146.8,653.2,o),
(218.4,771.6,o),
(387.2,771.6,cs),
(564.8,771.6,o),
(638.4,642.4,o),
(624.4,503.6,cs),
(610.8,374.4,o),
(534,212,o),
(433.2,104.4,cs),
(430,101.2,o),
(429.6,97.6,o),
(432.4,94,cs),
(479.6,26,ls),
(497.2,-1.2,o),
(495.6,-28.4,o),
(468.4,-43.6,cs)
);
},
{
closed = 1;
nodes = (
(252.8,87.6,o),
(273.6,96.4,o),
(294.4,110.8,cs),
(298.4,113.6,o),
(298.8,117.2,o),
(296.4,121.2,cs),
(277.2,149.2,ls),
(257.2,178.4,o),
(263.6,202.8,o),
(283.6,219.2,cs),
(303.2,234,o),
(338,229.2,o),
(360.8,199.6,cs),
(362.4,196.8,ls),
(367,190,o),
(377,189,o),
(381.6,195.6,cs),
(448.4,279.2,o),
(509.2,399.6,o),
(519.6,499.2,cs),
(525.6,568,o),
(521.6,679.6,o),
(387.2,679.6,cs),
(266.4,679.6,o),
(232,594.8,o),
(200.8,443.6,cs),
(173.6,311.2,o),
(161.6,87.6,o),
(235.2,87.6,cs)
);
},
{
closed = 1;
nodes = (
(180,102.4,o),
(188.4,309.2,o),
(215.2,440.4,cs),
(246.4,589.6,o),
(277.2,664.4,o),
(387.2,664.4,cs),
(506.8,664.4,o),
(510.4,568,o),
(504.4,500.8,cs),
(494.8,405.2,o),
(437.6,290.8,o),
(372.8,208.8,c),
(369,213,ls),
(341,243,o),
(298,250,o),
(274.4,230.8,cs),
(249.6,210.8,o),
(240.4,176.4,o),
(264.8,140.8,cs),
(279.6,119.2,l),
(262.8,108,o),
(248,102.4,o),
(235.2,102.4,cs)
);
}
);
vertWidth = 0;
width = 675;
}
);
},
{
glyphname = R.ss01;
kernLeft = H_left;
layers = (
{
layerId = m01;
shapes = (
{
closed = 1;
nodes = (
(82,-7,o),
(88,17,o),
(91,36,cs),
(146,346,l),
(174,307,l),
(416,16,ls),
(429,2,o),
(439,-7,o),
(451,-7,cs),
(466,-7,o),
(481,2,o),
(486,15,cs),
(490,26,o),
(489,44,o),
(480,56,cs),
(227,360,l),
(412,371,o),
(546,419,o),
(566,564,cs),
(590,729,o),
(422,780,o),
(183,780,cs),
(152,780,o),
(143,762,o),
(140,741,cs),
(17,40,ls),
(12,17,o),
(22,-7,o),
(50,-7,cs)
);
},
{
closed = 1;
nodes = (
(33,8,o),
(28,20,o),
(31,38,cs),
(154,739,ls),
(157,757,o),
(161,765,o),
(183,765,cs),
(419,765,o),
(574,718,o),
(552,566,cs),
(532,426,o),
(400,383,o),
(208,374,cs),
(202,374,o),
(200,370,o),
(204,365,cs),
(468,46,ls),
(474,39,o),
(474,28,o),
(472,21,cs),
(469,13,o),
(461,8,o),
(451,8,cs),
(445,8,o),
(439,12,o),
(428,26,cs),
(186,317,l),
(145,373,ls),
(141,379,o),
(137,378,o),
(136,371,cs),
(77,38,ls),
(74,21,o),
(70,8,o),
(50,8,cs)
);
},
{
closed = 1;
nodes = (
(357,411,o),
(490,460,o),
(507,570,cs),
(522,678,o),
(406,722,o),
(205,725,cs),
(200,726,o),
(197,723,o),
(197,719,cs),
(144,417,ls),
(143,411,o),
(145,408,o),
(151,408,cs)
);
},
{
closed = 1;
nodes = (
(210,710,l),
(404,707,o),
(506,666,o),
(493,572,cs),
(477,473,o),
(357,428,o),
(160,424,c)
);
}
);
vertWidth = 0;
width = 569;
},
{
layerId = m002;
shapes = (
{
closed = 1;
nodes = (
(118.8,-7.6,o),
(152.8,22.4,o),
(159.2,61.6,cs),
(200.8,299.6,l),
(214,277.6,l),
(424.4,22,ls),
(446.4,-3.2,o),
(475.2,-7.6,o),
(492,-7.6,cs),
(516.4,-7.6,o),
(545.2,7.2,o),
(552,32,cs),
(557.6,49.2,o),
(558.8,70.4,o),
(544.8,86.8,cs),
(345.6,326.4,l),
(485.6,346.4,o),
(598.4,402.4,o),
(625.2,553.6,cs),
(654.8,720.8,o),
(486,779.6,o),
(215.2,779.6,cs),
(174,779.6,o),
(147.2,762.4,o),
(141.6,724.4,cs),
(24.8,65.2,ls),
(18,26.8,o),
(34.4,-7.6,o),
(78,-7.6,cs)
);
},
{
closed = 1;
nodes = (
(44.8,7.6,o),
(33.6,30,o),
(39.2,62.8,cs),
(156.4,721.6,ls),
(160.8,752.4,o),
(179.2,764.4,o),
(215.2,764.4,cs),
(482.8,764.4,o),
(637.6,710,o),
(610.8,556.4,cs),
(584.4,407.2,o),
(472.4,356.4,o),
(327.2,339.2,cs),
(321.2,338.4,o),
(319.6,334.4,o),
(323.2,329.6,cs),
(533.2,77.2,ls),
(543.2,65.6,o),
(542.4,51.2,o),
(538,36,cs),
(532.8,18,o),
(512,7.6,o),
(492,7.6,cs),
(476.4,7.6,o),
(454,10.8,o),
(435.6,32,cs),
(226,286.4,l),
(200.4,330,ls),
(196.8,336,o),
(192,335.2,o),
(190.8,328.4,cs),
(144.8,64.4,ls),
(139.2,30.8,o),
(112,7.6,o),
(78,7.6,cs)
);
},
{
closed = 1;
nodes = (
(368,411.2,o),
(493.6,458,o),
(510.4,556.8,cs),
(524.8,635.6,o),
(456,674.4,o),
(258.8,672.4,cs),
(254,672.4,o),
(251.2,670,o),
(250.4,665.6,cs),
(205.6,410.4,ls),
(204.4,405.2,o),
(207.2,402,o),
(212.8,402.4,cs)
);
},
{
closed = 1;
nodes = (
(264.4,657.6,l),
(450.4,658.8,o),
(507.6,626.4,o),
(495.6,559.2,cs),
(480.8,471.6,o),
(369.2,428.4,o),
(222,418,c)
);
}
);
vertWidth = 0;
width = 652;
},
{
associatedMasterId = m01;
layerId = "C47353F9-FE80-40FB-AB91-6D72AFE07355";
name = background;
shapes = (
{
closed = 1;
nodes = (
(375,361,o),
(575,381,o),
(601,565,cs),
(621,709,o),
(470,772,o),
(213,772,c),
(213,718,l),
(442,718,o),
(555,665,o),
(542,571,cs),
(523,437,o),
(347,416,o),
(158,416,c),
(150,361,l)
);
},
{
closed = 1;
nodes = (
(141,390,l),
(447,21,ls),
(459,6,o),
(467,0,o),
(476,0,cs),
(488,0,o),
(500,8,o),
(504,18,cs),
(507,27,o),
(506,42,o),
(499,51,cs),
(226,381,l)
);
},
{
closed = 1;
nodes = (
(235,757,o),
(233,772,o),
(208,772,cs),
(182,772,o),
(176,759,o),
(172,740,cs),
(49,39,ls),
(45,19,o),
(53,0,o),
(75,0,cs),
(101,0,o),
(106,19,o),
(109,37,cs),
(232,735,ls)
);
}
);
vertWidth = 0;
width = 594;
}
);
},
{
glyphname = S.ss01;
layers = (
{
background = {
shapes = (
{
closed = 1;
nodes = (
(221,0,o),
(318,38,o),
(372,107,cs),
(441,196,o),
(417,341,o),
(282,431,cs),
(246,455,ls),
(135,529,o),
(113,582,o),
(151,647,cs),
(188,710,o),
(280,713,o),
(385,713,cs),
(481,713,ls),
(497,713,o),
(508,728,o),
(508,744,cs),
(508,772,o),
(485,772,o),
(480,772,cs),
(386,772,ls),
(257,772,o),
(149,754,o),
(96,672,cs),
(42,587,o),
(81,493,o),
(191,418,cs),
(228,393,ls),
(335,321,o),
(384,225,o),
(329,147,cs),
(283,82,o),
(182,59,o),
(93,59,cs),
(-2,59,ls),
(-18,59,o),
(-31,44,o),
(-31,29,cs),
(-31,0,o),
(-5,0,o),
(-2,0,cs),
(93,0,ls)
);
}
);
};
layerId = m01;
shapes = (
{
closed = 1;
nodes = (
(100,-7,ls),
(308,-7,o),
(428,95,o),
(428,217,cs),
(428,317,o),
(368,387,o),
(293,437,cs),
(257,461,ls),
(178,513,o),
(148,549,o),
(148,594,cs),
(148,680,o),
(240,711,o),
(365,711,cs),
(467,711,ls),
(486,711,o),
(502,724,o),
(502,746,cs),
(502,780,o),
(470,780,o),
(466,780,cs),
(356,780,ls),
(182,780,o),
(71,707,o),
(71,590,cs),
(71,526,o),
(116,464,o),
(194,412,cs),
(231,387,ls),
(301,339,o),
(352,289,o),
(352,216,cs),
(352,129,o),
(269,63,o),
(107,63,cs),
(5,63,ls),
(-15,63,o),
(-31,48,o),
(-31,26,cs),
(-31,-7,o),
(2,-7,o),
(5,-7,cs)
);
},
{
closed = 1;
nodes = (
(2,8,o),
(-16,7,o),
(-16,26,cs),
(-16,41,o),
(-8,48,o),
(5,48,cs),
(107,48,ls),
(276,48,o),
(367,120,o),
(367,216,cs),
(367,295,o),
(311,351,o),
(239,399,cs),
(202,424,ls),
(127,474,o),
(86,531,o),
(86,590,cs),
(86,698,o),
(187,765,o),
(356,765,cs),
(466,765,ls),
(470,765,o),
(487,765,o),
(487,746,cs),
(487,732,o),
(479,726,o),
(467,726,cs),
(365,726,ls),
(237,726,o),
(133,691,o),
(133,594,cs),
(133,543,o),
(168,502,o),
(249,449,cs),
(285,425,ls),
(358,375,o),
(413,311,o),
(413,217,cs),
(413,102,o),
(301,8,o),
(100,8,cs),
(5,8,ls)
);
}
);
vertWidth = 0;
width = 484;
},
{
layerId = m002;
shapes = (
{
closed = 1;
nodes = (
(163.2,-7.6,ls),
(281.6,-7.6,o),
(492.4,52.8,o),
(492.4,228,cs),
(492.4,339.6,o),
(411.6,403.2,o),
(335.2,456,cs),
(312.4,473.2,ls),
(239.6,524,o),
(205.6,549.6,o),
(205.6,579.2,cs),
(205.6,621.2,o),
(283.6,656.4,o),
(361.2,656.4,cs),
(519.2,656.4,ls),
(554,656.4,o),
(582.4,684.8,o),
(582.4,719.2,cs),
(582.4,768,o),
(540.4,779.6,o),
(518,779.6,cs),
(362,779.6,ls),
(199.6,779.6,o),
(72.4,688,o),
(72.4,574,cs),
(72.4,484,o),
(148.8,435.6,o),
(228.8,378.8,cs),
(253.6,360.8,ls),
(328,308.4,o),
(358.4,276,o),
(358.4,228,cs),
(358.4,143.2,o),
(231.2,115.6,o),
(163.2,115.6,cs),
(42,115.6,ls),
(6.8,115.6,o),
(-22.4,86,o),
(-22.4,52,cs),
(-22.4,3.6,o),
(23.6,-7.6,o),
(42,-7.6,cs)
);
},
{
closed = 1;
nodes = (
(26,7.6,o),
(-7.6,16,o),
(-7.6,52,cs),
(-7.6,78.8,o),
(14,100.4,o),
(42,100.4,cs),
(163.2,100.4,ls),
(233.6,100.4,o),
(373.6,130.4,o),
(373.6,228,cs),
(373.6,282.4,o),
(338.4,319.6,o),
(262.4,373.2,cs),
(237.2,391.2,ls),
(157.2,448.4,o),
(87.6,492,o),
(87.6,574,cs),
(87.6,679.2,o),
(205.6,764.4,o),
(362,764.4,cs),
(518,764.4,ls),
(538,764.4,o),
(567.6,756.4,o),
(567.6,719.2,cs),
(567.6,692,o),
(546.8,671.6,o),
(519.2,671.6,cs),
(361.2,671.6,ls),
(279.2,671.6,o),
(190.4,632,o),
(190.4,579.2,cs),
(190.4,542,o),
(230.4,512,o),
(303.6,460.8,cs),
(326.8,444,ls),
(402.4,390.8,o),
(477.6,332.4,o),
(477.6,228,cs),
(477.6,64.8,o),
(278.8,7.6,o),
(163.2,7.6,cs),
(42,7.6,ls)
);
}
);
vertWidth = 0;
width = 554;
},
{
associatedMasterId = m01;
layerId = "A440414B-586A-40A5-AE6A-EB7CED442D21";
name = background;
shapes = (
{
closed = 1;
nodes = (
(235,0,o),
(412,59,o),
(412,219,cs),
(412,320,o),
(359,378,o),
(274,437,cs),
(187,498,o),
(133,537,o),
(133,590,cs),
(133,659,o),
(238,713,o),
(329,713,cs),
(484,713,ls),
(499,713,o),
(511,728,o),
(511,744,cs),
(511,772,o),
(487,772,o),
(482,772,cs),
(330,772,ls),
(177,772,o),
(72,684,o),
(72,586,cs),
(72,501,o),
(141,457,o),
(235,391,cs),
(320,330,o),
(353,286,o),
(353,217,cs),
(353,99,o),
(196,59,o),
(119,59,cs),
(0,59,ls),
(-15,59,o),
(-29,44,o),
(-29,29,cs),
(-29,0,o),
(-2,0,o),
(0,0,cs),
(119,0,ls)
);
}
);
vertWidth = 0;
width = 594;
}
);
},
{
glyphname = T.ss01;
layers = (
{
layerId = m01;
shapes = (
{
closed = 1;
nodes = (
(239,-7,o),
(243,17,o),
(245,29,cs),
(364,711,l),
(587,711,ls),
(615,711,o),
(625,728,o),
(625,745,cs),
(625,762,o),
(615,780,o),
(587,780,cs),
(83,780,ls),
(54,780,o),
(45,762,o),
(45,745,cs),
(45,728,o),
(54,711,o),
(83,711,cs),
(289,711,l),
(172,33,ls),
(168,11,o),
(180,-7,o),
(206,-7,cs)
);
},
{
closed = 1;
nodes = (
(189,8,o),
(184,16,o),
(186,31,cs),
(305,717,ls),
(306,723,o),
(304,726,o),
(299,726,cs),
(83,726,ls),
(63,726,o),
(60,733,o),
(60,745,cs),
(60,757,o),
(63,765,o),
(83,765,cs),
(587,765,ls),
(606,765,o),
(610,757,o),
(610,745,cs),
(610,733,o),
(606,726,o),
(587,726,cs),
(359,726,ls),
(354,726,o),
(351,723,o),
(350,719,cs),
(231,31,ls),
(229,19,o),
(227,8,o),
(206,8,cs)
);
}
);
vertWidth = 0;
width = 545;
},
{
layerId = m002;
shapes = (
{
closed = 1;
nodes = (
(277.2,-9.6,o),
(298.8,17.2,o),
(304.4,44.8,cs),
(410.4,661.6,l),
(607.2,661.6,ls),
(649.6,661.6,o),
(673.6,689.2,o),
(673.6,721.2,cs),
(673.6,756,o),
(647.2,783.6,o),
(607.2,783.6,cs),
(103.2,783.6,ls),
(64,783.6,o),
(36.4,756,o),
(36.4,721.2,cs),
(36.4,689.2,o),
(60.4,661.6,o),
(103.2,661.6,cs),
(275.2,661.6,l),
(170.8,59.2,ls),
(163.6,21.6,o),
(192.8,-9.6,o),
(234,-9.6,cs)
);
},
{
closed = 1;
nodes = (
(200.4,5.6,o),
(180,27.2,o),
(185.2,56.8,cs),
(291.2,668.4,ls),
(292.4,673.6,o),
(289.6,676.4,o),
(284.4,676.4,cs),
(103.2,676.4,ls),
(68.4,676.4,o),
(51.6,696,o),
(51.6,721.2,cs),
(51.6,748.8,o),
(71.2,768.4,o),
(103.2,768.4,cs),
(607.2,768.4,ls),
(639.6,768.4,o),
(658.4,748.8,o),
(658.4,721.2,cs),
(658.4,696,o),
(641.6,676.4,o),
(607.2,676.4,cs),
(404.4,676.4,ls),
(400,676.4,o),
(397.2,674,o),
(396.4,669.6,cs),
(289.6,47.2,ls),
(285.2,24.4,o),
(269.6,5.6,o),
(234,5.6,cs)
);
}
);
vertWidth = 0;
width = 593;
}
);
},
{
glyphname = U.ss01;
kernLeft = H_left;
kernRight = H_right;
layers = (
{
layerId = m01;
shapes = (
{
closed = 1;
nodes = (
(251,-12,o),
(366,154,o),
(458,326,c),
(407,33,ls),
(403,6,o),
(421,-8,o),
(442,-8,cs),
(459,-8,o),
(476,3,o),
(481,25,cs),
(607,740,ls),
(611,762,o),
(600,780,o),
(571,780,cs),
(545,780,o),
(535,761,o),
(532,745,cs),
(505,590,l),
(479,485,o),
(433,414,o),
(394,350,cs),
(341,262,o),
(225,58,o),
(136,58,cs),
(90,58,o),
(100,137,o),
(114,213,cs),
(209,738,ls),
(213,759,o),
(200,778,o),
(177,779,cs),
(154,780,o),
(138,760,o),
(134,738,cs),
(40,218,ls),
(11,58,o),
(52,-12,o),
(127,-12,cs)
);
},
{
closed = 1;
nodes = (
(61,3,o),
(27,63,o),
(54,216,cs),
(148,736,ls),
(152,753,o),
(162,765,o),
(177,765,cs),
(191,764,o),
(197,754,o),
(195,740,cs),
(100,215,ls),
(85,138,o),
(72,43,o),
(136,43,cs),
(234,43,o),
(353,254,o),
(406,342,cs),
(445,406,o),
(493,479,o),
(519,586,c),
(546,743,ls),
(549,755,o),
(554,765,o),
(571,765,cs),
(591,765,o),
(595,757,o),
(593,742,cs),
(467,27,ls),
(463,13,o),
(454,7,o),
(442,7,cs),
(428,7,o),
(419,13,o),
(421,31,cs),
(480,364,ls),
(481,369,o),
(479,372,o),
(475,373,c),
(474,373,l),
(470,375,o),
(466,374,o),
(464,369,cs),
(369,187,o),
(252,2,o),
(127,3,cs)
);
}
);
vertWidth = 0;
width = 621;
},
{
layerId = m002;
shapes = (
{
closed = 1;
nodes = (
(271.6,-12.4,o),
(369.6,94,o),
(450.4,224.4,c),
(421.6,59.2,ls),
(413.6,14.4,o),
(446.8,-7.6,o),
(484,-7.6,cs),
(513.2,-7.6,o),
(548.8,8.4,o),
(553.6,42.8,cs),
(671.2,713.6,ls),
(678.4,751.2,o),
(653.6,779.6,o),
(608,779.6,cs),
(571.6,779.6,o),
(543.2,759.2,o),
(537.6,728.4,cs),
(521.6,636.4,ls),
(506.8,567.2,o),
(455.2,442.4,o),
(425.2,387.6,cs),
(391.6,321.6,o),
(263.6,109.6,o),
(187.2,109.6,cs),
(172,109.6,o),
(173.6,148,o),
(186.4,218.8,cs),
(274.4,711.6,ls),
(281.2,750.4,o),
(252,779.6,o),
(214,779.6,cs),
(171.6,780.8,o),
(144.8,744.8,o),
(141.6,721.2,cs),
(53.6,233.2,ls),
(22.8,64.8,o),
(75.6,-12.4,o),
(168,-12.4,cs)
);
},
{
closed = 1;
nodes = (
(84.8,2.4,o),
(38.8,69.6,o),
(68.4,230.8,cs),
(156.4,718.8,ls),
(159.2,738,o),
(179.6,765.6,o),
(214,764.4,cs),
(244.8,764.4,o),
(264.8,744.4,o),
(259.6,714.4,cs),
(171.6,221.2,ls),
(158.4,150,o),
(154.4,94.4,o),
(187.2,94.4,cs),
(273.6,94.4,o),
(404.8,314.4,o),
(438.8,380.4,cs),
(468.8,435.6,o),
(521.2,562.8,o),
(536.4,633.6,cs),
(552.4,725.6,ls),
(556.8,749.6,o),
(577.6,764.4,o),
(608,764.4,cs),
(645.6,764.4,o),
(662,745.6,o),
(656.8,716.4,cs),
(538.4,45.2,l),
(535.2,19.2,o),
(509.2,7.6,o),
(484,7.6,cs),
(452.4,7.6,o),
(430.4,22.4,o),
(436.4,56.8,cs),
(471.2,254.8,ls),
(472,259.2,o),
(470.4,262.4,o),
(466,264,cs),
(464.8,264.4,ls),
(460.4,266,o),
(457.2,264.8,o),
(454.8,260.8,cs),
(372,119.2,o),
(272,2.4,o),
(168,2.4,cs)
);
}
);
vertWidth = 0;
width = 694;
}
);
},
{
glyphname = V.ss01;
kernLeft = V_left;
kernRight = V_right;
layers = (
{
layerId = m01;
shapes = (
{
closed = 1;
nodes = (
(209,-7,o),
(216,10,o),
(224,27,cs),
(566,718,ls),
(581,748,o),
(572,769,o),
(554,778,cs),
(534,787,o),
(510,772,o),
(498,747,cs),
(214,173,l),
(208,157,l),
(207,175,l),
(177,745,l),
(175,758,o),
(170,780,o),
(137,780,cs),
(111,780,o),
(101,761,o),
(103,741,cs),
(142,38,ls),
(144,15,o),
(154,-7,o),
(181,-7,cs)
);
},
{
closed = 1;
nodes = (
(164,8,o),
(158,20,o),
(156,40,cs),
(117,741,ls),
(117,757,o),
(120,765,o),
(137,765,cs),
(158,765,o),
(161,754,o),
(163,743,c),
(193,175,l),
(193,127,ls),
(194,122,o),
(196,120,o),
(200,119,cs),
(201,119,ls),
(206,118,o),
(209,119,o),
(211,124,cs),
(228,167,l),
(512,741,ls),
(521,761,o),
(536,770,o),
(548,764,cs),
(559,759,o),
(564,747,o),
(552,724,cs),
(210,33,ls),
(202,16,o),
(199,8,o),
(181,8,cs)
);
}
);
vertWidth = 0;
width = 539;
},
{
layerId = m002;
shapes = (
{
closed = 1;
nodes = (
(226.8,-9.6,o),
(244.4,14,o),
(255.6,36.8,cs),
(583.6,698.8,ls),
(607.6,745.6,o),
(575.6,779.6,o),
(533.2,779.6,cs),
(496.4,779.6,o),
(470.4,763.6,o),
(458.4,737.2,cs),
(245.2,307.2,l),
(235.6,284,l),
(236.4,308,l),
(214.4,725.2,ls),
(213.2,756.4,o),
(188,779.6,o),
(146,779.6,cs),
(108.4,779.6,o),
(81.2,757.2,o),
(83.6,717.6,cs),
(121.6,51.6,ls),
(123.6,19.2,o),
(148.8,-9.6,o),
(189.2,-9.6,cs)
);
},
{
closed = 1;
nodes = (
(156.4,5.6,o),
(138.4,26,o),
(136.4,52.4,cs),
(98.4,718.4,ls),
(96.8,749.6,o),
(114.8,764.4,o),
(146,764.4,cs),
(181.2,764.4,o),
(198.8,748.4,o),
(199.6,724.8,cs),
(221.6,308,l),
(220,250,ls),
(219.6,245.6,o),
(222,242.8,o),
(226.4,241.6,cs),
(227.2,241.6,ls),
(231.6,240.4,o),
(234.8,242,o),
(236.8,246.4,cs),
(258.8,300.8,l),
(471.6,730.8,ls),
(482,752.8,o),
(501.2,764.4,o),
(533.2,764.4,cs),
(567.6,764.4,o),
(588.8,741.6,o),
(570.4,705.2,cs),
(242.4,43.2,ls),
(231.6,22,o),
(219.2,5.6,o),
(189.2,5.6,cs)
);
}
);
vertWidth = 0;
width = 546;
}
);
},
{
glyphname = W.ss01;
kernLeft = V_left;
kernRight = V_right;
layers = (
{
background = {
shapes = (
{
closed = 1;
nodes = (
(634,0,o),
(639,13,o),
(647,30,cs),
(996,734,ls),
(1007,758,o),
(993,772,o),
(975,772,cs),
(953,772,o),
(943,763,o),
(933,743,cs),
(589,46,l),
(612,0,l)
);
},
{
closed = 1;
nodes = (
(600,744,ls),
(599,756,o),
(594,772,o),
(568,772,c),
(546,772,o),
(539,759,o),
(541,741,cs),
(580,33,ls),
(581,18,o),
(590,0,o),
(613,0,c),
(638,44,l)
);
}
);
};
layerId = m01;
shapes = (
{
closed = 1;
nodes = (
(209,-7,o),
(219,15,o),
(226,28,cs),
(509,603,l),
(517,622,l),
(517,607,l),
(550,26,ls),
(551,6,o),
(562,-7,o),
(585,-7,cs),
(612,-7,o),
(622,10,o),
(630,27,cs),
(971,718,ls),
(986,748,o),
(975,769,o),
(958,777,cs),
(937,786,o),
(915,772,o),
(903,748,cs),
(615,160,l),
(615,187,l),
(582,745,l),
(580,760,o),
(574,780,o),
(541,780,cs),
(515,780,o),
(503,761,o),
(496,747,cs),
(217,178,l),
(207,157,l),
(207,179,l),
(177,745,l),
(175,758,o),
(170,780,o),
(137,780,cs),
(111,780,o),
(101,761,o),
(103,741,cs),
(142,33,ls),
(144,12,o),
(156,-7,o),
(183,-7,cs)
);
},
{
closed = 1;
nodes = (
(165,8,o),
(158,18,o),
(156,35,c),
(117,741,ls),
(117,757,o),
(120,765,o),
(137,765,cs),
(158,765,o),
(161,754,o),
(163,743,c),
(193,179,l),
(192,129,ls),
(192,124,o),
(195,122,o),
(199,121,cs),
(200,120,ls),
(205,119,o),
(208,121,o),
(210,125,cs),
(231,172,l),
(510,741,ls),
(516,753,o),
(523,765,o),
(541,765,cs),
(563,765,o),
(566,756,o),
(568,743,c),
(601,187,l),
(599,128,ls),
(598,123,o),
(601,121,o),
(605,120,cs),
(611,118,o),
(614,120,o),
(616,124,cs),
(917,742,ls),
(926,761,o),
(939,769,o),
(952,763,cs),
(963,758,o),
(969,747,o),
(957,724,cs),
(616,33,ls),
(608,16,o),
(604,8,o),
(585,8,cs),
(570,8,o),
(565,13,o),
(564,26,cs),
(531,607,l),
(532,655,ls),
(532,660,o),
(529,662,o),
(524,663,cs),
(519,664,o),
(516,663,o),
(515,658,cs),
(495,609,l),
(212,34,ls),
(205,21,o),
(199,8,o),
(183,8,cs)
);
}
);
vertWidth = 0;
width = 942;
},
{
layerId = m002;
shapes = (
{
closed = 1;
nodes = (
(242.4,-7.6,o),
(253.6,13.6,o),
(267.6,42.8,cs),
(474.8,457.6,l),
(500.4,512.8,l),
(502.4,456.4,l),
(534.4,44.4,ls),
(536.8,12.8,o),
(573.2,-7.6,o),
(600,-7.6,cs),
(636.4,-7.6,o),
(653.2,9.2,o),
(665.6,35.6,cs),
(990.8,691.6,ls),
(1010,734,o),
(980.4,779.6,o),
(947.2,779.6,cs),
(902.8,779.6,o),
(879.2,761.6,o),
(866.4,734.4,cs),
(643.2,264.8,l),
(641.6,317.6,l),
(611.6,725.6,ls),
(608,758.4,o),
(585.6,779.6,o),
(541.2,779.6,cs),
(495.2,779.6,o),
(482.4,753.2,o),
(475.2,738.4,cs),
(261.2,308.4,l),
(238.8,260,l),
(237.6,304.4,l),
(214.4,725.2,ls),
(213.2,756.4,o),
(189.2,779.6,o),
(147.2,779.6,cs),
(109.2,779.6,o),
(81.2,757.6,o),
(83.6,717.6,cs),
(129.6,51.6,ls),
(131.6,13.2,o),
(158.8,-7.6,o),
(201.2,-7.6,cs)
);
},
{
closed = 1;
nodes = (
(164.4,7.6,o),
(146.4,22,o),
(144.4,52.4,cs),
(98.4,718.4,ls),
(96.8,749.6,o),
(115.6,764.4,o),
(147.2,764.4,cs),
(182,764.4,o),
(198.8,748.8,o),
(199.6,724.8,cs),
(222.4,303.6,l),
(224.4,234.8,ls),
(224.4,230,o),
(226.4,227.6,o),
(230.8,226.4,cs),
(232.4,226.4,ls),
(236.8,225.2,o),
(239.6,226.8,o),
(241.6,230.8,cs),
(274.8,301.6,l),
(488.8,731.6,ls),
(495.6,746.8,o),
(504.8,764.4,o),
(541.2,764.4,cs),
(579.2,764.4,o),
(594,750.4,o),
(596.4,724.4,cs),
(626.4,316.4,l),
(629.2,240.4,ls),
(629.6,235.6,o),
(631.6,233.2,o),
(637.2,232,cs),
(641.6,231.2,o),
(644.4,232.8,o),
(646.4,236.8,cs),
(879.6,727.6,ls),
(890.8,751.2,o),
(908.4,764.4,o),
(947.2,764.4,cs),
(970.8,764.4,o),
(992.4,731.2,o),
(977.2,698.4,cs),
(652.4,42.4,ls),
(640.8,18.4,o),
(630,7.6,o),
(600,7.6,cs),
(578,7.6,o),
(551.2,22.4,o),
(549.6,45.6,cs),
(517.6,457.6,l),
(514.8,537.6,ls),
(514.4,542.4,o),
(512.4,544.8,o),
(506.8,546,cs),
(502.4,546.8,o),
(499.6,545.2,o),
(497.6,541.2,cs),
(461.2,464.4,l),
(254.4,49.2,ls),
(240.4,20.4,o),
(233.6,7.6,o),
(201.2,7.6,cs)
);
}
);
vertWidth = 0;
width = 950;
},
{
associatedMasterId = m01;
layerId = "0A5AEDD3-7312-4DBD-857C-C4F2C135CE12";
name = background;
shapes = (
{
closed = 1;
nodes = (
(601,0,o),
(607,13,o),
(615,30,cs),
(956,721,ls),
(966,739,o),
(969,754,o),
(966,760,cs),
(961,769,o),
(952,772,o),
(943,772,cs),
(934,772,o),
(927,771,o),
(922,767,cs),
(910,760,o),
(905,751,o),
(901,743,cs),
(625,184,l),
(556,37,l),
(580,0,l)
);
},
{
closed = 1;
nodes = (
(192,179,l),
(162,744,ls),
(160,756,o),
(156,772,o),
(129,772,c),
(108,772,o),
(101,759,o),
(102,741,cs),
(141,33,ls),
(143,14,o),
(156,0,o),
(181,0,c),
(200,44,l)
);
},
{
closed = 1;
nodes = (
(196,0,o),
(204,18,o),
(211,31,cs),
(494,606,l),
(557,735,l),
(531,772,l),
(512,772,o),
(500,754,o),
(495,744,cs),
(216,175,l),
(153,48,l),
(179,0,l)
);
},
{
closed = 1;
nodes = (
(600,187,l),
(567,744,ls),
(565,758,o),
(558,772,o),
(531,772,c),
(508,733,l),
(516,607,l),
(549,23,ls),
(550,7,o),
(560,0,o),
(581,0,c),
(604,36,l)
);
}
);
vertWidth = 0;
width = 594;
}
);
},
{
glyphname = X.ss01;
layers = (
{
layerId = m01;
shapes = (
{
closed = 1;
nodes = (
(433,2,o),
(447,22,o),
(434,55,cs),
(313,375,l),
(564,719,ls),
(579,740,o),
(577,762,o),
(563,772,cs),
(548,784,o),
(521,783,o),
(505,761,cs),
(283,457,l),
(172,753,ls),
(162,779,o),
(134,785,o),
(117,778,cs),
(98,772,o),
(91,751,o),
(101,725,cs),
(226,391,l),
(-24,50,ls),
(-38,32,o),
(-34,12,o),
(-21,1,cs),
(-5,-12,o),
(23,-13,o),
(39,9,cs),
(256,308,l),
(360,30,ls),
(374,-5,o),
(400,-14,o),
(417,-5,cs)
);
},
{
closed = 1;
nodes = (
(399,3,o),
(385,8,o),
(374,36,cs),
(264,329,ls),
(262,335,o),
(257,336,o),
(254,331,cs),
(27,17,ls),
(16,3,o),
(0,3,o),
(-11,13,cs),
(-19,19,o),
(-21,29,o),
(-12,40,cs),
(239,384,ls),
(241,387,o),
(242,390,o),
(240,394,cs),
(115,731,ls),
(107,750,o),
(111,760,o),
(123,764,cs),
(135,769,o),
(151,766,o),
(158,747,cs),
(275,435,ls),
(277,430,o),
(282,429,o),
(285,434,cs),
(517,753,ls),
(528,768,o),
(543,768,o),
(553,760,cs),
(562,754,o),
(563,743,o),
(552,727,cs),
(300,382,ls),
(297,379,o),
(297,376,o),
(298,372,cs),
(420,49,ls),
(430,25,o),
(422,14,o),
(411,9,cs)
);
}
);
vertWidth = 0;
width = 538;
},
{
layerId = m002;
shapes = (
{
closed = 1;
nodes = (
(463.2,14.8,o),
(477.6,42,o),
(464,74.8,cs),
(355.6,364,l),
(583.2,682.4,ls),
(606.4,714,o),
(600.4,743.6,o),
(576,764.8,cs),
(552.4,786,o),
(504,787.2,o),
(480,754.4,cs),
(301.2,506.8,l),
(212.8,742.8,ls),
(196.8,780.4,o),
(154,784.8,o),
(124.4,776,cs),
(89.2,762.4,o),
(77.6,734,o),
(92.8,693.2,cs),
(204.4,395.2,l),
(-18,86.4,ls),
(-38,58.8,o),
(-38,31.2,o),
(-12.8,9.2,cs),
(11.6,-12,o),
(65.2,-18.8,o),
(88,14.8,cs),
(258,252,l),
(340,30.4,ls),
(354.8,-8.8,o),
(405.6,-15.2,o),
(435.6,0.4,cs)
);
},
{
closed = 1;
nodes = (
(403.6,0.8,o),
(365.6,6,o),
(354,35.6,cs),
(266,273.6,ls),
(263.6,279.6,o),
(259.2,280,o),
(255.6,275.2,cs),
(76,23.2,ls),
(58.4,-2,o),
(17.2,3.2,o),
(-3.2,20.8,cs),
(-22.4,37.6,o),
(-22.4,54.4,o),
(-6,77.6,cs),
(218,388,ls),
(220.4,391.2,o),
(220.8,394.4,o),
(219.6,398.4,cs),
(107.2,698.8,ls),
(94,732.8,o),
(101.6,751.2,o),
(129.6,762,cs),
(154.8,769.2,o),
(186.8,766,o),
(199.2,737.2,c),
(292.8,485.6,ls),
(295.2,479.6,o),
(299.6,479.2,o),
(303.2,484,cs),
(492,745.6,ls),
(510.8,771.6,o),
(547.2,770.4,o),
(566,753.2,cs),
(586,736,o),
(590,716.8,o),
(570.8,691.6,cs),
(341.6,370.8,ls),
(339.6,367.6,o),
(339.2,364.4,o),
(340.4,360.4,cs),
(450,69.2,ls),
(460.8,43.2,o),
(451.6,25.6,o),
(428.4,13.6,cs)
);
}
);
vertWidth = 0;
width = 552;
}
);
},
{
glyphname = Y.ss01;
layers = (
{
layerId = m01;
shapes = (
{
closed = 1;
nodes = (
(244,-7,o),
(250,16,o),
(253,28,cs),
(314,380,l),
(564,719,ls),
(578,739,o),
(576,762,o),
(558,773,cs),
(542,786,o),
(516,779,o),
(503,761,cs),
(305,491,l),
(284,461,l),
(275,490,l),
(177,751,ls),
(167,776,o),
(143,784,o),
(124,777,cs),
(104,769,o),
(99,746,o),
(107,725,cs),
(239,378,l),
(178,33,ls),
(173,11,o),
(186,-7,o),
(212,-7,cs)
);
},
{
closed = 1;
nodes = (
(195,8,o),
(189,16,o),
(192,31,cs),
(254,375,ls),
(255,378,o),
(254,381,o),
(253,384,cs),
(121,731,ls),
(115,747,o),
(117,758,o),
(130,763,cs),
(142,768,o),
(156,763,o),
(163,745,cs),
(261,486,l),
(275,438,ls),
(277,432,o),
(281,431,o),
(285,436,cs),
(317,483,l),
(515,753,ls),
(524,765,o),
(539,769,o),
(550,761,cs),
(561,754,o),
(562,742,o),
(552,727,cs),
(303,390,ls),
(301,387,o),
(300,385,o),
(299,381,cs),
(239,32,l),
(236,20,o),
(232,8,o),
(212,8,cs)
);
}
);
vertWidth = 0;
width = 537;
},
{
layerId = m002;
shapes = (
{
closed = 1;
nodes = (
(263.6,-9.6,o),
(283.2,19.6,o),
(287.2,46.8,cs),
(344,372,l),
(574.8,682.4,ls),
(603.2,719.6,o),
(589.2,756.4,o),
(564,773.2,cs),
(537.6,790.8,o),
(496.8,791.2,o),
(470,755.6,cs),
(308.8,536.4,l),
(294.4,516,l),
(287.2,537.6,l),
(209.2,740.8,ls),
(192,784.4,o),
(150.8,792.4,o),
(120.8,777.6,cs),
(93.2,764.4,o),
(74.4,734.4,o),
(89.2,696.4,cs),
(211.2,387.2,l),
(154.8,59.2,ls),
(147.6,21.6,o),
(176.8,-9.6,o),
(219.2,-9.6,cs)
);
},
{
closed = 1;
nodes = (
(184.4,5.6,o),
(164,27.2,o),
(169.2,56.8,cs),
(226,384,ls),
(226.4,387.6,o),
(226.4,390,o),
(224.8,393.6,cs),
(102.8,701.6,ls),
(91.2,732.4,o),
(104.4,753.2,o),
(127.2,764.4,cs),
(152,776,o),
(181.6,770.4,o),
(194.8,735.2,cs),
(272.8,532.4,l),
(286,494.4,ls),
(288,488.8,o),
(292.4,488,o),
(296,492.8,cs),
(321.2,527.6,l),
(482,746.4,ls),
(503.6,775.6,o),
(533.6,775.6,o),
(556,760.8,cs),
(576,747.2,o),
(585.6,721.2,o),
(563.2,691.6,cs),
(332.8,382,ls),
(330.8,379.2,o),
(329.6,376.8,o),
(329.2,373.2,cs),
(272.8,49.2,ls),
(268.8,26,o),
(255.2,5.6,o),
(219.2,5.6,cs)
);
}
);
vertWidth = 0;
width = 543;
},
{
associatedMasterId = m01;
layerId = "00B86DF0-33AC-4F1C-ADC9-58C3EF72DD24";
name = background;
shapes = (
{
closed = 1;
nodes = (
(530,723,ls),
(536,732,o),
(539,740,o),
(539,747,cs),
(539,754,o),
(536,762,o),
(529,766,cs),
(520,772,o),
(512,773,o),
(505,772,cs),
(497,770,o),
(487,764,o),
(481,757,cs),
(215,396,l),
(252,346,l)
);
},
{
closed = 1;
nodes = (
(225,416,l),
(157,32,ls),
(153,14,o),
(163,0,o),
(184,0,cs),
(210,0,o),
(215,18,o),
(217,30,cs),
(285,416,l)
);
},
{
closed = 1;
nodes = (
(267,415,l),
(141,748,ls),
(138,758,o),
(129,766,o),
(121,770,cs),
(115,773,o),
(107,773,o),
(97,770,cs),
(88,766,o),
(82,760,o),
(81,753,cs),
(80,746,o),
(82,738,o),
(86,728,cs),
(223,365,l)
);
}
);
vertWidth = 0;
width = 594;
},
{
associatedMasterId = m002;
layerId = "ABE7B4F7-B3A0-4559-B244-B70180902683";
name = background;
shapes = (
{
closed = 1;
nodes = (
(516,776,o),
(494,776,o),
(482,776,c),
(469,772,o),
(451,763,o),
(443,751,cs),
(196,416,l),
(248,302,l),
(536,687,ls),
(545,700,o),
(550,712,o),
(550,726,cs),
(550,740,o),
(543,753,o),
(530,763,cs)
);
},
{
closed = 1;
nodes = (
(226,-2,o),
(242,23,o),
(247,48,cs),
(315,441,l),
(195,441,l),
(128,58,ls),
(122,25,o),
(147,-2,o),
(185,-2,cs)
);
},
{
closed = 1;
nodes = (
(72,764,o),
(59,751,o),
(56,735,cs),
(53,723,o),
(58,712,o),
(63,699,cs),
(214,316,l),
(297,404,l),
(169,738,ls),
(164,751,o),
(153,763,o),
(138,770,cs),
(127,776,o),
(106,777,o),
(90,771,cs)
);
}
);
vertWidth = 0;
width = 594;
}
);
},
{
glyphname = Z.ss01;
layers = (
{
layerId = m01;
shapes = (
{
closed = 1;
nodes = (
(425,-7,ls),
(454,-7,o),
(464,10,o),
(464,27,cs),
(464,45,o),
(454,63,o),
(425,63,cs),
(118,62,l),
(100,62,l),
(579,718,ls),
(599,743,o),
(581,780,o),
(553,780,cs),
(155,780,ls),
(127,780,o),
(117,762,o),
(117,745,cs),
(117,728,o),
(127,711,o),
(155,711,cs),
(436,710,l),
(482,711,l),
(1,52,ls),
(-15,30,o),
(-6,-7,o),
(26,-7,cs)
);
},
{
closed = 1;
nodes = (
(7,8,o),
(2,28,o),
(13,44,cs),
(505,716,ls),
(509,722,o),
(507,726,o),
(500,726,cs),
(436,726,l),
(155,726,ls),
(136,726,o),
(132,733,o),
(132,745,cs),
(132,757,o),
(136,765,o),
(155,765,cs),
(553,765,ls),
(570,765,o),
(580,744,o),
(567,726,cs),
(77,55,ls),
(73,50,o),
(75,46,o),
(82,46,cs),
(118,48,l),
(425,48,ls),
(445,48,o),
(449,40,o),
(449,27,cs),
(449,15,o),
(445,8,o),
(425,8,cs),
(26,8,ls)
);
}
);
vertWidth = 0;
width = 559;
},
{
layerId = m002;
shapes = (
{
closed = 1;
nodes = (
(423.2,-7.6,ls),
(465.2,-7.6,o),
(489.6,19.2,o),
(489.6,51.2,cs),
(489.6,86,o),
(463.2,114.4,o),
(423.2,114.4,cs),
(200.8,114.4,l),
(157.2,110,l),
(582,680.4,ls),
(616.8,727.6,o),
(584.8,783.6,o),
(530,783.6,cs),
(154,783.6,ls),
(114.8,783.6,o),
(87.6,756,o),
(87.6,721.2,cs),
(87.6,689.2,o),
(111.6,661.6,o),
(154,661.6,cs),
(367.2,661.6,l),
(411.2,664.4,l),
(-16,94.4,ls),
(-52.4,46.8,o),
(-12.4,-7.6,o),
(29.2,-7.6,cs)
);
},
{
closed = 1;
nodes = (
(-3.2,7.6,o),
(-32.8,48,o),
(-4,85.6,cs),
(435.6,672,ls),
(439.6,677.2,o),
(437.2,681.2,o),
(430.8,680.8,cs),
(366.8,676.4,l),
(154,676.4,ls),
(119.6,676.4,o),
(102.4,696,o),
(102.4,721.2,cs),
(102.4,748.8,o),
(122,768.4,o),
(154,768.4,cs),
(530,768.4,ls),
(574.8,768.4,o),
(598,727.6,o),
(570,689.6,cs),
(132.4,102,ls),
(128,97,o),
(130.8,92.4,o),
(137.2,93.2,cs),
(201.2,99.6,l),
(423.2,99.6,ls),
(455.6,99.6,o),
(474.4,79.2,o),
(474.4,51.2,cs),
(474.4,26,o),
(457.6,7.6,o),
(423.2,7.6,cs),
(29.2,7.6,ls)
);
}
);
vertWidth = 0;
width = 563;
}
);
},
{
glyphname = a;
kernLeft = o_left;
kernRight = n_right;
layers = (
{
layerId = m01;
shapes = (
{
closed = 1;
nodes = (
(130,-12,o),
(195,54,o),
(266,145,cs),
(280,162,o),
(296,186,o),
(312,213,c),
(274,29,ls),
(272,18,o),
(274,-7,o),
(308,-7,cs),
(345,-7,o),
(348,20,o),
(349,26,cs),
(411,374,ls),
(417,406,o),
(404,424,o),
(372,424,cs),
(251,424,ls),
(182,424,o),
(108,403,o),
(62,332,cs),
(23,274,o),
(-12,157,o),
(-12,87,cs),
(-12,22,o),
(14,-12,o),
(58,-12,cs)
);
},
{
closed = 1;
nodes = (
(63,64,o),
(63,74,o),
(63,93,cs),
(63,137,o),
(90,242,o),
(120,287,cs),
(154,338,o),
(211,349,o),
(251,349,cs),
(318,349,l),
(286,297,o),
(250,244,o),
(204,187,cs),
(133,96,o),
(91,64,o),
(71,64,cs)
);
},
{
closed = 1;
nodes = (
(97,49,o),
(143,85,o),
(216,177,cs),
(266,241,o),
(306,299,o),
(339,355,cs),
(342,360,o),
(340,364,o),
(334,364,cs),
(251,364,ls),
(209,364,o),
(146,352,o),
(108,295,cs),
(76,248,o),
(48,139,o),
(48,93,cs),
(48,69,o),
(49,49,o),
(71,49,cs)
);
},
{
closed = 1;
nodes = (
(23,3,o),
(3,29,o),
(3,87,cs),
(3,155,o),
(37,268,o),
(74,324,cs),
(118,390,o),
(184,409,o),
(251,409,cs),
(372,409,ls),
(395,409,o),
(401,401,o),
(397,376,cs),
(335,28,ls),
(334,22,o),
(331,8,o),
(308,8,cs),
(288,8,o),
(287,18,o),
(288,25,cs),
(336,253,ls),
(337,258,o),
(335,261,o),
(331,263,cs),
(326,264,o),
(322,263,o),
(320,259,cs),
(299,217,o),
(274,179,o),
(254,155,cs),
(183,64,o),
(124,3,o),
(58,3,cs)
);
},
{
closed = 1;
nodes = (
(192,458,l),
(241,444,l),
(241,453,l),
(370,453,l),
(370,463,l),
(241,463,l),
(241,472,l)
);
},
{
closed = 1;
nodes = (
(375,372,o),
(380,377,o),
(380,383,cs),
(380,389,o),
(375,394,o),
(369,394,cs),
(363,394,o),
(358,389,o),
(358,383,cs),
(358,377,o),
(363,372,o),
(369,372,cs)
);
}
);
vertWidth = 0;
width = 483;
},
{
layerId = m002;
shapes = (
{
closed = 1;
nodes = (
(128,-12,o),
(195,30,o),
(247,89,cs),
(249,92,o),
(251,94,o),
(253.2,96.8,c),
(245.6,53.2,ls),
(240,22,o),
(262.4,-7.6,o),
(305.2,-7.6,cs),
(352.8,-7.6,o),
(370,22.8,o),
(373.2,42.8,cs),
(426.4,348.8,ls),
(434,392.8,o),
(410.8,423.6,o),
(374,423.6,cs),
(249.2,423.6,ls),
(182,423.6,o),
(104.4,402.8,o),
(56.8,332,cs),
(18.8,274,o),
(-6.4,166,o),
(-6.4,101.2,cs),
(-6.4,22.8,o),
(18,-12.4,o),
(69.2,-12.4,cs)
);
},
{
closed = 1;
nodes = (
(124,109.6,o),
(120.4,116,o),
(120.4,121.2,cs),
(120.4,158,o),
(138,227.2,o),
(159.2,262,cs),
(183.6,298,o),
(219.6,304.4,o),
(249.2,304.4,cs),
(285.6,304.4,l),
(265.2,271.2,o),
(242,236.4,o),
(215.2,202.8,cs),
(158.4,132.4,o),
(129.2,111.2,o),
(121.6,108,c)
);
},
{
closed = 1;
nodes = (
(129.6,92.4,o),
(162.4,113.6,o),
(226.8,193.2,cs),
(257.6,232.4,o),
(284.4,272.8,o),
(306.8,310.8,cs),
(310,316,o),
(307.6,319.6,o),
(301.6,319.6,cs),
(249.2,319.6,ls),
(218,319.6,o),
(174.8,312,o),
(146.8,270,cs),
(124,232.8,o),
(105.6,160,o),
(105.6,121.2,cs),
(105.6,110,o),
(107.6,92.4,o),
(120,92.4,cs)
);
},
{
closed = 1;
nodes = (
(26.8,2.4,o),
(8.4,28.4,o),
(8.4,101.2,cs),
(8.4,164,o),
(33.2,268,o),
(69.2,324,cs),
(113.6,389.6,o),
(184,408.4,o),
(249.2,408.4,cs),
(374,408.4,ls),
(402.4,408.4,o),
(418,388,o),
(411.6,351.2,cs),
(358.8,45.2,ls),
(356,28.4,o),
(343.6,7.6,o),
(305.2,7.6,cs),
(270.8,7.6,o),
(256,26.8,o),
(260.4,50.8,cs),
(272,117.2,ls),
(272.8,121.6,o),
(271.2,124.4,o),
(267.2,126.4,cs),
(262,128.8,o),
(257,125,o),
(256,124,cs),
(256,124,o),
(251.6,118.4,o),
(250,116.4,cs),
(198,50.4,o),
(128.8,2.4,o),
(69.2,2.4,cs)
);
},
{
closed = 1;
nodes = (
(184,459,l),
(233,444,l),
(233,453,l),
(362,453,l),
(362,466,l),
(233,466,l),
(233,475,l)
);
},
{
closed = 1;
nodes = (
(375,361,o),
(380,366,o),
(380,372,cs),
(380,378,o),
(375,383,o),
(369,383,cs),
(363,383,o),
(358,378,o),
(358,372,cs),
(358,366,o),
(363,361,o),
(369,361,cs)
);
}
);
vertWidth = 0;
width = 475;
},
{
associatedMasterId = m01;
layerId = "0512CE0E-1919-4D4E-A8DF-3BC8F2425765";
name = background;
shapes = (
{
closed = 1;
nodes = (
(341,358,l),
(308,302,o),
(268,244,o),
(220,182,cs),
(147,91,o),
(103,56,o),
(81,56,cs),
(64,56,o),
(64,74,o),
(64,93,cs),
(64,138,o),
(86,245,o),
(116,291,cs),
(152,345,o),
(213,356,o),
(253,356,cs),
(261,356,o),
(342,356,o),
(365,356,c),
(365,416,l),
(350,416,o),
(277,416,o),
(253,416,cs),
(185,416,o),
(115,396,o),
(70,328,cs),
(32,271,o),
(5,156,o),
(5,87,cs),
(5,26,o),
(29,-5,o),
(68,-5,cs),
(137,-5,o),
(198,59,o),
(270,150,cs),
(305,194,o),
(372,280,o),
(391,346,cs),
(394,358,l)
);
},
{
closed = 1;
nodes = (
(416,391,o),
(416,400,o),
(412,406,cs),
(409,412,o),
(404,416,o),
(396,416,cs),
(341,416,l),
(341,310,l),
(291,27,ls),
(290,18,o),
(291,0,o),
(317,0,cs),
(348,0,o),
(350,21,o),
(352,27,cs),
(413,375,ls)
);
}
);
vertWidth = 0;
width = 594;
}
);
unicode = 97;
},
{
glyphname = b;
kernLeft = h_left;
kernRight = o_right;
layers = (
{
layerId = m01;
shapes = (
{
closed = 1;
nodes = (
(158,-7,ls),
(353,-7,o),
(414,177,o),
(414,329,cs),
(414,394,o),
(384,429,o),
(337,429,cs),
(257,429,o),
(161,313,o),
(94,204,c),
(188,737,ls),
(193,764,o),
(177,780,o),
(159,780,cs),
(140,780,o),
(120,767,o),
(115,739,cs),
(-11,27,ls),
(-14,9,o),
(-4,-7,o),
(15,-7,cs)
);
},
{
closed = 1;
nodes = (
(158,48,ls),
(310,48,o),
(356,206,o),
(356,317,cs),
(356,343,o),
(354,368,o),
(325,368,cs),
(279,368,o),
(131,191,o),
(62,57,cs),
(59,51,o),
(62,48,o),
(68,48,cs)
);
},
{
closed = 1;
nodes = (
(153,193,o),
(289,353,o),
(325,353,cs),
(340,353,o),
(341,343,o),
(341,317,cs),
(341,209,o),
(298,65,o),
(158,63,cs),
(82,62,l)
);
},
{
closed = 1;
nodes = (
(5,8,o),
(1,14,o),
(3,25,cs),
(129,737,ls),
(133,757,o),
(145,765,o),
(159,765,cs),
(170,765,o),
(177,757,o),
(174,739,cs),
(73,172,ls),
(72,167,o),
(74,164,o),
(78,163,c),
(79,163,l),
(83,161,o),
(87,162,o),
(89,166,cs),
(156,283,o),
(257,414,o),
(337,414,cs),
(377,414,o),
(399,387,o),
(399,329,cs),
(399,180,o),
(342,8,o),
(158,8,cs),
(15,8,ls)
);
},
{
closed = 1;
nodes = (
(53,566,l),
(74,612,l),
(65,614,l),
(85,741,l),
(76,742,l),
(55,616,l),
(46,617,l)
);
},
{
closed = 1;
nodes = (
(159,729,o),
(164,734,o),
(164,740,cs),
(164,746,o),
(159,751,o),
(153,751,cs),
(147,751,o),
(142,746,o),
(142,740,cs),
(142,734,o),
(147,729,o),
(153,729,cs)
);
}
);
vertWidth = 0;
width = 472;
},
{
layerId = m002;
shapes = (
{
closed = 1;
nodes = (
(206,-7.6,ls),
(404,-8,o),
(461.6,176.4,o),
(461.6,315.2,cs),
(461.6,397.6,o),
(424.8,428.4,o),
(372,428.4,cs),
(312.4,428.4,o),
(231.6,359.6,o),
(164.4,274,c),
(247.2,710.8,ls),
(255,754,o),
(230,779.6,o),
(194,779.6,cs),
(168,779.6,o),
(129,767,o),
(121.6,722.4,cs),
(4.8,53.2,ls),
(-2,17,o),
(23,-8,o),
(59.2,-7.6,cs)
);
},
{
closed = 1;
nodes = (
(206,95.6,ls),
(298,96,o),
(349.6,181.2,o),
(349.6,292,cs),
(349.6,308,o),
(347.6,323.6,o),
(335.2,323.6,cs),
(305.2,323.6,o),
(202.4,200.8,o),
(142,104.8,cs),
(138.8,99.6,o),
(141,96,o),
(147.2,95.6,cs)
);
},
{
closed = 1;
nodes = (
(224,202.8,o),
(315.2,308.4,o),
(335.2,308.4,cs),
(330,308.4,o),
(334.4,302.8,o),
(334.4,292,cs),
(334.4,186,o),
(289,110,o),
(206,110.4,cs),
(163.6,110.4,l)
);
},
{
closed = 1;
nodes = (
(30,8,o),
(14,24,o),
(19.2,50.8,cs),
(136.4,719.6,ls),
(143,755,o),
(171.2,764.4,o),
(194,764.4,cs),
(222.8,764.4,o),
(239,748,o),
(232.8,713.2,cs),
(144.8,252.4,ls),
(144,248,o),
(145,244,o),
(149.6,242.8,cs),
(151.2,242.4,ls),
(156,241,o),
(158.4,241.2,o),
(161.2,245.2,cs),
(230,338,o),
(314,413.6,o),
(372,413.6,cs),
(418.4,413.6,o),
(446.4,389.6,o),
(446.4,315.2,cs),
(446.4,179.2,o),
(392,8,o),
(206,7.6,cs),
(59.2,7.6,ls)
);
},
{
closed = 1;
nodes = (
(53,549,l),
(76,594,l),
(67,596,l),
(90,724,l),
(77,726,l),
(54,599,l),
(46,600,l)
);
},
{
closed = 1;
nodes = (
(176,718,o),
(181,723,o),
(181,729,cs),
(181,735,o),
(176,740,o),
(170,740,cs),
(164,740,o),
(159,735,o),
(159,729,cs),
(159,723,o),
(164,718,o),
(170,718,cs)
);
}
);
vertWidth = 0;
width = 507;
},
{
associatedMasterId = m01;
layerId = "37741203-4949-4251-BBC6-E0723D02A970";
name = background;
shapes = (
{
closed = 1;
nodes = (
(150,0,ls),
(217,0,o),
(287,20,o),
(333,88,cs),
(371,145,o),
(398,260,o),
(398,329,cs),
(398,390,o),
(374,421,o),
(335,421,cs),
(266,421,o),
(204,356,o),
(160,301,cs),
(114,242,o),
(68,166,o),
(38,112,c),
(38,57,l),
(62,57,l),
(95,114,o),
(134,173,o),
(200,255,cs),
(255,326,o),
(299,360,o),
(317,360,cs),
(339,360,o),
(340,343,o),
(340,324,cs),
(340,289,o),
(317,171,o),
(286,125,cs),
(251,71,o),
(196,57,o),
(150,57,cs),
(38,57,l),
(38,0,l)
);
},
{
closed = 1;
nodes = (
(62,115,l),
(173,738,ls),
(177,760,o),
(165,772,o),
(151,772,cs),
(135,772,o),
(119,762,o),
(114,738,cs),
(-12,26,ls),
(-14,12,o),
(-7,0,o),
(7,0,cs),
(62,0,l)
);
}
);
vertWidth = 0;
width = 594;
},
{
associatedMasterId = m002;
layerId = "E0DABD11-634D-4846-BE24-CDDCCBAEB0AF";
name = background;
shapes = (
{
closed = 1;
nodes = (
(190,0,l),
(255,0,o),
(331,19,o),
(375,88,cs),
(412,145,o),
(438,251,o),
(438,315,cs),
(438,393,o),
(405,421,o),
(356,421,cs),
(284,421,o),
(210,346,o),
(173,302,cs),
(128,247,o),
(88,182,o),
(62,133,c),
(62,50,l),
(110,50,l),
(141,105,o),
(184,176,o),
(240,241,cs),
(287,297,o),
(311,316,o),
(320,316,cs),
(326,316,o),
(327,303,o),
(327,292,cs),
(327,264,o),
(311,184,o),
(285,149,cs),
(258,112,o),
(227,103,o),
(190,103,c),
(62,103,l),
(62,0,l)
);
},
{
closed = 1;
nodes = (
(120,120,l),
(225,712,ls),
(232,751,o),
(210,772,o),
(178,772,cs),
(154,772,o),
(121,760,o),
(114,721,cs),
(-4,52,ls),
(-10,21,o),
(12,0,o),
(44,0,cs),
(125,0,l)
);
}
);
vertWidth = 0;
width = 594;
}
);
unicode = 98;
},
{
glyphname = c;
kernLeft = o_left;
layers = (
{
layerId = m01;
shapes = (
{
closed = 1;
nodes = (
(176,-12,o),
(270,79,o),
(306,157,cs),
(315,176,o),
(303,196,o),
(287,203,cs),
(264,213,o),
(245,197,o),
(238,182,cs),
(221,145,o),
(152,64,o),
(96,64,cs),
(72,64,o),
(65,74,o),
(65,112,cs),
(65,137,o),
(86,243,o),
(116,287,cs),
(157,346,o),
(208,370,o),
(313,345,cs),
(335,339,o),
(349,365,o),
(349,379,cs),
(349,399,o),
(340,412,o),
(317,418,cs),
(195,444,o),
(105,403,o),
(57,332,cs),
(17,275,o),
(-10,157,o),
(-10,102,cs),
(-10,22,o),
(26,-12,o),
(87,-12,cs)
);
},
{
closed = 1;
nodes = (
(33,3,o),
(5,29,o),
(5,102,cs),
(5,155,o),
(31,269,o),
(69,324,cs),
(115,391,o),
(197,428,o),
(313,404,cs),
(330,399,o),
(334,394,o),
(334,379,cs),
(334,370,o),
(326,357,o),
(317,359,cs),
(206,386,o),
(147,358,o),
(104,295,cs),
(72,249,o),
(50,139,o),
(50,112,cs),
(50,69,o),
(63,49,o),
(96,49,cs),
(160,49,o),
(233,137,o),
(252,176,cs),
(257,187,o),
(267,195,o),
(281,189,cs),
(292,184,o),
(298,175,o),
(292,163,cs),
(258,88,o),
(169,3,o),
(87,3,cs)
);
},
{
closed = 1;
nodes = (
(131,458,l),
(180,444,l),
(180,453,l),
(309,453,l),
(309,463,l),
(180,463,l),
(180,472,l)
);
},
{
closed = 1;
nodes = (
(314,372,o),
(319,377,o),
(319,383,cs),
(319,389,o),
(314,394,o),
(308,394,cs),
(302,394,o),
(297,389,o),
(297,383,cs),
(297,377,o),
(302,372,o),
(308,372,cs)
);
}
);
vertWidth = 0;
width = 373;
},
{
layerId = m002;
shapes = (
{
closed = 1;
nodes = (
(162.4,-12.4,o),
(256,46,o),
(313.2,135.2,cs),
(330.8,163.6,o),
(331.2,199.2,o),
(306.4,217.2,cs),
(281.2,235.2,o),
(236.4,229.6,o),
(213.2,199.6,cs),
(202,185.6,o),
(139.6,108.4,o),
(113.2,108.4,cs),
(110.4,108.4,o),
(110.4,118,o),
(110.4,124,cs),
(110.4,160.8,o),
(130.8,230.8,o),
(153.2,266,cs),
(176.4,302,o),
(233.6,312.4,o),
(302,312.4,cs),
(335.2,312.4,o),
(361.6,338.8,o),
(361.6,371.2,cs),
(361.6,400,o),
(335.2,428.4,o),
(302,428.4,cs),
(198.8,428.4,o),
(104.4,404,o),
(56.8,332,cs),
(18.8,274,o),
(-6.4,166,o),
(-6.4,101.2,cs),
(-6.4,22.4,o),
(39.6,-12.4,o),
(88,-12.4,cs)
);
},
{
closed = 1;
nodes = (
(45.6,2.4,o),
(8.4,30.8,o),
(8.4,101.2,cs),
(8.4,164,o),
(33.2,268,o),
(69.2,324,cs),
(113.6,390.4,o),
(200.8,413.6,o),
(302,413.6,cs),
(327.6,413.6,o),
(346.4,393.2,o),
(346.4,371.2,cs),
(346.4,346,o),
(328,327.6,o),
(302,327.6,cs),
(232,327.6,o),
(167.6,316,o),
(140.8,274,cs),
(117.2,237.2,o),
(95.6,163.2,o),
(95.6,124,cs),
(95.6,113.6,o),
(96.8,93.6,o),
(113.2,93.6,cs),
(147.6,93.6,o),
(214,176.8,o),
(224.8,190.4,cs),
(244,214.8,o),
(278,219.2,o),
(297.6,204.8,cs),
(315.6,192,o),
(315.6,167.2,o),
(300.8,142.8,cs),
(245.6,57.6,o),
(158,2.4,o),
(88,2.4,cs)
);
},
{
closed = 1;
nodes = (
(128,459,l),
(177,444,l),
(177,453,l),
(306,453,l),
(306,466,l),
(177,466,l),
(177,475,l)
);
},
{
closed = 1;
nodes = (
(316,371,o),
(321,376,o),
(321,382,cs),
(321,388,o),
(316,393,o),
(310,393,cs),
(304,393,o),
(299,388,o),
(299,382,cs),
(299,376,o),
(304,371,o),
(310,371,cs)
);
}
);
vertWidth = 0;
width = 391;
},
{
associatedMasterId = m01;
layerId = "46184994-1B49-4094-8A0D-A96E5DA8C5AF";
name = background;
shapes = (
{
closed = 1;
nodes = (
(115,-5,o),
(178,38,o),
(229,100,cs),
(244,118,o),
(260,139,o),
(273,157,cs),
(280,168,o),
(283,177,o),
(283,184,cs),
(283,200,o),
(268,208,o),
(258,208,cs),
(247,208,o),
(235,203,o),
(226,191,cs),
(215,178,o),
(201,159,o),
(189,144,cs),
(147,91,o),
(108,56,o),
(84,56,cs),
(71,56,o),
(64,70,o),
(64,93,cs),
(64,138,o),
(86,245,o),
(116,291,cs),
(152,345,o),
(213,356,o),
(295,356,cs),
(310,356,o),
(321,373,o),
(321,387,cs),
(321,400,o),
(310,416,o),
(295,416,cs),
(185,416,o),
(115,396,o),
(70,328,cs),
(32,271,o),
(5,156,o),
(5,87,cs),
(5,26,o),
(32,-5,o),
(70,-5,cs)
);
}
);
vertWidth = 0;
width = 594;
},
{
associatedMasterId = m002;
layerId = "6E5D3D0E-C8B9-4D84-8D71-16A53C56BEDD";
name = background;
shapes = (
{
closed = 1;
nodes = (
(194,-5,o),
(257,38,o),
(304,96,cs),
(320,114,o),
(335,135,o),
(346,150,cs),
(354,163,o),
(359,176,o),
(359,187,cs),
(359,216,o),
(331,234,o),
(307,234,cs),
(291,234,o),
(272,225,o),
(258,206,cs),
(247,192,o),
(236,178,o),
(227,165,cs),
(192,121,o),
(178,101,o),
(166,101,cs),
(157,101,o),
(157,118,o),
(157,124,cs),
(157,162,o),
(177,234,o),
(201,270,cs),
(226,309,o),
(271,315,o),
(340,315,cs),
(369,315,o),
(392,339,o),
(392,366,cs),
(392,391,o),
(369,416,o),
(340,416,cs),
(238,416,o),
(163,397,o),
(116,328,cs),
(80,271,o),
(55,165,o),
(55,101,cs),
(55,27,o),
(96,-5,o),
(141,-5,cs)
);
}
);
vertWidth = 0;
width = 594;
}
);
unicode = 99;
},
{
glyphname = d;
kernLeft = o_left;
layers = (
{
layerId = m01;
shapes = (
{
closed = 1;
nodes = (
(130,-12,o),
(197,58,o),
(254,129,cs),
(273,153,o),
(290,180,o),
(307,207,c),
(301,174,ls),
(284,81,o),
(294,2,o),
(354,-7,cs),
(408,-15,o),
(441,14,o),
(466,55,cs),
(479,77,o),
(494,100,o),
(494,112,cs),
(494,134,o),
(478,147,o),
(461,147,cs),
(443,147,o),
(432,134,o),
(420,113,cs),
(413,101,ls),
(396,71,o),
(384,63,o),
(371,63,cs),
(363,63,o),
(366,119,o),
(373,156,cs),
(476,739,ls),
(481,767,o),
(465,780,o),
(445,780,cs),
(427,780,o),
(406,765,o),
(402,741,cs),
(345,424,l),
(243,424,ls),
(174,424,o),
(103,400,o),
(57,330,cs),
(18,271,o),
(-12,155,o),
(-12,86,cs),
(-12,21,o),
(14,-12,o),
(58,-12,cs)
);
},
{
closed = 1;
nodes = (
(63,63,o),
(63,72,o),
(63,91,cs),
(63,136,o),
(85,239,o),
(115,285,cs),
(150,335,o),
(204,348,o),
(243,348,cs),
(314,348,l),
(285,295,o),
(251,248,o),
(209,195,cs),
(136,100,o),
(91,63,o),
(71,63,cs)
);
},
{
closed = 1;
nodes = (
(98,48,o),
(146,89,o),
(221,185,cs),
(266,243,o),
(303,294,o),
(334,354,cs),
(336,359,o),
(334,362,o),
(328,362,cs),
(243,363,ls),
(202,363,o),
(141,349,o),
(103,293,cs),
(71,245,o),
(48,138,o),
(48,91,cs),
(48,67,o),
(50,48,o),
(71,48,cs)
);
},
{
closed = 1;
nodes = (
(23,3,o),
(3,28,o),
(3,86,cs),
(3,153,o),
(32,265,o),
(69,322,cs),
(113,387,o),
(177,410,o),
(243,409,cs),
(351,408,ls),
(355,408,o),
(358,411,o),
(359,415,cs),
(416,739,ls),
(419,756,o),
(432,765,o),
(445,765,cs),
(459,765,o),
(465,760,o),
(462,741,cs),
(359,158,ls),
(352,116,o),
(345,48,o),
(371,48,cs),
(390,48,o),
(407,62,o),
(425,93,cs),
(432,105,ls),
(444,125,o),
(450,132,o),
(461,132,cs),
(471,132,o),
(479,125,o),
(479,112,cs),
(479,104,o),
(467,85,o),
(454,63,cs),
(429,24,o),
(403,1,o),
(356,7,cs),
(309,15,o),
(299,82,o),
(315,172,cs),
(328,243,ls),
(329,247,o),
(327,250,o),
(322,252,cs),
(317,253,o),
(314,252,o),
(312,248,cs),
(291,209,o),
(268,172,o),
(242,139,cs),
(185,68,o),
(124,3,o),
(58,3,cs)
);
},
{
closed = 1;
nodes = (
(149,442,l),
(200,435,l),
(198,444,l),
(218,448,o),
(237,450,o),
(257,451,cs),
(280,452,o),
(303,451,o),
(326,450,c),
(327,460,l),
(304,461,o),
(279,462,o),
(256,461,cs),
(236,460,o),
(218,458,o),
(198,454,c),
(196,463,l)
);
},
{
closed = 1;
nodes = (
(340,374,o),
(345,379,o),
(345,385,cs),
(345,391,o),
(340,396,o),
(334,396,cs),
(328,396,o),
(323,391,o),
(323,385,cs),
(323,379,o),
(328,374,o),
(334,374,cs)
);
}
);
vertWidth = 0;
width = 545;
},
{
layerId = m002;
shapes = (
{
closed = 1;
nodes = (
(154.8,-12.4,o),
(230,44,o),
(297.6,122.4,c),
(299,124,o),
(299,124,o),
(300,126,c),
(301,119,ls),
(313,38,o),
(338.8,-7.6,o),
(404,-7.6,cs),
(454,-7.6,o),
(487.2,19.6,o),
(523.6,63.2,cs),
(549.2,93.2,o),
(550.4,118.8,o),
(550.4,134,cs),
(550.4,170.8,o),
(522,189.6,o),
(493.2,189.6,cs),
(475.6,189.6,o),
(460,174,o),
(448,157.2,cs),
(430.4,132.8,l),
(426.8,129.2,o),
(421.2,125.6,o),
(415.2,125.6,cs),
(410.4,125.6,o),
(408,134,o),
(414.4,171.6,cs),
(513.2,713.6,ls),
(521,758,o),
(490.4,779.6,o),
(454,779.6,cs),
(423.2,779.6,o),
(393,763,o),
(385.6,721.2,cs),
(334.8,423.6,l),
(261.2,423.6,ls),
(183,424,o),
(107.6,403.6,o),
(58.8,333.2,cs),
(22,275.2,o),
(-6.4,164.8,o),
(-6.4,100,cs),
(-6.4,20.8,o),
(26.8,-12.4,o),
(77.2,-12.4,cs)
);
},
{
closed = 1;
nodes = (
(122,107,o),
(121.6,120,o),
(121.6,126,cs),
(121.6,156,o),
(138.8,230.8,o),
(162,263.6,cs),
(186.4,300,o),
(222,304,o),
(260,304.4,cs),
(296,304.4,l),
(272.8,265.2,o),
(247.2,226.4,o),
(221.2,193.6,cs),
(171.2,131.6,o),
(129,107,o),
(125,107,cs)
);
},
{
closed = 1;
nodes = (
(134,92.4,o),
(180.4,119.6,o),
(232.8,184.4,cs),
(262.8,221.2,o),
(291.2,266.4,o),
(316.8,310.8,cs),
(320,316,o),
(317.6,319.6,o),
(311.6,319.6,cs),
(260,319.6,ls),
(221,320,o),
(177.6,314,o),
(150,272.4,cs),
(125.2,237.2,o),
(106.4,158,o),
(106.4,126,cs),
(106.4,116,o),
(106.4,92.4,o),
(121.2,92.4,cs)
);
},
{
closed = 1;
nodes = (
(34,2.4,o),
(8.4,28,o),
(8.4,100,cs),
(8.4,163.2,o),
(36,268.8,o),
(71.2,324.8,cs),
(116.4,390.4,o),
(185,408,o),
(261.2,408.4,cs),
(340.4,408.4,ls),
(345,408,o),
(348,411,o),
(348.4,415.2,cs),
(400.4,718.8,ls),
(406,752,o),
(428,764.4,o),
(454,764.4,cs),
(484.8,764.4,o),
(505,751,o),
(498.8,716.4,cs),
(399.6,174.4,ls),
(391,129,o),
(399.2,110.4,o),
(415.2,110.4,cs),
(426.8,110.4,o),
(438,119,o),
(441.6,123.2,cs),
(460,148.8,ls),
(471,164,o),
(482,174.4,o),
(493.2,174.4,cs),
(516.8,174.4,o),
(535.6,162,o),
(535.6,134,cs),
(535.6,119.2,o),
(534.8,98.8,o),
(512.4,72.8,cs),
(476.8,30.4,o),
(448.4,7.6,o),
(404,7.6,cs),
(348.4,7.6,o),
(323,53,o),
(315.6,131.6,cs),
(314.8,140,ls),
(314,144,o),
(312,147,o),
(306.8,148.4,cs),
(303,149,o),
(299.6,148.8,o),
(297.2,145.2,cs),
(293.6,140.4,o),
(290,136.4,o),
(286.4,131.6,cs),
(227.6,60.4,o),
(149.6,2.4,o),
(77.2,2.4,cs)
);
},
{
closed = 1;
nodes = (
(138,440,l),
(190,436,l),
(188,445,l),
(208,450,o),
(227,453,o),
(248,455,cs),
(270,458,o),
(291,457,o),
(313,456,c),
(314,469,l),
(292,470,o),
(269,471,o),
(247,468,cs),
(226,466,o),
(205,463,o),
(184,458,c),
(182,467,l)
);
},
{
closed = 1;
nodes = (
(336,362,o),
(341,367,o),
(341,373,cs),
(341,379,o),
(336,384,o),
(330,384,cs),
(324,384,o),
(319,379,o),
(319,373,cs),
(319,367,o),
(324,362,o),
(330,362,cs)
);
}
);
vertWidth = 0;
width = 598;
}
);
unicode = 100;
},
